<svg xmlns="http://www.w3.org/2000/svg" width="52.477" height="54" viewBox="0 0 52.477 54"><defs><style>.a{opacity:0.81;}.b{fill:#0193c9;}.c{fill:#0498cf;}.d{fill:#fff;}</style></defs><g class="a"><path class="b" d="M54.152,95.273c-14.47,0-26.239-12.112-26.239-27s11.77-27,26.239-27,26.238,12.112,26.238,27S68.619,95.273,54.152,95.273Zm0-44.712a17.72,17.72,0,0,0,0,35.426,17.72,17.72,0,0,0,0-35.426Z" transform="translate(-27.913 -41.273)"/></g><g transform="translate(12.343 12.701)"><path class="c" d="M51.079,50.06a14.3,14.3,0,1,0,13.394,14.8A14.083,14.083,0,0,0,51.079,50.06ZM49.726,64.644,45.782,64.5l-.838,4.187-2.59-.094L44.546,57.5l7.091.259-.474,2.372-4.5-.164L46.219,62.3l3.946.143ZM54.641,68l-1.43-.052-.693,3.512-2.59-.1L52.12,60.274l4.155.15c2.137.078,3.288,1.269,3.22,3.2C59.4,66.295,57.774,68.112,54.641,68Z" transform="translate(-36.691 -50.051)"/><path class="c" d="M50.693,58.826l-1.339-.048-.6,3.079,1.28.048a1.7,1.7,0,0,0,1.917-1.791A1.149,1.149,0,0,0,50.693,58.826Z" transform="translate(-31.792 -46.15)"/><path class="d" d="M45.026,57.669l4.5.165L50,55.462,42.91,55.2,40.718,66.291l2.59.095.838-4.189,3.945.144.438-2.2-3.945-.144Z" transform="translate(-35.055 -47.748)"/><path class="d" d="M52.451,57.266l-4.155-.15L46.1,68.2l2.59.1.693-3.512,1.43.052c3.133.114,4.763-1.7,4.854-4.368C55.739,58.535,54.589,57.345,52.451,57.266ZM51.1,62.648l-1.28-.048.6-3.079,1.339.048a1.149,1.149,0,0,1,1.253,1.288A1.7,1.7,0,0,1,51.1,62.648Z" transform="translate(-32.867 -46.893)"/></g></svg>