<svg xmlns="http://www.w3.org/2000/svg" width="52.5" height="54.506" viewBox="0 0 52.5 54.506"><defs><style>.a{opacity:0.702;}.b{fill:#fff;}.c{fill:#036fa8;stroke:#036fa8;}</style></defs><g transform="translate(0 0.5)"><g class="a" transform="translate(0)"><path class="b" d="M58.717,185.2c-14.337,0-26-12-26-26.753s11.664-26.753,26-26.753,26,12,26,26.753S73.053,185.2,58.717,185.2Zm0-44.3a17.558,17.558,0,1,0,17.057,17.55A17.328,17.328,0,0,0,58.717,140.893Z" transform="translate(-32.716 -131.69)"/></g><path class="c" d="M57.862,131.69a25.593,25.593,0,0,0-20.234,9.962l-3.18-2.6,2.3,12.876,11.992-1.174-4.116-3.369a16.8,16.8,0,0,1,13.238-6.489,17.558,17.558,0,0,1,0,35.1v9.2c14.336,0,26-12,26-26.753S72.2,131.69,57.862,131.69Z" transform="translate(-31.861 -131.69)"/></g></svg>