<svg xmlns="http://www.w3.org/2000/svg" width="52.477" height="54" viewBox="0 0 52.477 54"><defs><style>.a{opacity:0.6;}.b{opacity:0.81;}.c{fill:#1ca3df;}.d{fill:#1e74ad;}.e{fill:#fff;font-size:15px;font-family:AkzidenzGroteskBE-MdIt;font-weight:500;font-style:italic;}</style></defs><g transform="translate(-1101 -705)"><g class="a" transform="translate(1101 705)"><g class="b"><path class="c" d="M54.152,95.273c-14.47,0-26.239-12.112-26.239-27s11.77-27,26.239-27,26.238,12.112,26.238,27S68.619,95.273,54.152,95.273Zm0-44.712a17.72,17.72,0,0,0,0,35.426,17.72,17.72,0,0,0,0-35.426Z" transform="translate(-27.913 -41.273)"/></g></g><path class="d" d="M2940.862,4173.972l1.562-2.471,1.05,2.728,2.014-2.119.5,2.881,2.389-1.686-.074,2.923,2.672-1.187-.643,2.852,2.852-.643-1.187,2.672,2.922-.074-1.685,2.389,2.881.5-2.119,2.014,2.729,1.05-2.471,1.563,2.471,1.561-2.729,1.051,2.119,2.014-2.881.5,1.685,2.388-2.922-.073,1.187,2.671-2.852-.643.643,2.852-2.672-1.187.074,2.923-2.389-1.686-.5,2.88-2.014-2.118-1.05,2.729-1.562-2.472-1.563,2.472-1.05-2.729-2.014,2.118-.5-2.88-2.389,1.686.074-2.923-2.672,1.188.643-2.852-2.852.643,1.187-2.671-2.922.073,1.685-2.388-2.881-.5,2.119-2.014-2.728-1.051,2.47-1.561L2925,4185.8l2.728-1.05-2.119-2.014,2.881-.5-1.685-2.389,2.922.074-1.187-2.672,2.852.643-.643-2.852,2.672,1.188-.074-2.923,2.389,1.686.5-2.881,2.014,2.119,1.05-2.728Z" transform="translate(-1814 -3455.501)"/><text class="e" transform="translate(1126 737)"><tspan x="-9.218" y="0">PE</tspan></text></g></svg>