<svg xmlns="http://www.w3.org/2000/svg" width="38.994" height="38.995" viewBox="0 0 38.994 38.995">
  <g id="discord" transform="translate(-142 -1321)">
    <rect id="Rectángulo_117" data-name="Rectángulo 117" width="38.994" height="38.994" rx="8" transform="translate(142 1321)" fill="#5865f2"/>
    <g id="图层_2" data-name="图层 2" transform="translate(147 1329)">
      <g id="Discord_Logos" data-name="Discord Logos" transform="translate(0)">
        <g id="Discord_Logo_-_Large_-_White" data-name="Discord Logo - Large - White" transform="translate(0)">
          <path id="Trazado_9664" data-name="Trazado 9664" d="M25.166,1.886A24.57,24.57,0,0,0,19.037,0a16.839,16.839,0,0,0-.785,1.6,22.825,22.825,0,0,0-6.8,0A16.91,16.91,0,0,0,10.665,0,24.743,24.743,0,0,0,4.531,1.89a24.763,24.763,0,0,0-4.4,16.852h0a24.706,24.706,0,0,0,7.517,3.774,18.156,18.156,0,0,0,1.61-2.6,15.987,15.987,0,0,1-2.535-1.21c.213-.154.421-.313.622-.467a17.658,17.658,0,0,0,15.029,0c.2.166.411.325.622.467a16.049,16.049,0,0,1-2.54,1.213,17.992,17.992,0,0,0,1.61,2.594,24.593,24.593,0,0,0,7.522-3.771h0A24.749,24.749,0,0,0,25.166,1.886ZM9.919,15.35a2.841,2.841,0,0,1-2.675-2.965A2.824,2.824,0,0,1,9.915,9.407a2.812,2.812,0,0,1,2.678,2.977A2.838,2.838,0,0,1,9.919,15.35Zm9.87,0a2.838,2.838,0,0,1-2.673-2.965,2.824,2.824,0,0,1,2.673-2.977,2.805,2.805,0,0,1,2.671,2.977A2.836,2.836,0,0,1,19.789,15.35Z" transform="translate(0)" fill="#fff"/>
        </g>
      </g>
    </g>
  </g>
</svg>
