<svg xmlns="http://www.w3.org/2000/svg" xmlns:xlink="http://www.w3.org/1999/xlink" width="40" height="40" viewBox="0 0 40 40">
  <defs>
    <linearGradient id="linear-gradient" x1="0.5" x2="0.5" y2="1" gradientUnits="objectBoundingBox">
      <stop offset="0" stop-color="#9824f6"/>
      <stop offset="0.32" stop-color="#d11aad"/>
      <stop offset="0.609" stop-color="#f52d47"/>
      <stop offset="1" stop-color="#fdc12d"/>
    </linearGradient>
  </defs>
  <g id="instagram" transform="translate(-809 -1337)">
    <rect id="Rectángulo_117" data-name="Rectángulo 117" width="40" height="40" rx="8" transform="translate(809 1337)" fill="url(#linear-gradient)"/>
    <path id="Instagram_Glyph_White" d="M10.361,2.6a9.788,9.788,0,0,0-3.255.63,6.863,6.863,0,0,0-3.918,3.93,9.86,9.86,0,0,0-.617,3.259c-.063,1.429-.077,1.888-.07,5.532s.023,4.1.092,5.533a9.81,9.81,0,0,0,.63,3.255,6.859,6.859,0,0,0,3.933,3.917,9.852,9.852,0,0,0,3.258.617c1.428.063,1.888.077,5.531.07s4.1-.023,5.533-.091a9.819,9.819,0,0,0,3.254-.63,6.858,6.858,0,0,0,3.917-3.933,9.816,9.816,0,0,0,.617-3.257c.063-1.432.077-1.89.07-5.534s-.023-4.1-.091-5.532a9.8,9.8,0,0,0-.63-3.256,6.588,6.588,0,0,0-1.552-2.374,6.549,6.549,0,0,0-2.38-1.543,9.82,9.82,0,0,0-3.258-.617C20,2.514,19.538,2.5,15.893,2.5s-4.1.023-5.532.092m.157,24.26A7.447,7.447,0,0,1,8.026,26.4a4.179,4.179,0,0,1-1.545-1,4.133,4.133,0,0,1-1.006-1.541,7.432,7.432,0,0,1-.466-2.492c-.067-1.414-.081-1.839-.088-5.422s.006-4.007.068-5.422a7.427,7.427,0,0,1,.456-2.492,4.156,4.156,0,0,1,1-1.545A4.143,4.143,0,0,1,7.985,5.48a7.431,7.431,0,0,1,2.49-.466c1.415-.067,1.839-.081,5.422-.088s4.007.006,5.423.068a7.422,7.422,0,0,1,2.492.456,4.443,4.443,0,0,1,2.552,2.543,7.393,7.393,0,0,1,.466,2.49c.067,1.415.083,1.84.089,5.422s-.006,4.007-.068,5.422a7.457,7.457,0,0,1-.456,2.493,4.445,4.445,0,0,1-2.543,2.551,7.433,7.433,0,0,1-2.49.467c-1.415.067-1.839.081-5.423.088s-4.006-.007-5.422-.068M21.458,8.751a1.61,1.61,0,1,0,1.607-1.613,1.61,1.61,0,0,0-1.607,1.613M9.029,15.936a6.891,6.891,0,1,0,6.877-6.9,6.89,6.89,0,0,0-6.877,6.9m2.417,0A4.473,4.473,0,1,1,15.928,20.4a4.473,4.473,0,0,1-4.482-4.465" transform="translate(813.081 1340.651)" fill="#fff"/>
  </g>
</svg>
