<svg id="Grupo_260" data-name="Grupo 260" xmlns="http://www.w3.org/2000/svg" width="36.995" height="38.995" viewBox="0 0 36.995 38.995">
  <rect id="Rectángulo_117" data-name="Rectángulo 117" width="36.995" height="38.994" rx="8" fill="#0093ff"/>
  <path id="Trazado_6596" data-name="Trazado 6596" d="M1130.511,390.226a13.08,13.08,0,0,0-13.277,12.875,12.682,12.682,0,0,0,4.527,9.683h0c0,.684.067,2.838.067,3.014a1.026,1.026,0,0,0,.463.782,1.086,1.086,0,0,0,1.077.072c.359-.168,2.377-1.067,3.012-1.312h0a13.641,13.641,0,0,0,4.129.636,12.881,12.881,0,1,0,0-25.749Zm8,9.834c-.138.251-3.527,5.674-3.9,6.217a1.917,1.917,0,0,1-1.524.958,1.755,1.755,0,0,1-1.317-.371c-.547-.371-2.884-2.153-3.019-2.254a.91.91,0,0,0-1.119-.081c-.533.389-3.854,2.966-4.17,3.157a.62.62,0,0,1-.78,0,.635.635,0,0,1-.156-.82c.2-.341,3.394-5.357,3.561-5.632s.635-1.233,1.425-1.407a2.2,2.2,0,0,1,1.245,0,2.437,2.437,0,0,1,.842.521c.2.148,2.426,1.837,2.659,1.987a.907.907,0,0,0,1.1.123c.237-.156,3.825-2.894,4.064-3.067s.563-.419.982-.06A.546.546,0,0,1,1138.507,400.06Z" transform="translate(-1112.235 -384.227)" fill="#fff"/>
</svg>
