<svg xmlns="http://www.w3.org/2000/svg" width="40" height="40" viewBox="0 0 40 40">
  <g id="tiktok" transform="translate(-762 -1337)">
    <rect id="Rectángulo_117" data-name="Rectángulo 117" width="40" height="40" rx="8" transform="translate(762 1337)"/>
    <g id="LOGOS" transform="translate(767.129 1342.129)">
      <g id="Grupo_26" data-name="Grupo 26" transform="translate(0 0)">
        <g id="Grupo_24" data-name="Grupo 24" transform="translate(6.676 0)">
          <g id="Grupo_23" data-name="Grupo 23">
            <path id="Trazado_59" data-name="Trazado 59" d="M1990.089,385.77v-.751a5.689,5.689,0,0,0-4.03,10.3,5.69,5.69,0,0,1,4.03-9.549Z" transform="translate(-1983.628 -378.359)" fill="#25f4ee"/>
            <path id="Trazado_60" data-name="Trazado 60" d="M2131.658,185.865a2.63,2.63,0,0,0,2.612-2.518l.011-12.379h2.245l0-.019a4.31,4.31,0,0,1-.073-.785h-3.093l0,12.4a2.594,2.594,0,0,1-3.8,2.2A2.611,2.611,0,0,0,2131.658,185.865Z" transform="translate(-2125.063 -170.165)" fill="#25f4ee"/>
            <path id="Trazado_61" data-name="Trazado 61" d="M2419.994,288.868v-.726a4.275,4.275,0,0,1-2.344-.7A4.361,4.361,0,0,0,2419.994,288.868Z" transform="translate(-2404.304 -283.838)" fill="#25f4ee"/>
            <path id="Trazado_62" data-name="Trazado 62" d="M2357.732,198.512a4.284,4.284,0,0,1-1.058-2.822h-.843A4.331,4.331,0,0,0,2357.732,198.512Z" transform="translate(-2344.385 -194.905)" fill="#fe2c55"/>
            <path id="Trazado_63" data-name="Trazado 63" d="M2086.274,412.774a2.608,2.608,0,0,0-1.206,4.925,2.6,2.6,0,0,1,2.108-4.117,2.557,2.557,0,0,1,.767.12v-3.158a5.681,5.681,0,0,0-.767-.056c-.045,0-.089,0-.135,0h-.012l-.008,2.39A2.426,2.426,0,0,0,2086.274,412.774Z" transform="translate(-2080.581 -403.099)" fill="#fe2c55"/>
            <path id="Trazado_64" data-name="Trazado 64" d="M2075.927,332.429l-.014,0v2.388a7.383,7.383,0,0,1-4.308-1.4v6.319a5.692,5.692,0,0,1-8.938,4.662,5.69,5.69,0,0,0,9.858-3.877v-6.286a7.355,7.355,0,0,0,4.3,1.384v-3.093A4.306,4.306,0,0,1,2075.927,332.429Z" transform="translate(-2060.237 -327.436)" fill="#fe2c55"/>
            <path id="Trazado_65" data-name="Trazado 65" d="M2023.433,207.2v-6.286a7.357,7.357,0,0,0,4.3,1.384v-2.4a6.9,6.9,0,0,1-4.231-4.208h-2.264l-.005,12.4a3.08,3.08,0,1,1-3.5-3.483,2.559,2.559,0,0,1,.767.12V202.3a5.313,5.313,0,1,0,4.926,4.905Z" transform="translate(-2012.046 -194.905)" fill="#fff"/>
          </g>
        </g>
        <g id="Grupo_25" data-name="Grupo 25" transform="translate(0 22.145)">
          <path id="Trazado_66" data-name="Trazado 66" d="M1766.524,890.892h4.988l-.458,1.427h-1.294V897.6h-1.613v-5.276l-1.623,0Z" transform="translate(-1766.524 -890.873)" fill="#fff"/>
          <path id="Trazado_67" data-name="Trazado 67" d="M2194.47,890.892h5.1l-.458,1.427h-1.407V897.6h-1.615v-5.276l-1.623,0Z" transform="translate(-2181.31 -890.873)" fill="#fff"/>
          <path id="Trazado_68" data-name="Trazado 68" d="M1938.631,960.225h1.6l0,4.571h-1.588Z" transform="translate(-1933.339 -958.074)" fill="#fff"/>
          <path id="Trazado_69" data-name="Trazado 69" d="M2011.265,890.279h1.6V893.4l1.583-1.554h1.907l-2,1.943,2.243,3.21h-1.76l-1.5-2.226-.474.46V897h-1.6Z" transform="translate(-2003.739 -890.279)" fill="#fff"/>
          <path id="Trazado_70" data-name="Trazado 70" d="M2561.721,890.279h1.6V893.4l1.583-1.554h1.907l-2,1.943,2.242,3.21h-1.76l-1.5-2.226-.474.46V897h-1.6Z" transform="translate(-2537.268 -890.279)" fill="#fff"/>
          <circle id="Elipse_7" data-name="Elipse 7" cx="0.805" cy="0.805" r="0.805" transform="translate(5.287 0.019)" fill="#fff"/>
          <path id="Trazado_71" data-name="Trazado 71" d="M2339.489,933.644a2.736,2.736,0,0,1,2.522-2.727c-.071-.005-.179-.009-.251-.009a2.736,2.736,0,0,0,0,5.473c.072,0,.18,0,.251-.009A2.736,2.736,0,0,1,2339.489,933.644Z" transform="translate(-2321.418 -929.658)" fill="#25f4ee"/>
          <path id="Trazado_72" data-name="Trazado 72" d="M2448.022,930.908c-.073,0-.182,0-.253.009a2.735,2.735,0,0,1,0,5.454c.072.006.18.009.253.009a2.736,2.736,0,1,0,0-5.473Z" transform="translate(-2426.82 -929.658)" fill="#fe2c55"/>
          <path id="Trazado_73" data-name="Trazado 73" d="M2355.7,930.908a2.736,2.736,0,1,0,2.737,2.736A2.736,2.736,0,0,0,2355.7,930.908Zm0,4.067a1.33,1.33,0,1,1,1.33-1.33A1.331,1.331,0,0,1,2355.7,934.974Z" transform="translate(-2334.931 -929.658)" fill="#fff"/>
        </g>
      </g>
    </g>
  </g>
</svg>
