<svg xmlns="http://www.w3.org/2000/svg" width="38.994" height="38.995" viewBox="0 0 38.994 38.995">
  <g id="uber" transform="translate(-190 -1321)">
    <rect id="Rectángulo_117" data-name="Rectángulo 117" width="38.994" height="38.994" rx="8" transform="translate(190 1321)"/>
    <g id="Uber_Logo_Black_RGB" transform="translate(-232.79 909.28)">
      <path id="Trazado_9665" data-name="Trazado 9665" d="M430.99,436.091a2.627,2.627,0,0,0,2.608-2.82v-6.55h1.592v10.614h-1.577v-.986a3.83,3.83,0,0,1-2.8,1.167,3.931,3.931,0,0,1-4.018-4.153v-6.641h1.592v6.549a2.6,2.6,0,0,0,2.608,2.82" transform="translate(0 0)" fill="#fff"/>
      <path id="Trazado_9666" data-name="Trazado 9666" d="M812,426.73h1.531V430.6a3.824,3.824,0,0,1,2.744-1.153,4.041,4.041,0,1,1,0,8.082,3.858,3.858,0,0,1-2.761-1.152v.97H812Zm4.17,9.446a2.684,2.684,0,1,0-2.669-2.684,2.673,2.673,0,0,0,2.669,2.684" transform="translate(-375.629 -0.01)" fill="#fff"/>
      <path id="Trazado_9667" data-name="Trazado 9667" d="M1175.763,536.46a3.835,3.835,0,0,1,3.866,4.018v.5h-6.292a2.593,2.593,0,0,0,2.562,2.2,2.659,2.659,0,0,0,2.229-1.137l1.107.819a4.054,4.054,0,0,1-3.336,1.653,4.026,4.026,0,1,1-.136-8.051m-2.4,3.306h4.715a2.406,2.406,0,0,0-2.35-1.971,2.435,2.435,0,0,0-2.365,1.971" transform="translate(-726.471 -107.011)" fill="#fff"/>
      <path id="Trazado_9668" data-name="Trazado 9668" d="M1524.36,541.575a1.77,1.77,0,0,0-1.729,1.971v4.4H1521.1V540.21h1.517v.956a2.067,2.067,0,0,1,1.85-1.016H1525v1.425Z" transform="translate(-1067.093 -110.609)" fill="#fff"/>
    </g>
  </g>
</svg>
