<svg id="whatsapp" xmlns="http://www.w3.org/2000/svg" width="38.994" height="38.995" viewBox="0 0 38.994 38.995">
  <rect id="Rectángulo_117" data-name="Rectángulo 117" width="38.994" height="38.994" rx="8" transform="translate(0)" fill="#32ba46"/>
  <g id="Grupo_248" data-name="Grupo 248" transform="translate(6.999 6.999)">
    <g id="Grupo_247" data-name="Grupo 247" transform="translate(0 0)">
      <path id="Trazado_6593" data-name="Trazado 6593" d="M760.552-176.244a12.791,12.791,0,0,1-6.408-1.725l-5.006,1.725,1.029-5.3a12.7,12.7,0,0,1-2.463-7.547,12.862,12.862,0,0,1,12.848-12.847A12.862,12.862,0,0,1,773.4-189.092,12.862,12.862,0,0,1,760.552-176.244Zm-6.177-3.826.388.242a10.893,10.893,0,0,0,5.79,1.672,10.949,10.949,0,0,0,10.936-10.936,10.948,10.948,0,0,0-10.936-10.936,10.948,10.948,0,0,0-10.936,10.936,10.825,10.825,0,0,0,2.323,6.722l.268.343-.562,2.9Z" transform="translate(-747.704 201.939)" fill="#fff"/>
    </g>
    <path id="Trazado_6594" data-name="Trazado 6594" d="M772.408-174.132s.753-1.318,1.368-1.393,1.406-.075,1.619.326,1.167,2.736,1.167,2.736a.918.918,0,0,1-.088.791,7.821,7.821,0,0,1-.815.954.7.7,0,0,0,0,.828,15.1,15.1,0,0,0,1.807,2.217,9.859,9.859,0,0,0,2.936,1.724.588.588,0,0,0,.452-.139c.176-.175,1.129-1.368,1.129-1.368a.67.67,0,0,1,.816-.163c.508.232,2.71,1.33,2.71,1.33a.477.477,0,0,1,.257.483,3.1,3.1,0,0,1-.479,1.663,3.832,3.832,0,0,1-2.677,1.314,11.817,11.817,0,0,1-6.577-2.945c-1.794-1.8-3.388-3.615-3.765-5.271S771.944-173.449,772.408-174.132Z" transform="translate(-766.047 182.043)" fill="#fff"/>
  </g>
</svg>
