<svg xmlns="http://www.w3.org/2000/svg" width="107" height="107" viewBox="0 0 107 107">
  <g id="Grupo_7893" data-name="Grupo 7893" transform="translate(-18568 2393)">
    <g id="Rectángulo_8296" data-name="Rectángulo 8296" transform="translate(18568 -2393)" fill="#fff" stroke="#b4b4b4" stroke-width="1">
      <rect width="107" height="107" stroke="none"/>
      <rect x="0.5" y="0.5" width="106" height="106" fill="none"/>
    </g>
    <g id="Grupo_7892" data-name="Grupo 7892" transform="translate(18586 -2373)">
      <path id="Trazado_16019" data-name="Trazado 16019" d="M635.627,189.811a16.98,16.98,0,0,0-5.6,32.942l.09-.04s.674-.73.674-.73l0-8.906a1.031,1.031,0,0,1-.651-.908c0-.006,0-.011,0-.017a6.68,6.68,0,0,1-4.949-6.431,16.654,16.654,0,0,1,2.391-8.767h7.538a16.65,16.65,0,0,1,2.392,8.767,6.681,6.681,0,0,1-4.949,6.431c0,.006,0,.011,0,.017a.094.094,0,0,1,0,.026,1.037,1.037,0,0,1-.65.883V222c.112.083.649.712.653.714a16.546,16.546,0,0,0,2.931,1l.126,0a16.621,16.621,0,0,0,5.23-.84c.136-4.458.46-15.11.46-15.11-.389-.244-1.566-.8-1.623-1.581-.14-1.924.357-6.965.477-8.766,0,0,.02-.414.136-.416s.118.416.118.416l0,6.334a.333.333,0,0,0,.659,0l.265-6.334s0-.416.116-.416.12.416.12.416l.19,6.334a.333.333,0,0,0,.659,0l.193-6.334s.006-.416.121-.417.115.417.115.417l.262,6.334a.333.333,0,0,0,.658,0v-6.334s0-.417.125-.416c.1,0,.127.416.127.416.119,1.8.613,6.843.473,8.766-.057.783-1.235,1.337-1.624,1.581,0,0,.308,9.718.445,14.064a16.986,16.986,0,0,0-7.7-32.022" transform="translate(-602.181 -186.355)" fill="#fb5373"/>
      <path id="Trazado_16020" data-name="Trazado 16020" d="M661.557,235.234c-.233,3.636,1.131,5.394,3.125,6.446-1.371-1.157-1.849-3.1-2.027-5.7a16.934,16.934,0,0,1,.961-7.158c.026-.061-1.778,2.037-2.059,6.407" transform="translate(-636.217 -217.458)" fill="#fb5373"/>
      <path id="Trazado_16021" data-name="Trazado 16021" d="M622.481,213.588a20.409,20.409,0,1,1,14.432-5.978,20.276,20.276,0,0,1-14.432,5.978m0-39.442a19.032,19.032,0,1,0,13.458,5.574,18.909,18.909,0,0,0-13.458-5.574" transform="translate(-588.815 -172.769)" fill="#fb5373"/>
      <path id="Trazado_16022" data-name="Trazado 16022" d="M586.032,389.189a2.385,2.385,0,0,0-1.618-.556h0a2.051,2.051,0,0,0-2.275,1.8.166.166,0,0,0,.042.125.179.179,0,0,0,.133.051h.19a.173.173,0,0,0,.179-.161c.061-.8.741-1.323,1.735-1.323a1.584,1.584,0,0,1,1.742,1.669v1.13a2.51,2.51,0,0,0-2-.784,2.645,2.645,0,0,0-1.581.473,1.767,1.767,0,0,0,0,2.8,2.645,2.645,0,0,0,1.581.473,2.369,2.369,0,0,0,2-.779v.484a.162.162,0,0,0,.175.169h.19a.161.161,0,0,0,.175-.169v-3.8a2.078,2.078,0,0,0-.665-1.609m-1.807,5.215h0c-1.108,0-1.8-.531-1.8-1.386s.688-1.385,1.8-1.385c1.8,0,1.937,1.06,1.937,1.386,0,.866-.722,1.384-1.932,1.386" transform="translate(-572.721 -344.859)" fill="#007cba"/>
      <path id="Trazado_16023" data-name="Trazado 16023" d="M611.739,376.444h-.19a.162.162,0,0,0-.175.169v8.266a.161.161,0,0,0,.175.169h.19a.161.161,0,0,0,.175-.169v-8.266a.161.161,0,0,0-.175-.169" transform="translate(-596.23 -335.142)" fill="#007cba"/>
      <path id="Trazado_16024" data-name="Trazado 16024" d="M626.683,388.633h0a2.056,2.056,0,0,0-1.9,1.164,1.791,1.791,0,0,0-1.784-1.164,2.042,2.042,0,0,0-1.784.984v-.689a.161.161,0,0,0-.175-.169h-.19a.161.161,0,0,0-.175.169V394.6a.161.161,0,0,0,.175.169h.19a.161.161,0,0,0,.175-.169v-3.448a1.824,1.824,0,0,1,1.734-2.019,1.349,1.349,0,0,1,1.433,1.528v3.94a.161.161,0,0,0,.175.169h.19a.161.161,0,0,0,.175-.169v-3.448a1.824,1.824,0,0,1,1.734-2.019,1.349,1.349,0,0,1,1.432,1.527v3.94a.161.161,0,0,0,.175.169h.19a.161.161,0,0,0,.175-.169v-3.94a1.841,1.841,0,0,0-1.939-2.023" transform="translate(-603.64 -344.859)" fill="#007cba"/>
      <path id="Trazado_16025" data-name="Trazado 16025" d="M667.78,389.189a2.386,2.386,0,0,0-1.618-.556h0a2.051,2.051,0,0,0-2.275,1.8.166.166,0,0,0,.042.125.179.179,0,0,0,.133.051h.19a.174.174,0,0,0,.179-.161c.06-.8.741-1.323,1.734-1.323A1.584,1.584,0,0,1,667.9,390.8v1.13a2.51,2.51,0,0,0-2-.784,2.643,2.643,0,0,0-1.58.473,1.767,1.767,0,0,0,0,2.8,2.643,2.643,0,0,0,1.58.473,2.369,2.369,0,0,0,2-.779v.484a.161.161,0,0,0,.175.169h.19a.161.161,0,0,0,.175-.169v-3.8a2.079,2.079,0,0,0-.665-1.609m.125,3.829c0,.866-.722,1.384-1.932,1.386h-.005c-1.108,0-1.8-.531-1.8-1.386s.688-1.385,1.8-1.385c1.8,0,1.937,1.06,1.937,1.386" transform="translate(-637.891 -344.859)" fill="#007cba"/>
      <path id="Trazado_16026" data-name="Trazado 16026" d="M694.174,389.13a2.482,2.482,0,0,1,2.351,1.345.2.2,0,0,0,.192.119h.2a.163.163,0,0,0,.142-.064.148.148,0,0,0,.005-.141,3.013,3.013,0,0,0-2.891-1.754,3.133,3.133,0,1,0,0,6.258,3,3,0,0,0,2.89-1.753.147.147,0,0,0,0-.142.162.162,0,0,0-.142-.064h-.2a.2.2,0,0,0-.193.12,2.492,2.492,0,0,1-2.35,1.344,2.636,2.636,0,1,1,0-5.267" transform="translate(-659.613 -344.86)" fill="#007cba"/>
      <path id="Trazado_16027" data-name="Trazado 16027" d="M726.32,388.633a3.041,3.041,0,0,0-3.159,3.129,3.113,3.113,0,0,0,.89,2.244,3.235,3.235,0,0,0,2.3.885,2.848,2.848,0,0,0,2.752-1.6.127.127,0,0,0-.006-.124.173.173,0,0,0-.151-.064h-.22a.21.21,0,0,0-.193.115,2.309,2.309,0,0,1-2.177,1.172,2.511,2.511,0,0,1-2.644-2.358h5.475a.164.164,0,0,0,.179-.165v-.086a3.265,3.265,0,0,0-.806-2.192,2.92,2.92,0,0,0-2.241-.961m0,.5a2.465,2.465,0,0,1,2.5,2.413h-5.116a2.517,2.517,0,0,1,2.611-2.413" transform="translate(-685.349 -344.859)" fill="#007cba"/>
      <path id="Trazado_16028" data-name="Trazado 16028" d="M760.221,388.633h0a2.341,2.341,0,0,0-2.114,1.147v-.852a.161.161,0,0,0-.175-.169h-.19a.161.161,0,0,0-.175.169V394.6a.161.161,0,0,0,.175.169h.19a.161.161,0,0,0,.175-.169v-3.212a2.047,2.047,0,0,1,2.065-2.256,1.518,1.518,0,0,1,1.627,1.646V394.6a.161.161,0,0,0,.175.169h.19a.161.161,0,0,0,.175-.169v-3.822a2.124,2.124,0,0,0-.617-1.591,2.159,2.159,0,0,0-1.5-.55" transform="translate(-712.775 -344.859)" fill="#007cba"/>
      <path id="Trazado_16029" data-name="Trazado 16029" d="M787.767,388.633a3.041,3.041,0,0,0-3.159,3.129,3.113,3.113,0,0,0,.89,2.244,3.235,3.235,0,0,0,2.3.885,2.849,2.849,0,0,0,2.752-1.6.128.128,0,0,0-.006-.124.173.173,0,0,0-.151-.064h-.22a.21.21,0,0,0-.193.115A2.309,2.309,0,0,1,787.8,394.4a2.511,2.511,0,0,1-2.644-2.358h5.475a.164.164,0,0,0,.179-.165v-.086a3.266,3.266,0,0,0-.806-2.192,2.92,2.92,0,0,0-2.241-.961m0,.5a2.465,2.465,0,0,1,2.5,2.413h-5.116a2.518,2.518,0,0,1,2.611-2.413" transform="translate(-734.336 -344.859)" fill="#007cba"/>
      <path id="Trazado_16030" data-name="Trazado 16030" d="M819.533,391.519c-.915-.21-1.779-.409-1.779-1.247,0-.7.628-1.142,1.639-1.142.914,0,1.542.442,1.6,1.131a.172.172,0,0,0,.178.156h.19a.177.177,0,0,0,.133-.051.163.163,0,0,0,.042-.126c-.069-.961-.93-1.606-2.142-1.606-1.3,0-2.18.658-2.18,1.638,0,1.207,1.085,1.458,2.135,1.7.929.215,1.807.417,1.807,1.284,0,.7-.675,1.141-1.763,1.141-1.025,0-1.7-.432-1.756-1.131a.172.172,0,0,0-.178-.156h-.19a.179.179,0,0,0-.133.051.165.165,0,0,0-.042.126c.07.976.972,1.606,2.3,1.606,1.378,0,2.3-.658,2.3-1.637,0-1.239-1.149-1.5-2.163-1.736" transform="translate(-760.234 -344.86)" fill="#007cba"/>
      <path id="Trazado_16031" data-name="Trazado 16031" d="M603.975,431.594h-.313a.74.74,0,0,0-.551.243.8.8,0,0,0-.219.558v8.929q-1.4-2.115-2.827-4.275c-1.147-1.732-2.289-3.45-3.394-5.107l-.02-.026a.947.947,0,0,0-.274-.218.705.705,0,0,0-.343-.1h-.461a.748.748,0,0,0-.559.243.8.8,0,0,0-.219.558V444.27a.8.8,0,0,0,.219.559.749.749,0,0,0,.559.243h.3a.732.732,0,0,0,.565-.25.821.821,0,0,0,.2-.551v-8.921c.385.582.77,1.159,1.148,1.726q.848,1.271,1.688,2.537l1.685,2.538,1.683,2.534a.659.659,0,0,0,.3.288.773.773,0,0,0,.352.1h.469a.735.735,0,0,0,.558-.246.812.812,0,0,0,.212-.555V432.4a.811.811,0,0,0-.212-.555.735.735,0,0,0-.558-.247" transform="translate(-583.013 -379.109)" fill="#007cba"/>
      <path id="Trazado_16032" data-name="Trazado 16032" d="M660.359,431.594h-6.853a.735.735,0,0,0-.558.247.812.812,0,0,0-.212.555V444.27a.813.813,0,0,0,.212.555.736.736,0,0,0,.558.246h.313a.74.74,0,0,0,.551-.243.8.8,0,0,0,.22-.559v-5.223h5.144a.749.749,0,0,0,.551-.231.79.79,0,0,0,.219-.562v-.334a.825.825,0,0,0-.212-.564.736.736,0,0,0-.558-.246h-5.144v-3.578h5.77a.738.738,0,0,0,.551-.243.8.8,0,0,0,.22-.558V432.4a.8.8,0,0,0-.219-.558.74.74,0,0,0-.551-.243" transform="translate(-629.205 -379.109)" fill="#007cba"/>
      <path id="Trazado_16033" data-name="Trazado 16033" d="M703.929,430.722h0a5.976,5.976,0,0,0-2.561-.559,5.211,5.211,0,0,0-4.4,2.156,7.217,7.217,0,0,0-1.106,2.2,9.113,9.113,0,0,0-.372,2.668,7.853,7.853,0,0,0,1.481,4.84,5.036,5.036,0,0,0,1.851,1.619,5.8,5.8,0,0,0,2.557.57,5.723,5.723,0,0,0,2.554-.6,5.491,5.491,0,0,0,1.9-1.593l.008-.011a8.138,8.138,0,0,0,1.054-2.212,8.834,8.834,0,0,0,.384-2.616,8.092,8.092,0,0,0-1.453-4.881,5.179,5.179,0,0,0-1.891-1.588m1.492,6.466a7.723,7.723,0,0,1-.3,2.11,4.822,4.822,0,0,1-.836,1.622,3.311,3.311,0,0,1-1.236,1.02,4.036,4.036,0,0,1-1.679.345,3.432,3.432,0,0,1-2.9-1.356,5.281,5.281,0,0,1-.824-1.625,7.24,7.24,0,0,1,0-4.227,5.266,5.266,0,0,1,.821-1.625,3.428,3.428,0,0,1,1.228-.994,4.068,4.068,0,0,1,1.676-.357,4.015,4.015,0,0,1,1.67.374,3.657,3.657,0,0,1,1.262.99.361.361,0,0,0,.031.032,6.247,6.247,0,0,1,1.086,3.691" transform="translate(-663.286 -377.968)" fill="#007cba"/>
      <path id="Trazado_16034" data-name="Trazado 16034" d="M769.533,443.145h0a.812.812,0,0,0-.333-.105c0-.18-.007-.424-.024-.74v-.01a13.8,13.8,0,0,0-.181-1.789,5.266,5.266,0,0,0-.374-1.3l-.008-.017a2.715,2.715,0,0,0-.4-.556,2.1,2.1,0,0,0-.185-.175,3.706,3.706,0,0,0,1.249-3.01c-.012-2.515-1.452-3.843-4.164-3.843h-4.547a.735.735,0,0,0-.558.246.812.812,0,0,0-.212.555v11.874a.812.812,0,0,0,.212.555.735.735,0,0,0,.558.246h.313a.736.736,0,0,0,.558-.246.813.813,0,0,0,.212-.555V439.5h3.411a5.222,5.222,0,0,1,1.265.139,1.031,1.031,0,0,1,.577.336,2.472,2.472,0,0,1,.283.869,11.1,11.1,0,0,1,.156,1.624,4.552,4.552,0,0,0,.391,1.836,1.26,1.26,0,0,0,1.161.781,1.2,1.2,0,0,0,.246-.024c.061-.013.127-.03.2-.051a.764.764,0,0,0,.4-.3.806.806,0,0,0,.155-.46l.016-.39s0-.009,0-.013a.854.854,0,0,0-.1-.411.733.733,0,0,0-.277-.292m-2.111-7.761v.011a1.9,1.9,0,0,1-.637,1.619l0,0a2.724,2.724,0,0,1-1.753.55h-3.382v-4.035h3.533a2.562,2.562,0,0,1,1.852.587,1.664,1.664,0,0,1,.39,1.266" transform="translate(-714.553 -379.109)" fill="#007cba"/>
      <path id="Trazado_16035" data-name="Trazado 16035" d="M823.794,443.977,819.4,432.106a.762.762,0,0,0-.289-.358.743.743,0,0,0-.43-.154h-.42a.815.815,0,0,0-.711.512l-4.513,11.862a.87.87,0,0,0-.055.394.832.832,0,0,0,.112.347.733.733,0,0,0,.267.263.758.758,0,0,0,.386.1h.362a.744.744,0,0,0,.43-.154.779.779,0,0,0,.264-.305.289.289,0,0,0,.024-.051q.09-.244.184-.489c.063-.163.127-.325.195-.495.167-.446.334-.884.5-1.3.141-.364.282-.736.418-1.109h4.6q.308.812.609,1.6.337.884.683,1.8a.284.284,0,0,0,.022.046.784.784,0,0,0,.257.3.724.724,0,0,0,.43.157h.338a.746.746,0,0,0,.664-.35.805.805,0,0,0,.062-.744m-3.77-4.749h-3.179q.1-.277.2-.538c.113-.3.224-.6.332-.9q.355-.924.689-1.814.195-.518.4-1.06l.016.04q.419,1.168.847,2.348.351.971.7,1.921" transform="translate(-756.957 -379.109)" fill="#007cba"/>
      <path id="Trazado_16036" data-name="Trazado 16036" d="M547.507,443.977l-4.389-11.872a.763.763,0,0,0-.288-.358.744.744,0,0,0-.43-.154h-.42a.816.816,0,0,0-.711.512l-4.513,11.862a.868.868,0,0,0-.055.394.827.827,0,0,0,.112.347.732.732,0,0,0,.266.263.76.76,0,0,0,.386.1h.362a.744.744,0,0,0,.43-.154.781.781,0,0,0,.264-.305.308.308,0,0,0,.024-.051c.06-.163.121-.326.184-.489s.126-.325.194-.495c.167-.446.334-.884.5-1.3.141-.364.281-.736.418-1.109h4.6q.307.812.608,1.6.338.884.684,1.8a.3.3,0,0,0,.022.046.783.783,0,0,0,.257.3.724.724,0,0,0,.43.157h.338a.746.746,0,0,0,.664-.35.806.806,0,0,0,.062-.744m-3.77-4.749h-3.179q.1-.277.2-.538c.113-.3.224-.6.333-.9q.354-.924.688-1.814.194-.518.4-1.06l.016.04q.419,1.168.847,2.348.351.971.7,1.921" transform="translate(-536.696 -379.109)" fill="#007cba"/>
      <path id="Trazado_16037" data-name="Trazado 16037" d="M872.671,482.424a1.671,1.671,0,0,0-2.892,0,1.678,1.678,0,0,0,0,1.675,1.671,1.671,0,0,0,2.892-1.675m-.031.837a1.407,1.407,0,0,1-.191.716,1.434,1.434,0,0,1-.517.521,1.411,1.411,0,0,1-1.419,0,1.435,1.435,0,0,1-.516-.521,1.437,1.437,0,0,1,0-1.433,1.434,1.434,0,0,1,.516-.521,1.411,1.411,0,0,1,1.419,0,1.436,1.436,0,0,1,.517.521,1.408,1.408,0,0,1,.191.717" transform="translate(-802.057 -418.967)" fill="#007cba"/>
      <path id="Trazado_16038" data-name="Trazado 16038" d="M872.794,487.5l-.305-.687h-.258v1.175h.237v-.721l.238.536h.178l.237-.536v.721h.237v-1.175H873.1Z" transform="translate(-804.19 -423.129)" fill="#007cba"/>
      <path id="Trazado_16039" data-name="Trazado 16039" d="M879.4,487.408a.362.362,0,0,0,.067-.21.385.385,0,0,0-.387-.387h-.443v1.175h.237v-.409h.136l.343.409h.288l-.38-.453a.394.394,0,0,0,.139-.125m-.17-.21a.16.16,0,0,1-.044.115.138.138,0,0,1-.106.046h-.206v-.323h.206a.139.139,0,0,1,.106.046.161.161,0,0,1,.044.115" transform="translate(-809.296 -423.129)" fill="#007cba"/>
    </g>
  </g>
</svg>
