<svg xmlns="http://www.w3.org/2000/svg" width="94" height="94" viewBox="0 0 94 94">
  <g id="Grupo_4122" data-name="Grupo 4122" transform="translate(-5801 -3645)">
    <rect id="Rectángulo_2334" data-name="Rectángulo 2334" width="94" height="94" transform="translate(5801 3645)" fill="#fff"/>
    <g id="Grupo_4120" data-name="Grupo 4120" transform="translate(5702.118 3614.072)">
      <path id="Trazado_6152" data-name="Trazado 6152" d="M120.822,309.511l.851.327a2.431,2.431,0,0,1-.651,1.285,1.642,1.642,0,0,1-1.156.419,1.73,1.73,0,0,1-1.425-.718,3.13,3.13,0,0,1-.558-1.965,3.3,3.3,0,0,1,.561-2.048,1.773,1.773,0,0,1,1.475-.729,1.637,1.637,0,0,1,1.3.573,2.222,2.222,0,0,1,.446.973l-.87.252a1.169,1.169,0,0,0-.322-.649.821.821,0,0,0-.595-.237.923.923,0,0,0-.785.422,2.393,2.393,0,0,0-.3,1.365,2.569,2.569,0,0,0,.3,1.426.9.9,0,0,0,.771.425.794.794,0,0,0,.6-.271,1.7,1.7,0,0,0,.363-.85ZM122,311.453v-5.281h1.85a2.644,2.644,0,0,1,1.013.143,1.069,1.069,0,0,1,.507.505,1.774,1.774,0,0,1,.189.832,1.607,1.607,0,0,1-.288.982,1.3,1.3,0,0,1-.861.487,2.174,2.174,0,0,1,.471.444,6.182,6.182,0,0,1,.5.857l.532,1.031h-1.051l-.635-1.15a7.6,7.6,0,0,0-.463-.776.692.692,0,0,0-.264-.22,1.214,1.214,0,0,0-.443-.059h-.177v2.2Zm.88-3.048h.649a2.818,2.818,0,0,0,.79-.064.5.5,0,0,0,.246-.224.8.8,0,0,0,.089-.4.724.724,0,0,0-.118-.43.517.517,0,0,0-.332-.208q-.106-.017-.641-.017h-.685V308.4Zm3.053,3.048v-5.281h.878v5.281ZM127,309.735l.855-.1a1.368,1.368,0,0,0,.313.769.845.845,0,0,0,.636.245.857.857,0,0,0,.639-.219.7.7,0,0,0,.216-.509.544.544,0,0,0-.091-.319.7.7,0,0,0-.316-.229c-.1-.044-.337-.121-.7-.231a2.2,2.2,0,0,1-.991-.523,1.511,1.511,0,0,1-.4-1.062,1.574,1.574,0,0,1,.189-.755,1.268,1.268,0,0,1,.543-.535,1.855,1.855,0,0,1,.856-.183,1.627,1.627,0,0,1,1.234.435,1.7,1.7,0,0,1,.435,1.164l-.879.047a.977.977,0,0,0-.242-.585.772.772,0,0,0-.556-.178.872.872,0,0,0-.6.191.412.412,0,0,0-.14.327.44.44,0,0,0,.131.321,2.064,2.064,0,0,0,.808.353,3.8,3.8,0,0,1,.948.38,1.36,1.36,0,0,1,.481.537,1.843,1.843,0,0,1,.173.841,1.8,1.8,0,0,1-.208.85,1.334,1.334,0,0,1-.588.589,2.075,2.075,0,0,1-.948.193,1.67,1.67,0,0,1-1.268-.462,2.2,2.2,0,0,1-.528-1.349Zm4.828,1.718h.879v-4.387h1.288v-.894h-3.458v.894h1.291v4.387Zm2.128-2.608a3.993,3.993,0,0,1,.2-1.355,2.588,2.588,0,0,1,.405-.724,1.741,1.741,0,0,1,.562-.474,2.014,2.014,0,0,1,.938-.209,1.868,1.868,0,0,1,1.539.724,3.787,3.787,0,0,1,0,4.015,2,2,0,0,1-3.075,0,3.1,3.1,0,0,1-.572-1.979Zm.9-.036a2.281,2.281,0,0,0,.341,1.36,1.037,1.037,0,0,0,.867.462,1.026,1.026,0,0,0,.862-.46,2.325,2.325,0,0,0,.336-1.377,2.3,2.3,0,0,0-.327-1.355,1.074,1.074,0,0,0-1.748.006,2.3,2.3,0,0,0-.332,1.364Zm.666-2.94.409-1.077h.935l-.817,1.077Zm2.91.3h1.74a4.082,4.082,0,0,1,.771.053,1.022,1.022,0,0,1,.454.218,1.286,1.286,0,0,1,.333.442,1.4,1.4,0,0,1,.134.617,1.433,1.433,0,0,1-.164.681,1.117,1.117,0,0,1-.447.465,1.153,1.153,0,0,1,.611.478,1.461,1.461,0,0,1,.214.8,1.847,1.847,0,0,1-.138.7,1.382,1.382,0,0,1-.377.544,1.124,1.124,0,0,1-.59.251q-.219.028-1.06.036h-1.481v-5.281Zm.88.879v1.221h.575a6.208,6.208,0,0,0,.638-.019.535.535,0,0,0,.355-.188.628.628,0,0,0,.129-.413.66.66,0,0,0-.111-.4.473.473,0,0,0-.331-.184q-.131-.019-.751-.018Zm0,2.1v1.411h.812a3.232,3.232,0,0,0,.6-.032.527.527,0,0,0,.319-.21.744.744,0,0,0,.124-.449.805.805,0,0,0-.1-.4.562.562,0,0,0-.275-.242,2.5,2.5,0,0,0-.779-.075Zm7,2.3-1.743-5.281h-.929l-1.695,5.281h.932l.359-1.2h1.74l.38,1.2Zm-1.618-2.089h-1.188l.588-1.96.6,1.96Zm1.679,2.089v-5.238h.879v4.348h2.185v.89Z" transform="translate(0 -207.21)" fill="#2d567c" fill-rule="evenodd"/>
      <path id="Trazado_6153" data-name="Trazado 6153" d="M292.183,309.577l1.215.413a4.055,4.055,0,0,1-.778.958,3.086,3.086,0,0,1-.944.581,3.275,3.275,0,0,1-1.185.2,2.665,2.665,0,0,1-1.256-.238,1.277,1.277,0,0,1-.6-.841,2.648,2.648,0,0,1,.177-1.539,4,4,0,0,1,1.358-1.922,3.472,3.472,0,0,1,2.123-.672,1.941,1.941,0,0,1,1.358.385,1.492,1.492,0,0,1,.383,1.182l-1.485.306a.9.9,0,0,0-.03-.338.536.536,0,0,0-.22-.274.724.724,0,0,0-.389-.1,1.352,1.352,0,0,0-.964.426,2.6,2.6,0,0,0-.572.993,1.771,1.771,0,0,0-.16,1.149.592.592,0,0,0,.6.311,1.2,1.2,0,0,0,.766-.251,2.5,2.5,0,0,0,.595-.728Zm1.471-.457a2.673,2.673,0,0,0-.183,1.47,1.282,1.282,0,0,0,.6.86,2.616,2.616,0,0,0,1.313.271,3.541,3.541,0,0,0,1.514-.314,3.583,3.583,0,0,0,1.176-.88,4.415,4.415,0,0,0,.82-1.448,2.116,2.116,0,0,0,0-1.89,1.873,1.873,0,0,0-1.695-.675,3.553,3.553,0,0,0-2.162.687,3.989,3.989,0,0,0-1.38,1.92Zm1.555.007a2.494,2.494,0,0,1,.683-1.1,1.349,1.349,0,0,1,.876-.333.671.671,0,0,1,.66.327,1.389,1.389,0,0,1-.088,1.04,2.719,2.719,0,0,1-.7,1.172,1.362,1.362,0,0,1-.894.326.655.655,0,0,1-.651-.333,1.534,1.534,0,0,1,.113-1.1ZM300,306.6h1.557l-1.369,3.8h2.429l-.448,1.241h-3.986L300,306.6Zm2.97,2.521a3.989,3.989,0,0,1,1.38-1.92,3.552,3.552,0,0,1,2.162-.687,1.873,1.873,0,0,1,1.695.675,2.117,2.117,0,0,1,0,1.89,4.417,4.417,0,0,1-.82,1.448,3.585,3.585,0,0,1-1.176.88,3.542,3.542,0,0,1-1.514.314,2.616,2.616,0,0,1-1.313-.271,1.283,1.283,0,0,1-.6-.86,2.675,2.675,0,0,1,.183-1.47Zm1.555.007a1.534,1.534,0,0,0-.113,1.1.655.655,0,0,0,.651.333,1.363,1.363,0,0,0,.894-.326,2.721,2.721,0,0,0,.7-1.172,1.388,1.388,0,0,0,.088-1.04.672.672,0,0,0-.661-.327,1.348,1.348,0,0,0-.875.333,2.494,2.494,0,0,0-.683,1.1Zm2.413-3.86h1.2l-1.48,1.027h-.67l.948-1.027Zm2.392,1.332-1.817,5.037h1.463l1-2.765.889,2.765h1.467l1.817-5.037h-1.467l-1.005,2.786-.891-2.786Z" transform="translate(-139.334 -207.597)" fill="#002b52" fill-rule="evenodd"/>
      <path id="Trazado_6154" data-name="Trazado 6154" d="M121.01,290.622l.371.118a1.649,1.649,0,0,1-.43.884,1.044,1.044,0,0,1-.748.292,1.105,1.105,0,0,1-.661-.2,1.371,1.371,0,0,1-.449-.627,2.7,2.7,0,0,1-.176-1.02,2.451,2.451,0,0,1,.176-.982,1.374,1.374,0,0,1,.474-.608,1.151,1.151,0,0,1,.667-.2,1,1,0,0,1,.693.26,1.423,1.423,0,0,1,.406.764l-.361.108q-.185-.735-.744-.735a.8.8,0,0,0-.483.148.986.986,0,0,0-.325.459,2.191,2.191,0,0,0-.122.79,1.94,1.94,0,0,0,.245,1.084.756.756,0,0,0,.654.361.7.7,0,0,0,.52-.222,1.219,1.219,0,0,0,.293-.673Zm.526,1.234,1.071-3.518h.4l1.14,3.518h-.422l-.324-1.066h-1.164l-.306,1.066Zm.8-1.445h.943l-.289-.974q-.134-.449-.2-.73a5.281,5.281,0,0,1-.151.673l-.305,1.031Zm1.9.446.332-.057a1.075,1.075,0,0,0,.12.552.342.342,0,0,0,.294.148.375.375,0,0,0,.233-.075.363.363,0,0,0,.135-.191,1.705,1.705,0,0,0,.049-.473v-2.424h.368v2.4a1.538,1.538,0,0,1-.2.914.687.687,0,0,1-.578.266.628.628,0,0,1-.542-.24,1.347,1.347,0,0,1-.207-.818Zm1.838,1,1.071-3.518h.4l1.14,3.518h-.422l-.324-1.066h-1.163l-.306,1.066Zm.8-1.445h.943l-.289-.974q-.134-.449-.2-.73a5.253,5.253,0,0,1-.151.673l-.305,1.031Zm2.965,1.445v-3.518h1.05a1.632,1.632,0,0,1,.547.067.742.742,0,0,1,.385.338,1.19,1.19,0,0,1,.143.607,1.222,1.222,0,0,1-.234.776.968.968,0,0,1-.808.3h-.713v1.43Zm.369-1.846h.721a.677.677,0,0,0,.5-.16.658.658,0,0,0,.157-.481.772.772,0,0,0-.077-.358.452.452,0,0,0-.188-.2.982.982,0,0,0-.4-.055h-.713v1.258Zm2.122.132a2.191,2.191,0,0,1,.382-1.383,1.172,1.172,0,0,1,.953-.483,1.131,1.131,0,0,1,.672.216,1.441,1.441,0,0,1,.481.627,2.473,2.473,0,0,1,.177.98,2.183,2.183,0,0,1-.342,1.275,1.168,1.168,0,0,1-1.981-.014,2.127,2.127,0,0,1-.341-1.217Zm.381.008a1.616,1.616,0,0,0,.277,1.009.815.815,0,0,0,1.353,0,1.75,1.75,0,0,0,.275-1.066,2.2,2.2,0,0,0-.142-.811,1,1,0,0,0-.328-.438.778.778,0,0,0-.479-.164.824.824,0,0,0-.687.36,1.856,1.856,0,0,0-.27,1.113Zm2.753,1.706v-3.518h1.05a1.631,1.631,0,0,1,.547.067.742.742,0,0,1,.385.338,1.19,1.19,0,0,1,.143.607,1.222,1.222,0,0,1-.234.776.968.968,0,0,1-.809.3h-.713v1.43Zm.368-1.846h.721a.676.676,0,0,0,.5-.16.658.658,0,0,0,.157-.481.772.772,0,0,0-.077-.358.451.451,0,0,0-.188-.2.983.983,0,0,0-.4-.055h-.713v1.258Zm4.046-1.673h.37v2.033a3.036,3.036,0,0,1-.1.838.966.966,0,0,1-.35.518,1.047,1.047,0,0,1-.645.189,1,1,0,0,1-.826-.341,1.973,1.973,0,0,1-.275-1.2v-2.033h.369v2.031a2.355,2.355,0,0,0,.072.691.612.612,0,0,0,.235.325.687.687,0,0,0,.4.112.676.676,0,0,0,.572-.231,1.579,1.579,0,0,0,.177-.9v-2.031Zm.966,3.518v-3.518h.368v3.1h1.372v.415Zm1.881,0,1.071-3.518h.4l1.14,3.518h-.422l-.324-1.066h-1.163l-.306,1.066Zm.8-1.445h.943l-.289-.974q-.134-.449-.2-.73a5.222,5.222,0,0,1-.151.673l-.305,1.031Zm2.094,1.445v-3.518h1.235a1.266,1.266,0,0,1,.572.1.743.743,0,0,1,.3.328,1.142,1.142,0,0,1,.118.532.993.993,0,0,1-.2.645.926.926,0,0,1-.583.315.952.952,0,0,1,.237.194,2.455,2.455,0,0,1,.289.449l.486.958h-.464l-.37-.733a4.581,4.581,0,0,0-.326-.578.651.651,0,0,0-.213-.2.658.658,0,0,0-.289-.051H146v1.562ZM146,289.89h.793a.939.939,0,0,0,.394-.065.476.476,0,0,0,.213-.2.639.639,0,0,0,.079-.324.569.569,0,0,0-.151-.418.6.6,0,0,0-.447-.152H146Z" transform="translate(-0.845 -193.728)" fill="#002b52" fill-rule="evenodd"/>
      <path id="Trazado_6155" data-name="Trazado 6155" d="M218.218,85.7s1.676,15.341-8.471,23.673c0,0,7.161-3.888,12.071-4.292,0,0,2.123-4.107,3.392-12.417C225.21,92.66,224.428,90.266,218.218,85.7Z" transform="translate(-74.982 -28.378)" fill="#2d567c"/>
      <path id="Trazado_6156" data-name="Trazado 6156" d="M251.81,71.786s.535,22.619-11.125,31.262c0,0,19.929-10.481,18.7-3.2C259.384,99.847,273.741,88.447,251.81,71.786Z" transform="translate(-100.235 -17.025)" fill="#062b4e"/>
      <path id="Trazado_6157" data-name="Trazado 6157" d="M315.608,213.05c.361-2.133-1.1-2.741-3.335-2.535.326,1.463.007,3.5-2.7,5.649a19.415,19.415,0,0,0,6.08-3.147Z" transform="translate(-156.459 -130.228)" fill="#2d567c"/>
      <path id="Trazado_6158" data-name="Trazado 6158" d="M193.535,90.151c-10.71,0-19.391-8.427-19.391-18.822s8.682-18.822,19.391-18.822A19.7,19.7,0,0,1,204.9,56.08a20.326,20.326,0,1,0-.808,31.037A19.723,19.723,0,0,1,193.535,90.151Z" transform="translate(-43.497)" fill="#002b52" fill-rule="evenodd"/>
    </g>
  </g>
</svg>
