<?xml version="1.0" encoding="utf-8"?>
<!-- Generator: Adobe Illustrator 25.2.0, SVG Export Plug-In . SVG Version: 6.00 Build 0)  -->
<svg version="1.1" id="Capa_1" xmlns="http://www.w3.org/2000/svg" xmlns:xlink="http://www.w3.org/1999/xlink" x="0px" y="0px"
	 viewBox="0 0 75 75" style="enable-background:new 0 0 75 75;" xml:space="preserve">
<style type="text/css">
	.st0{fill:#2D2A26;}
	.st1{fill:#FFFFFF;}
</style>
<g>
	<rect x="7.2" y="25.2" class="st0" width="60.6" height="24.6"/>
	<g>
		<path class="st1" d="M13.4,34.1c-0.5-0.3-1.1-0.4-1.8-0.2c-0.7,0.1-1.2,0.4-1.6,0.9c-0.4,0.4-0.5,0.9-0.4,1.4
			c0.4,2,0.8,3.9,1.2,5.9c0.1,0.5,0.4,0.9,0.9,1.2c0.5,0.3,1,0.4,1.7,0.2c0.6-0.1,1.1-0.4,1.5-0.8c0.3-0.4,0.5-0.9,0.4-1.4
			c-0.1-0.4-0.1-0.8-0.2-1.1c-0.5,0.1-1,0.2-1.5,0.3c0.1,0.6,0.2,1.3,0.4,1.9c0.1,0.5-0.1,0.8-0.5,0.9c-0.5,0.1-0.7-0.1-0.8-0.6
			c-0.5-2.5-1-5-1.5-7.5c-0.1-0.5,0.1-0.8,0.6-0.9c0.5-0.1,0.8,0.1,0.9,0.6c0.1,0.6,0.2,1.3,0.4,1.9c0.5-0.1,1.1-0.2,1.6-0.3
			c-0.1-0.4-0.1-0.8-0.2-1.1C14.2,34.8,13.9,34.3,13.4,34.1 M14.2,41.9c-0.1-0.5-0.2-0.9-0.3-1.4c0.1,0,0.3,0,0.4-0.1
			c0.1,0.4,0.1,0.7,0.2,1.1c0.1,0.5-0.1,0.9-0.5,1.3C14.3,42.7,14.3,42.3,14.2,41.9 M12.2,43.1c-0.5-0.2-0.8-0.5-0.9-1
			C10.9,40,10.4,38,10,35.9c-0.1-0.5,0-0.9,0.4-1.3c-0.1,0.3-0.2,0.6-0.1,1c0.5,2.2,0.9,4.4,1.4,6.6C11.8,42.6,12,42.9,12.2,43.1
			 M13.6,36.2c-0.1,0-0.3,0-0.4,0.1c-0.1-0.5-0.2-0.9-0.3-1.4c-0.1-0.4-0.2-0.7-0.5-0.9c0.5,0.2,0.9,0.5,1,1
			C13.5,35.5,13.5,35.9,13.6,36.2"/>
		<path class="st1" d="M16.3,29.8c-0.6,0.1-1.1,0.2-1.7,0.3c0.1,0.7,0.2,1.5,0.4,2.2c0.5-0.1,1.1-0.2,1.6-0.2
			C16.5,31.2,16.4,30.5,16.3,29.8 M15.8,31.7c-0.1,0-0.3,0-0.4,0.1c-0.1-0.5-0.2-1-0.3-1.5c0.1,0,0.3,0,0.4-0.1
			C15.6,30.7,15.7,31.2,15.8,31.7"/>
		<path class="st1" d="M16.8,33.1c-0.7,0.1-1.4,0.2-2.1,0.3c0,0.1,0,0.2,0.1,0.3c0.2,0,0.3-0.1,0.5-0.1c0.5,2.9,1,5.9,1.5,8.8
			c-0.2,0-0.3,0.1-0.5,0.1c0,0.1,0,0.2,0.1,0.3c0.8-0.1,1.6-0.3,2.5-0.4c0-0.1,0-0.2,0-0.3c-0.2,0-0.3,0-0.5,0.1
			C17.8,39.2,17.3,36.1,16.8,33.1 M17.5,42.3c-0.1,0-0.3,0-0.4,0.1c-0.5-2.9-1-5.9-1.4-8.8c0.1,0,0.3,0,0.4-0.1
			C16.5,36.4,17,39.4,17.5,42.3"/>
		<path class="st1" d="M21,41.1c-0.4-2.7-0.7-5.4-1.1-8.1c0.4,0,0.8-0.1,1.2-0.1c0-0.1,0-0.2,0-0.3c-0.4,0-0.8,0.1-1.2,0.1
			c-0.1-1.1-0.3-2.2-0.4-3.3c-0.5,0.3-1.1,0.6-1.6,0.9c0.1,0.9,0.3,1.8,0.4,2.7c-0.2,0-0.3,0-0.5,0.1c0,0.1,0,0.2,0,0.3
			c0.2,0,0.3,0,0.5-0.1c0.3,2.4,0.7,4.9,1,7.3c0.1,0.5,0.3,0.9,0.8,1.2c0.5,0.3,1,0.4,1.6,0.3c0.2,0,0.3,0,0.5-0.1
			c0-0.1,0-0.2,0-0.3c-0.2,0-0.3,0-0.5,0.1C21.3,41.8,21,41.6,21,41.1 M19.7,40.6c-0.5-3.4-1-6.8-1.4-10.2c0.1-0.1,0.3-0.1,0.4-0.2
			c0.5,3.5,1,7.1,1.4,10.6c0.1,0.4,0.2,0.7,0.4,0.9C20.1,41.4,19.8,41.1,19.7,40.6"/>
		<path class="st1" d="M24.4,32.5c0.2,0,0.3,0,0.5,0c0.3,2.8,0.5,5.7,0.8,8.5c-0.2,0.2-0.4,0.3-0.7,0.4c-0.4,0-0.6-0.2-0.6-0.6
			c-0.3-2.8-0.6-5.6-0.9-8.4c-0.7,0.1-1.4,0.1-2.1,0.2c0,0.1,0,0.2,0,0.3c0.2,0,0.3,0,0.5-0.1c0.3,2.5,0.6,5,0.9,7.5
			c0.1,1.1,0.7,1.6,1.8,1.5c0.5,0,0.8-0.2,1.1-0.4c0.1,0.7,0.1,1.4,0.2,2c0,0.5-0.1,0.8-0.5,0.8c-0.4,0-0.7-0.2-0.7-0.7
			c0-0.4-0.1-0.8-0.1-1.1c-0.5,0-1,0.1-1.5,0.2c0,0.1,0,0.2,0,0.3c0.1,0.5,0.3,0.9,0.8,1.3c0.5,0.3,1,0.5,1.6,0.4
			c0.6-0.1,1.1-0.3,1.4-0.7c0.4-0.4,0.5-0.9,0.5-1.4c-0.3-3.5-0.6-6.9-0.8-10.4c-0.7,0.1-1.4,0.1-2.1,0.2
			C24.4,32.3,24.4,32.4,24.4,32.5 M23.2,40.3c-0.3-2.5-0.6-5.1-0.9-7.6c0.1,0,0.3,0,0.4,0c0.3,2.6,0.6,5.2,0.9,7.8
			c0,0.4,0.2,0.7,0.5,0.9C23.6,41.3,23.3,41,23.2,40.3 M23.5,42.8c0,0,0-0.1,0-0.1c0.1,0,0.3,0,0.4,0c0,0.1,0,0.2,0,0.4
			c0,0.4,0.2,0.7,0.4,0.9C23.8,43.7,23.6,43.3,23.5,42.8 M26.3,43c-0.3-3.5-0.6-7.1-0.9-10.6c0.1,0,0.3,0,0.4,0
			c0.3,3.4,0.6,6.9,0.9,10.3c0,0.5-0.1,0.9-0.6,1.2C26.2,43.7,26.3,43.4,26.3,43"/>
		<path class="st1" d="M38.6,33.2c0-1.1-0.6-1.7-1.8-1.7c-0.6,0-1.1,0.2-1.5,0.6c-0.3-0.4-0.8-0.5-1.4-0.5c-0.5,0-0.9,0.1-1.2,0.4
			c0-0.1,0-0.2,0-0.3c-0.7,0-1.4,0.1-2.2,0.1c0,0.1,0,0.2,0,0.3c0.2,0,0.3,0,0.5,0c0.1,3,0.3,6,0.4,8.9c-0.2,0-0.3,0-0.5,0
			c0,0.1,0,0.2,0,0.3c0.8,0,1.7-0.1,2.5-0.1c0-0.1,0-0.2,0-0.3c-0.2,0-0.3,0-0.5,0c-0.1-2.9-0.2-5.8-0.3-8.7
			c0.2-0.2,0.5-0.3,0.7-0.3c0.4,0,0.6,0.2,0.6,0.7c0.1,2.9,0.1,5.8,0.2,8.6c0.7,0,1.3,0,2,0c0-0.1,0-0.2,0-0.3c-0.2,0-0.3,0-0.5,0
			c0-2.6-0.1-5.1-0.1-7.7c0-0.3-0.1-0.6-0.2-0.9c0.3-0.3,0.6-0.5,0.9-0.5c0.4,0,0.6,0.2,0.6,0.7c0,2.9,0,5.8,0,8.6c0.7,0,1.3,0,2,0
			c0-0.1,0-0.2,0-0.3c-0.2,0-0.3,0-0.5,0C38.6,38.3,38.6,35.7,38.6,33.2 M32.3,40.9c-0.1,0-0.3,0-0.4,0c-0.1-3-0.3-6-0.4-8.9
			c0.1,0,0.3,0,0.4,0C32,35,32.1,38,32.3,40.9 M35,40.9c-0.1,0-0.3,0-0.4,0c-0.1-2.7-0.1-5.4-0.2-8.2c0-0.4-0.1-0.7-0.3-0.9
			c0.5,0.2,0.7,0.5,0.7,1C34.9,35.5,35,38.2,35,40.9 M37.8,40.8c-0.1,0-0.3,0-0.4,0c0-2.7,0-5.4,0-8.2c0-0.4-0.1-0.7-0.3-0.9
			c0.5,0.2,0.7,0.5,0.7,1C37.8,35.5,37.8,38.2,37.8,40.8"/>
		<path class="st1" d="M44.2,33.5c0-0.6-0.1-1-0.5-1.4c-0.4-0.4-0.9-0.6-1.6-0.6c-0.7,0-1.2,0.1-1.6,0.5c-0.4,0.3-0.6,0.8-0.6,1.4
			c0,0.4,0,0.8,0,1.2c0.5,0,1.1,0,1.6,0c0-0.7,0-1.3,0.1-2c0-0.5,0.2-0.7,0.6-0.7c0.4,0,0.6,0.3,0.6,0.8c0,1-0.1,2.1-0.1,3.1
			c-0.2,0-0.3,0-0.5,0c-1.6-0.1-2.3,0.5-2.4,1.7c0,0.7,0,1.4,0,2.1c0,1.1,0.5,1.7,1.6,1.7c0.4,0,0.8-0.1,1.1-0.3c0,0.1,0,0.2,0,0.3
			c0.7,0,1.3,0.1,2,0.1c0-0.1,0-0.2,0-0.3c-0.2,0-0.3,0-0.5,0C43.9,38.5,44.1,36,44.2,33.5 M40.6,33c0,0.4,0,0.8,0,1.2
			c-0.1,0-0.3,0-0.4,0c0-0.3,0-0.6,0-1c0-0.5,0.2-0.9,0.7-1.2C40.7,32.3,40.6,32.6,40.6,33 M40,39.8c0-0.8,0-1.6,0-2.4
			c0-0.6,0.2-1,0.7-1.2c-0.2,0.2-0.3,0.5-0.3,1c0,0.9,0,1.9-0.1,2.8c0,0.4,0.1,0.7,0.3,1C40.2,40.8,40,40.4,40,39.8 M42.3,40.7
			c-0.2,0.2-0.5,0.3-0.7,0.3c-0.3,0-0.5-0.3-0.5-0.7c0-1.2,0.1-2.3,0.1-3.5c0-0.5,0.3-0.7,0.8-0.7c0.2,0,0.3,0,0.5,0
			C42.4,37.6,42.4,39.1,42.3,40.7 M43.1,41c-0.1,0-0.3,0-0.4,0c0.1-2.7,0.2-5.4,0.3-8.1c0-0.4-0.1-0.7-0.3-0.9
			c0.5,0.3,0.7,0.7,0.7,1.2C43.3,35.7,43.2,38.3,43.1,41"/>
		<path class="st1" d="M48.4,31.9c-0.5,0-0.8,0.1-1.2,0.3c0-0.1,0-0.2,0-0.3c-0.7-0.1-1.4-0.1-2.2-0.1c0,0.1,0,0.2,0,0.3
			c0.2,0,0.3,0,0.5,0c-0.2,3-0.4,6-0.5,8.9c-0.2,0-0.3,0-0.5,0c0,0.1,0,0.2,0,0.3c0.8,0,1.7,0.1,2.5,0.2c0-0.1,0-0.2,0-0.3
			c-0.2,0-0.3,0-0.5,0c0.2-2.9,0.4-5.8,0.6-8.7c0.2-0.2,0.4-0.3,0.7-0.3c0.3,0,0.5,0.3,0.4,0.7c-0.1,0.7-0.1,1.3-0.2,2
			c0.5,0,1.1,0.1,1.6,0.1c0-0.4,0.1-0.9,0.1-1.3C50,32.6,49.5,32,48.4,31.9 M45.9,41.1c-0.1,0-0.3,0-0.4,0c0.2-3,0.4-6,0.6-8.9
			c0.1,0,0.3,0,0.4,0C46.3,35.2,46.1,38.1,45.9,41.1 M49,34.7c-0.1,0-0.3,0-0.4,0c0-0.5,0.1-1,0.1-1.5c0-0.4,0-0.7-0.2-0.9
			c0.4,0.2,0.6,0.5,0.6,1.1C49.1,33.8,49,34.2,49,34.7"/>
		<path class="st1" d="M53.4,35.7c0.6-0.9,1.3-1.8,1.9-2.7c0.2,0,0.3,0,0.5,0.1c0-0.1,0-0.2,0-0.3c-0.5-0.1-1-0.1-1.6-0.2
			c0,0.1,0,0.2,0,0.3c0.2,0,0.3,0,0.5,0.1c-0.9,1.2-1.7,2.4-2.5,3.7c0.3-2.5,0.6-5,0.9-7.6c-0.7-0.1-1.5-0.2-2.2-0.2
			c0,0.1,0,0.2,0,0.3c0.2,0,0.4,0,0.5,0.1c-0.4,4.1-0.8,8.2-1.2,12.2c-0.2,0-0.3,0-0.5,0c0,0.1,0,0.2,0,0.3c0.8,0.1,1.7,0.2,2.5,0.3
			c0-0.1,0-0.2,0-0.3c-0.2,0-0.3,0-0.5-0.1c0.2-1.5,0.3-2.9,0.5-4.4c0.3,1.6,0.5,3.2,0.7,4.8c0.7,0.1,1.3,0.2,2,0.2
			c0-0.1,0-0.2,0-0.3c-0.2,0-0.3,0-0.5-0.1C54,39.9,53.7,37.8,53.4,35.7 M50.9,41.5c-0.1,0-0.3,0-0.4,0c0.4-4.1,0.9-8.1,1.3-12.2
			c0.1,0,0.3,0,0.4,0C51.7,33.4,51.3,37.5,50.9,41.5 M53.2,41.8c-0.2-1.6-0.5-3.2-0.7-4.8c0.1-0.2,0.2-0.3,0.3-0.5
			c0.3,1.8,0.6,3.6,0.8,5.3C53.5,41.8,53.4,41.8,53.2,41.8"/>
		<path class="st1" d="M60.7,33.9c-0.4-0.4-0.9-0.7-1.6-0.8c-0.7-0.1-1.3,0-1.8,0.3c-0.5,0.3-0.8,0.7-0.9,1.2c-0.3,2-0.6,4-0.9,6
			c-0.1,0.5,0.1,1,0.4,1.4c0.4,0.4,0.9,0.7,1.5,0.8c0.6,0.1,1.2,0,1.6-0.3c0.5-0.3,0.8-0.7,0.9-1.2c0.1-0.4,0.1-0.8,0.2-1.1
			c-0.5-0.1-1-0.2-1.5-0.3c-0.1,0.6-0.2,1.3-0.3,1.9c-0.1,0.5-0.3,0.7-0.8,0.6c-0.5-0.1-0.6-0.3-0.6-0.8c0.2-1.2,0.4-2.4,0.6-3.6
			c1,0.1,2,0.3,2.9,0.5c0.2-1,0.4-2.1,0.6-3.1C61.2,34.9,61,34.4,60.7,33.9 M58.8,41.6c0.1-0.5,0.2-0.9,0.2-1.4c0.1,0,0.3,0,0.4,0.1
			c-0.1,0.4-0.1,0.7-0.2,1.1c-0.1,0.5-0.4,0.9-0.9,1.1C58.5,42.3,58.7,42,58.8,41.6 M56.4,42c-0.4-0.3-0.5-0.7-0.5-1.2
			c0.3-2.1,0.6-4.2,0.9-6.2c0.1-0.5,0.4-0.8,0.8-1c-0.2,0.2-0.4,0.5-0.4,0.9c-0.3,2.2-0.7,4.4-1,6.7C56.3,41.4,56.3,41.8,56.4,42
			 M59,37.9c-0.5-0.1-0.9-0.1-1.4-0.2c0.2-1.2,0.4-2.4,0.6-3.6c0.1-0.5,0.4-0.7,0.8-0.6c0.5,0.1,0.7,0.4,0.6,0.8
			C59.4,35.5,59.2,36.7,59,37.9 M59.8,38c-0.1,0-0.3,0-0.4-0.1c0.2-1.1,0.4-2.2,0.6-3.3c0.1-0.4,0-0.7-0.2-1
			c0.4,0.4,0.6,0.8,0.5,1.3C60.2,36,60,37,59.8,38"/>
		<path class="st1" d="M63.1,43.4c-0.5-0.1-0.6-0.4-0.5-0.9c0.5-2.7,1.1-5.4,1.6-8.1c0.4,0.1,0.8,0.2,1.2,0.2c0-0.1,0-0.2,0.1-0.3
			c-0.4-0.1-0.8-0.2-1.2-0.2c0.2-1.1,0.4-2.2,0.7-3.3c-0.6,0.1-1.2,0.2-1.8,0.3c-0.2,0.9-0.3,1.8-0.5,2.6c-0.2,0-0.3-0.1-0.5-0.1
			c0,0.1,0,0.2-0.1,0.3c0.2,0,0.3,0.1,0.5,0.1c-0.5,2.4-0.9,4.8-1.4,7.3c-0.1,0.5,0,1,0.4,1.4c0.3,0.4,0.8,0.7,1.5,0.8
			c0.2,0,0.3,0.1,0.5,0.1c0-0.1,0-0.2,0.1-0.3C63.4,43.4,63.2,43.4,63.1,43.4 M61.5,41.6c0.7-3.4,1.3-6.8,2-10.1
			c0.1,0,0.3-0.1,0.4-0.1c-0.7,3.5-1.4,7-2.1,10.5c-0.1,0.4,0,0.7,0.1,1C61.6,42.5,61.4,42.1,61.5,41.6"/>
		<path class="st1" d="M29.3,43.9h0.5c0,0-0.1,0.1-0.1,0.2c0,0.1,0,0.4,0,0.8V45c0,0.2,0,0.5,0,0.6c0,0.2,0,0.3,0,0.3c0,0,0,0,0.1,0
			c0,0,0.1,0,0.1,0c0.2,0,0.3,0,0.4-0.1c0.1,0,0.2-0.1,0.2-0.2l-0.1,0.3c0,0-0.1,0-0.2,0c-0.1,0-0.1,0-0.2,0c-0.1,0-0.2,0-0.3,0
			c-0.2,0-0.3,0-0.4,0h-0.1c0,0,0.1-0.1,0.1-0.2c0-0.1,0-0.4,0-0.8v-0.1c0-0.4,0-0.7,0-0.8C29.3,44,29.3,43.9,29.3,43.9"/>
		<path class="st1" d="M30.7,46.1c0.1-0.1,0.2-0.3,0.3-0.5c0.1-0.2,0.2-0.4,0.3-0.7c0.1-0.2,0.2-0.4,0.2-0.6
			c0.1-0.2,0.1-0.3,0.1-0.3c0,0,0,0,0-0.1c0,0,0,0,0-0.1h0.4c0.2,0.6,0.3,1,0.5,1.4c0.1,0.4,0.3,0.7,0.4,0.8h-0.4l-0.3-1h-0.8
			l-0.1,0.4l0,0c-0.1,0.2-0.1,0.4-0.1,0.5c0,0,0,0,0,0c0,0,0,0,0,0.1H30.7z M31.4,45h0.7l-0.3-0.9L31.4,45z"/>
		<path class="st1" d="M36,43.9l0,0.5c0-0.1-0.1-0.2-0.2-0.3C35.7,44,35.6,44,35.5,44c-0.2,0-0.4,0.1-0.6,0.2
			c-0.1,0.2-0.2,0.4-0.2,0.7c0,0.3,0.1,0.5,0.2,0.7c0.2,0.2,0.4,0.3,0.6,0.3c0.1,0,0.2,0,0.3-0.1c0.1,0,0.2-0.1,0.3-0.2
			c0,0.2-0.1,0.3-0.3,0.4c-0.1,0.1-0.3,0.1-0.5,0.1c-0.3,0-0.5-0.1-0.7-0.3c-0.2-0.2-0.3-0.5-0.3-0.8c0-0.4,0.1-0.7,0.3-0.9
			c0.2-0.2,0.5-0.3,0.9-0.3c0.1,0,0.1,0,0.3,0C35.9,43.9,36,43.9,36,43.9"/>
		<path class="st1" d="M37.6,46.1c-0.3,0-0.6-0.1-0.8-0.3c-0.2-0.2-0.3-0.5-0.3-0.8c0-0.4,0.1-0.7,0.3-0.9c0.2-0.2,0.5-0.3,0.8-0.3
			c0.3,0,0.6,0.1,0.8,0.3c0.2,0.2,0.3,0.5,0.3,0.8c0,0.4-0.1,0.7-0.3,0.9C38.2,46,38,46.1,37.6,46.1 M37.7,46c0.2,0,0.4-0.1,0.5-0.2
			c0.1-0.2,0.2-0.4,0.2-0.7c0-0.3-0.1-0.6-0.2-0.8c-0.1-0.2-0.3-0.3-0.5-0.3c-0.2,0-0.4,0.1-0.5,0.2C37,44.4,37,44.6,37,44.9
			c0,0.3,0.1,0.6,0.2,0.8C37.3,45.9,37.5,46,37.7,46"/>
		<path class="st1" d="M40.4,46.2l-0.8-2.1l0,1.5v0.1c0,0.1,0,0.2,0,0.2c0,0.1,0,0.1,0.1,0.1h-0.4c0.1-0.1,0.1-0.2,0.1-0.6
			c0-0.3,0-0.8,0-1.4c0-0.1,0-0.1,0-0.1c0,0,0-0.1-0.1-0.1h0.4c0,0,0.1,0,0.1,0c0,0,0,0,0,0l0.6,1.7l0.7-1.7c0,0,0-0.1,0-0.1
			c0,0,0,0,0.1,0h0.3c0,0-0.1,0.1-0.1,0.2c0,0.1,0,0.2,0,0.4c0,0.6,0,1,0,1.2c0,0.2,0.1,0.4,0.1,0.5h-0.5c0,0,0.1-0.1,0.1-0.2
			c0-0.1,0-0.2,0-0.3c0,0,0,0,0,0c0-0.1,0-0.2,0-0.3l0-1.2L40.4,46.2z"/>
		<path class="st1" d="M42.3,46.1c0,0,0.1-0.1,0.1-0.2c0-0.1,0-0.4,0-0.8v-0.1c0-0.4,0-0.7,0-0.8c0-0.1,0-0.2-0.1-0.2h0.2
			c0.2,0,0.3,0,0.5,0c0.2,0,0.3,0,0.4,0c0,0,0,0,0,0c0,0,0.1,0,0.1,0l0,0.3c0-0.1-0.1-0.1-0.2-0.1c-0.1,0-0.2,0-0.5,0h-0.2
			c0,0,0,0.1,0,0.2c0,0.1,0,0.3,0,0.5v0.1c0,0,0.1,0,0.1,0c0,0,0.1,0,0.2,0c0.1,0,0.3,0,0.3,0c0.1,0,0.2,0,0.2,0
			c-0.1,0.1-0.1,0.1-0.3,0.2c-0.1,0-0.3,0-0.5,0c0,0,0,0,0,0c0,0,0,0-0.1,0v0.2c0,0.2,0,0.4,0,0.5c0,0.1,0,0.2,0,0.2h0.2
			c0.2,0,0.4,0,0.5-0.1c0.1,0,0.2-0.1,0.3-0.2l-0.1,0.3c0,0-0.1,0-0.2,0c-0.1,0-0.1,0-0.2,0c-0.1,0-0.2,0-0.3,0c-0.2,0-0.3,0-0.4,0
			H42.3z"/>
		<path class="st1" d="M44.4,43.9c0.1,0,0.3,0,0.5,0c0.2,0,0.3,0,0.3,0c0.2,0,0.3,0,0.4,0.1c0.1,0.1,0.1,0.2,0.1,0.3
			c0,0.1,0,0.3-0.1,0.4c-0.1,0.1-0.2,0.2-0.4,0.3l0.5,0.7c0.1,0.1,0.2,0.2,0.2,0.3c0.1,0.1,0.1,0.1,0.2,0.2h-0.3c0,0-0.1,0-0.1,0
			c0,0,0,0-0.1-0.1l-0.6-0.8c0-0.1-0.1-0.1-0.1-0.1c0,0-0.1,0-0.1,0h0v0.2c0,0.3,0,0.6,0,0.7c0,0.1,0,0.2,0.1,0.2h-0.5
			c0,0,0.1-0.1,0.1-0.2c0-0.1,0-0.4,0-0.8v-0.1c0-0.4,0-0.7,0-0.8C44.3,44,44.3,43.9,44.4,43.9L44.4,43.9z M44.6,44.9
			C44.7,44.9,44.7,44.9,44.6,44.9c0.1,0,0.1,0,0.1,0c0.2,0,0.3,0,0.4-0.1c0.1-0.1,0.1-0.2,0.1-0.4c0-0.1,0-0.2-0.1-0.3
			C45.1,44,45,44,44.9,44c-0.1,0-0.1,0-0.1,0c0,0-0.1,0-0.1,0c0,0,0,0.1,0,0.2c0,0.1,0,0.3,0,0.5v0V44.9z"/>
	</g>
</g>
</svg>
