<svg xmlns="http://www.w3.org/2000/svg" width="75" height="75" viewBox="0 0 75 75">
  <g id="Grupo_6649" data-name="Grupo 6649" transform="translate(-3946 2952)">
    <rect id="Rectángulo_3471" data-name="Rectángulo 3471" width="75" height="75" transform="translate(3946 -2952)" fill="#fff"/>
    <g id="Grupo_6648" data-name="Grupo 6648" transform="translate(3842.118 -2987.928)">
      <path id="Trazado_6884" data-name="Trazado 6884" d="M120.349,308.752l.714.275a2.039,2.039,0,0,1-.547,1.078,1.378,1.378,0,0,1-.97.352,1.452,1.452,0,0,1-1.2-.6,2.627,2.627,0,0,1-.469-1.649,2.767,2.767,0,0,1,.471-1.719,1.488,1.488,0,0,1,1.238-.612,1.374,1.374,0,0,1,1.088.481,1.865,1.865,0,0,1,.374.816l-.73.212a.981.981,0,0,0-.271-.545.689.689,0,0,0-.5-.2.775.775,0,0,0-.659.354,2.008,2.008,0,0,0-.253,1.145,2.156,2.156,0,0,0,.249,1.2.756.756,0,0,0,.647.357.666.666,0,0,0,.506-.227,1.427,1.427,0,0,0,.3-.713Zm.99,1.629V305.95h1.553a2.22,2.22,0,0,1,.85.12.9.9,0,0,1,.425.424,1.489,1.489,0,0,1,.159.7,1.349,1.349,0,0,1-.242.824,1.094,1.094,0,0,1-.723.409,1.824,1.824,0,0,1,.4.372,5.185,5.185,0,0,1,.419.719l.446.865h-.882l-.533-.965a6.369,6.369,0,0,0-.388-.651.58.58,0,0,0-.222-.185,1.019,1.019,0,0,0-.372-.05h-.149v1.85Zm.738-2.558h.545a2.364,2.364,0,0,0,.663-.054.418.418,0,0,0,.207-.188.675.675,0,0,0,.075-.332.608.608,0,0,0-.1-.361.434.434,0,0,0-.278-.174q-.089-.014-.538-.014h-.575v1.124Zm2.562,2.558V305.95h.737v4.432Zm.893-1.442.718-.086a1.148,1.148,0,0,0,.263.645.709.709,0,0,0,.534.205.72.72,0,0,0,.537-.184.588.588,0,0,0,.181-.427.456.456,0,0,0-.076-.267.584.584,0,0,0-.265-.192c-.086-.037-.283-.1-.59-.194A1.851,1.851,0,0,1,126,308a1.268,1.268,0,0,1-.337-.892,1.321,1.321,0,0,1,.158-.634,1.064,1.064,0,0,1,.456-.449,1.556,1.556,0,0,1,.719-.154,1.365,1.365,0,0,1,1.036.365,1.428,1.428,0,0,1,.365.977l-.737.039a.82.82,0,0,0-.2-.491.648.648,0,0,0-.467-.15.731.731,0,0,0-.5.16.346.346,0,0,0-.118.275.37.37,0,0,0,.11.269,1.732,1.732,0,0,0,.678.3,3.185,3.185,0,0,1,.8.319,1.141,1.141,0,0,1,.4.451,1.547,1.547,0,0,1,.146.706,1.508,1.508,0,0,1-.174.713,1.12,1.12,0,0,1-.493.494,1.741,1.741,0,0,1-.8.162,1.4,1.4,0,0,1-1.064-.388,1.846,1.846,0,0,1-.443-1.132Zm4.052,1.442h.738V306.7H131.4v-.75h-2.9v.75h1.083v3.682Zm1.786-2.189a3.352,3.352,0,0,1,.167-1.137,2.172,2.172,0,0,1,.34-.608,1.462,1.462,0,0,1,.472-.4,1.69,1.69,0,0,1,.787-.176,1.567,1.567,0,0,1,1.292.608,3.178,3.178,0,0,1,0,3.369,1.68,1.68,0,0,1-2.581,0,2.6,2.6,0,0,1-.48-1.661Zm.759-.03a1.914,1.914,0,0,0,.286,1.141.87.87,0,0,0,.728.388.861.861,0,0,0,.724-.386,1.952,1.952,0,0,0,.282-1.156,1.928,1.928,0,0,0-.275-1.137.9.9,0,0,0-1.467.005,1.931,1.931,0,0,0-.279,1.144Zm.559-2.467.343-.9h.785l-.685.9Zm2.442.254h1.46a3.421,3.421,0,0,1,.647.044.858.858,0,0,1,.381.183,1.079,1.079,0,0,1,.28.371,1.172,1.172,0,0,1,.112.518,1.2,1.2,0,0,1-.138.572.937.937,0,0,1-.375.39.967.967,0,0,1,.513.4,1.226,1.226,0,0,1,.179.669,1.55,1.55,0,0,1-.116.588,1.16,1.16,0,0,1-.316.456.943.943,0,0,1-.495.21q-.183.023-.889.03H135.13V305.95Zm.738.738v1.025h.483a5.211,5.211,0,0,0,.536-.016.449.449,0,0,0,.3-.158.527.527,0,0,0,.108-.347.554.554,0,0,0-.093-.334.4.4,0,0,0-.278-.155q-.11-.016-.63-.015Zm0,1.762v1.184h.682a2.716,2.716,0,0,0,.506-.027.442.442,0,0,0,.268-.176.624.624,0,0,0,.1-.377.676.676,0,0,0-.08-.338.472.472,0,0,0-.23-.2,2.1,2.1,0,0,0-.654-.063Zm5.878,1.932-1.463-4.432h-.78l-1.422,4.432h.782l.3-1.007h1.46l.319,1.007Zm-1.358-1.753h-1l.493-1.645.5,1.645Zm1.409,1.753v-4.4h.737v3.649h1.833v.747Z" transform="translate(0 -214.711)" fill="#2d567c" fill-rule="evenodd"/>
      <path id="Trazado_6885" data-name="Trazado 6885" d="M291.6,308.884l1.02.346a3.4,3.4,0,0,1-.653.8,2.59,2.59,0,0,1-.792.487,2.748,2.748,0,0,1-.994.164,2.236,2.236,0,0,1-1.054-.2,1.072,1.072,0,0,1-.5-.706,2.222,2.222,0,0,1,.149-1.291,3.357,3.357,0,0,1,1.14-1.613,2.914,2.914,0,0,1,1.782-.564,1.63,1.63,0,0,1,1.139.323,1.252,1.252,0,0,1,.321.992l-1.246.257a.761.761,0,0,0-.025-.283.449.449,0,0,0-.184-.23.607.607,0,0,0-.326-.081,1.135,1.135,0,0,0-.809.357,2.184,2.184,0,0,0-.48.834,1.486,1.486,0,0,0-.134.964.5.5,0,0,0,.505.261,1.006,1.006,0,0,0,.643-.211,2.094,2.094,0,0,0,.5-.611Zm1.234-.384a2.243,2.243,0,0,0-.154,1.234,1.076,1.076,0,0,0,.5.721,2.2,2.2,0,0,0,1.1.227,2.971,2.971,0,0,0,1.27-.264,3.006,3.006,0,0,0,.987-.738,3.7,3.7,0,0,0,.688-1.215,1.776,1.776,0,0,0,0-1.587,1.572,1.572,0,0,0-1.422-.567,2.982,2.982,0,0,0-1.814.577,3.348,3.348,0,0,0-1.158,1.611Zm1.3.006a2.093,2.093,0,0,1,.573-.925,1.132,1.132,0,0,1,.735-.28.563.563,0,0,1,.554.275,1.165,1.165,0,0,1-.074.873,2.282,2.282,0,0,1-.586.983,1.144,1.144,0,0,1-.75.274.55.55,0,0,1-.547-.279,1.287,1.287,0,0,1,.095-.92Zm4.024-2.122h1.307l-1.149,3.186h2.038l-.376,1.041h-3.345l1.525-4.227Zm2.493,2.116a3.348,3.348,0,0,1,1.158-1.611,2.982,2.982,0,0,1,1.814-.577,1.572,1.572,0,0,1,1.422.567,1.776,1.776,0,0,1,0,1.587,3.708,3.708,0,0,1-.689,1.215,3.008,3.008,0,0,1-.987.738,2.972,2.972,0,0,1-1.27.264,2.2,2.2,0,0,1-1.1-.227,1.077,1.077,0,0,1-.5-.721,2.245,2.245,0,0,1,.154-1.234Zm1.3.006a1.287,1.287,0,0,0-.095.92.55.55,0,0,0,.547.279,1.144,1.144,0,0,0,.75-.274,2.283,2.283,0,0,0,.586-.983,1.165,1.165,0,0,0,.074-.873.564.564,0,0,0-.554-.275,1.132,1.132,0,0,0-.735.28,2.093,2.093,0,0,0-.573.925Zm2.025-3.24H305l-1.242.862H303.2l.8-.862ZM306,306.384l-1.525,4.227H305.7l.837-2.321.746,2.321h1.231l1.525-4.227H308.81l-.843,2.338-.748-2.338Z" transform="translate(-144.378 -215.112)" fill="#002b52" fill-rule="evenodd"/>
      <path id="Trazado_6886" data-name="Trazado 6886" d="M120.673,290.245l.311.1a1.384,1.384,0,0,1-.361.742.876.876,0,0,1-.627.245.927.927,0,0,1-.555-.164,1.15,1.15,0,0,1-.377-.526,2.264,2.264,0,0,1-.147-.856,2.057,2.057,0,0,1,.147-.824,1.153,1.153,0,0,1,.4-.51.967.967,0,0,1,.56-.172.84.84,0,0,1,.582.219,1.194,1.194,0,0,1,.341.641l-.3.091q-.155-.617-.624-.617a.673.673,0,0,0-.4.124.827.827,0,0,0-.273.386,1.838,1.838,0,0,0-.1.663,1.628,1.628,0,0,0,.206.909.635.635,0,0,0,.549.3.591.591,0,0,0,.436-.186,1.023,1.023,0,0,0,.246-.565Zm.442,1.035.9-2.953h.333l.957,2.953h-.354l-.272-.894H121.7l-.257.894Zm.675-1.213h.791l-.243-.817q-.113-.376-.165-.613a4.44,4.44,0,0,1-.127.565l-.256.865Zm1.594.375.278-.048a.9.9,0,0,0,.1.463.287.287,0,0,0,.247.124.314.314,0,0,0,.2-.063.3.3,0,0,0,.114-.16,1.431,1.431,0,0,0,.041-.4v-2.034h.309v2.012a1.291,1.291,0,0,1-.172.767.576.576,0,0,1-.485.223.527.527,0,0,1-.455-.2,1.131,1.131,0,0,1-.173-.687Zm1.542.838.9-2.953h.333l.957,2.953h-.354l-.272-.894h-.976l-.257.894Zm.675-1.213h.791l-.243-.817q-.113-.376-.165-.613a4.412,4.412,0,0,1-.127.565l-.256.865Zm2.488,1.213v-2.953h.881a1.372,1.372,0,0,1,.459.056.623.623,0,0,1,.323.284,1,1,0,0,1,.12.51,1.025,1.025,0,0,1-.2.651.812.812,0,0,1-.678.252h-.6v1.2Zm.31-1.549h.6a.568.568,0,0,0,.418-.134.552.552,0,0,0,.132-.4.648.648,0,0,0-.065-.3.38.38,0,0,0-.158-.171.824.824,0,0,0-.333-.046h-.6v1.055Zm1.781.11a1.839,1.839,0,0,1,.321-1.161.984.984,0,0,1,.8-.405.949.949,0,0,1,.564.182,1.21,1.21,0,0,1,.4.527,2.076,2.076,0,0,1,.149.822,1.832,1.832,0,0,1-.287,1.07.98.98,0,0,1-1.663-.012,1.785,1.785,0,0,1-.286-1.022Zm.319.006a1.356,1.356,0,0,0,.232.847.684.684,0,0,0,1.136,0,1.469,1.469,0,0,0,.23-.894,1.843,1.843,0,0,0-.119-.681.835.835,0,0,0-.276-.368.653.653,0,0,0-.4-.138.692.692,0,0,0-.576.3,1.558,1.558,0,0,0-.226.934Zm2.31,1.432v-2.953h.881a1.371,1.371,0,0,1,.459.056.623.623,0,0,1,.323.284,1,1,0,0,1,.12.51,1.025,1.025,0,0,1-.2.651.813.813,0,0,1-.679.252h-.6v1.2Zm.309-1.549h.6a.568.568,0,0,0,.418-.134.552.552,0,0,0,.132-.4.648.648,0,0,0-.065-.3.379.379,0,0,0-.158-.171.825.825,0,0,0-.333-.046h-.6v1.055Zm3.4-1.4h.311v1.706a2.546,2.546,0,0,1-.08.7.811.811,0,0,1-.294.435.879.879,0,0,1-.541.159.837.837,0,0,1-.694-.286,1.656,1.656,0,0,1-.23-1.01v-1.706h.309v1.7a1.976,1.976,0,0,0,.06.58.514.514,0,0,0,.2.273.576.576,0,0,0,.333.094.568.568,0,0,0,.48-.194,1.325,1.325,0,0,0,.149-.753v-1.7Zm.811,2.953v-2.953h.309v2.6h1.152v.349Zm1.579,0,.9-2.953h.333l.957,2.953h-.354l-.272-.894h-.976l-.257.894Zm.675-1.213h.791l-.243-.817q-.112-.376-.165-.613a4.378,4.378,0,0,1-.127.565l-.256.865Zm1.758,1.213v-2.953h1.036a1.063,1.063,0,0,1,.48.083.624.624,0,0,1,.254.275.959.959,0,0,1,.1.446.833.833,0,0,1-.168.542.777.777,0,0,1-.489.264.8.8,0,0,1,.2.163,2.057,2.057,0,0,1,.243.377l.408.8h-.389l-.311-.615a3.843,3.843,0,0,0-.273-.485.547.547,0,0,0-.179-.168.552.552,0,0,0-.242-.043h-.358v1.311Zm.309-1.649h.665a.789.789,0,0,0,.33-.055.4.4,0,0,0,.179-.171.536.536,0,0,0,.066-.272.478.478,0,0,0-.127-.351.5.5,0,0,0-.375-.128h-.739Z" transform="translate(-0.875 -200.741)" fill="#002b52" fill-rule="evenodd"/>
      <path id="Trazado_6887" data-name="Trazado 6887" d="M216.856,85.7s1.407,12.875-7.109,19.867c0,0,6.01-3.263,10.13-3.6,0,0,1.782-3.447,2.847-10.421C222.724,91.54,222.068,89.531,216.856,85.7Z" transform="translate(-77.697 -29.406)" fill="#2d567c"/>
      <path id="Trazado_6888" data-name="Trazado 6888" d="M250.021,71.786s.449,18.983-9.336,26.235c0,0,16.725-8.8,15.692-2.686C256.377,95.336,268.426,85.768,250.021,71.786Z" transform="translate(-103.863 -17.641)" fill="#062b4e"/>
      <path id="Trazado_6889" data-name="Trazado 6889" d="M314.637,212.637c.3-1.79-.92-2.3-2.8-2.128.273,1.228.006,2.934-2.27,4.741a16.294,16.294,0,0,0,5.1-2.641Z" transform="translate(-162.122 -134.942)" fill="#2d567c"/>
      <path id="Trazado_6890" data-name="Trazado 6890" d="M189.94,83.845a15.8,15.8,0,1,1,0-31.592,16.531,16.531,0,0,1,9.54,3A17.058,17.058,0,1,0,198.8,81.3,16.552,16.552,0,0,1,189.94,83.845Z" transform="translate(-45.072 0)" fill="#002b52" fill-rule="evenodd"/>
    </g>
  </g>
</svg>
