<svg xmlns="http://www.w3.org/2000/svg" width="107" height="107" viewBox="0 0 107 107"><defs><style>.a{fill:#fff;stroke:#707070;stroke-width:0.5px;}.b,.d{fill:#2d567c;}.b,.c{fill-rule:evenodd;}.c{fill:#002b52;}.e{fill:#062b4e;}.f{stroke:none;}.g{fill:none;}</style></defs><g transform="translate(-1164 -1093)"><g class="a" transform="translate(1164 1093)"><rect class="f" width="107" height="107"/><rect class="g" x="0.25" y="0.25" width="106.5" height="106.5"/></g><g transform="translate(1067.118 1065.072)"><path class="b" d="M121.191,310.1l.958.368a2.736,2.736,0,0,1-.733,1.446,1.848,1.848,0,0,1-1.3.472,1.947,1.947,0,0,1-1.6-.808,3.524,3.524,0,0,1-.628-2.212,3.711,3.711,0,0,1,.632-2.306,2,2,0,0,1,1.661-.821,1.843,1.843,0,0,1,1.46.645,2.5,2.5,0,0,1,.5,1.095l-.98.284a1.315,1.315,0,0,0-.363-.731.924.924,0,0,0-.669-.267,1.039,1.039,0,0,0-.884.475,2.693,2.693,0,0,0-.339,1.536,2.891,2.891,0,0,0,.334,1.605,1.015,1.015,0,0,0,.868.479.893.893,0,0,0,.679-.3,1.914,1.914,0,0,0,.408-.956Zm1.327,2.186v-5.945H124.6a2.977,2.977,0,0,1,1.14.161,1.2,1.2,0,0,1,.57.569,2,2,0,0,1,.213.937,1.809,1.809,0,0,1-.324,1.106,1.467,1.467,0,0,1-.969.548,2.447,2.447,0,0,1,.53.5,6.957,6.957,0,0,1,.562.965l.6,1.16H125.74L125.025,311a8.545,8.545,0,0,0-.521-.873.779.779,0,0,0-.3-.248,1.366,1.366,0,0,0-.5-.067h-.2v2.482Zm.99-3.431h.731a3.172,3.172,0,0,0,.89-.072.561.561,0,0,0,.277-.252.905.905,0,0,0,.1-.446.815.815,0,0,0-.132-.484.583.583,0,0,0-.373-.234q-.119-.019-.722-.019h-.771v1.507Zm3.436,3.431v-5.945h.989v5.945Zm1.2-1.934.963-.115a1.54,1.54,0,0,0,.353.865.951.951,0,0,0,.716.276.965.965,0,0,0,.72-.246.788.788,0,0,0,.243-.573.612.612,0,0,0-.1-.359.784.784,0,0,0-.356-.257c-.115-.05-.38-.136-.792-.26a2.482,2.482,0,0,1-1.115-.588,1.7,1.7,0,0,1-.452-1.2,1.772,1.772,0,0,1,.212-.85,1.427,1.427,0,0,1,.611-.6,2.088,2.088,0,0,1,.964-.206,1.831,1.831,0,0,1,1.389.49,1.915,1.915,0,0,1,.489,1.311L131,308.1a1.1,1.1,0,0,0-.273-.659.87.87,0,0,0-.626-.2.981.981,0,0,0-.675.215.464.464,0,0,0-.158.368.5.5,0,0,0,.147.361,2.323,2.323,0,0,0,.909.4,4.272,4.272,0,0,1,1.067.428,1.53,1.53,0,0,1,.542.6,2.075,2.075,0,0,1,.2.947,2.023,2.023,0,0,1-.234.957,1.5,1.5,0,0,1-.661.663,2.336,2.336,0,0,1-1.067.217,1.879,1.879,0,0,1-1.427-.521,2.476,2.476,0,0,1-.594-1.518Zm5.435,1.934h.99v-4.938h1.45v-1.006h-3.893v1.006h1.453v4.938Zm2.395-2.936a4.5,4.5,0,0,1,.224-1.525,2.913,2.913,0,0,1,.456-.815,1.96,1.96,0,0,1,.633-.534,2.267,2.267,0,0,1,1.056-.235,2.1,2.1,0,0,1,1.732.815,4.263,4.263,0,0,1,0,4.519,2.253,2.253,0,0,1-3.462,0,3.486,3.486,0,0,1-.644-2.228Zm1.019-.04a2.567,2.567,0,0,0,.384,1.531,1.167,1.167,0,0,0,.976.52,1.155,1.155,0,0,0,.971-.518,2.618,2.618,0,0,0,.379-1.55,2.587,2.587,0,0,0-.368-1.525,1.209,1.209,0,0,0-1.968.007,2.59,2.59,0,0,0-.374,1.535Zm.749-3.309.461-1.212h1.053L138.335,306Zm3.276.34h1.958a4.591,4.591,0,0,1,.868.06,1.151,1.151,0,0,1,.511.245,1.447,1.447,0,0,1,.375.5,1.572,1.572,0,0,1,.151.695,1.613,1.613,0,0,1-.185.767,1.257,1.257,0,0,1-.5.523,1.3,1.3,0,0,1,.688.538,1.644,1.644,0,0,1,.241.9,2.079,2.079,0,0,1-.155.789,1.556,1.556,0,0,1-.424.612,1.264,1.264,0,0,1-.664.282q-.246.031-1.193.04h-1.667v-5.945Zm.99.99v1.374h.648a7,7,0,0,0,.718-.021.6.6,0,0,0,.4-.212.708.708,0,0,0,.145-.465.743.743,0,0,0-.125-.448.532.532,0,0,0-.373-.208q-.147-.021-.845-.021Zm0,2.364v1.589h.915a3.641,3.641,0,0,0,.679-.036.593.593,0,0,0,.359-.236.837.837,0,0,0,.139-.505.907.907,0,0,0-.107-.454.633.633,0,0,0-.309-.273,2.812,2.812,0,0,0-.877-.084Zm7.884,2.591-1.962-5.945h-1.046l-1.908,5.945h1.049l.4-1.351h1.958l.428,1.351Zm-1.821-2.352h-1.337l.662-2.206.675,2.206Zm1.89,2.352v-5.9h.989v4.894h2.459v1Z" transform="translate(0 -201.348)"/><path class="c" d="M292.634,310.118l1.368.465a4.565,4.565,0,0,1-.876,1.079,3.474,3.474,0,0,1-1.062.654,3.686,3.686,0,0,1-1.333.22,3,3,0,0,1-1.414-.268,1.438,1.438,0,0,1-.671-.946,2.981,2.981,0,0,1,.2-1.732,4.5,4.5,0,0,1,1.529-2.163,3.908,3.908,0,0,1,2.39-.756,2.186,2.186,0,0,1,1.528.433,1.68,1.68,0,0,1,.431,1.331l-1.671.344a1.02,1.02,0,0,0-.033-.38.6.6,0,0,0-.247-.309.814.814,0,0,0-.438-.108,1.522,1.522,0,0,0-1.085.479,2.93,2.93,0,0,0-.644,1.118,1.994,1.994,0,0,0-.18,1.294.667.667,0,0,0,.678.35,1.349,1.349,0,0,0,.862-.283,2.809,2.809,0,0,0,.669-.82Zm1.656-.515a3.009,3.009,0,0,0-.206,1.655,1.443,1.443,0,0,0,.67.968,2.944,2.944,0,0,0,1.478.3,3.985,3.985,0,0,0,1.7-.354,4.032,4.032,0,0,0,1.324-.99,4.97,4.97,0,0,0,.923-1.63,2.382,2.382,0,0,0,0-2.128,2.108,2.108,0,0,0-1.908-.76,4,4,0,0,0-2.433.773,4.49,4.49,0,0,0-1.553,2.161Zm1.75.008a2.807,2.807,0,0,1,.768-1.241,1.518,1.518,0,0,1,.986-.375.756.756,0,0,1,.743.368,1.563,1.563,0,0,1-.1,1.171,3.061,3.061,0,0,1-.786,1.319,1.534,1.534,0,0,1-1.006.367.737.737,0,0,1-.733-.375,1.726,1.726,0,0,1,.127-1.234Zm5.4-2.846h1.753l-1.541,4.273h2.734l-.5,1.4h-4.487l2.045-5.669Zm3.344,2.838a4.49,4.49,0,0,1,1.553-2.161,4,4,0,0,1,2.433-.773,2.108,2.108,0,0,1,1.908.76,2.383,2.383,0,0,1,0,2.128,4.973,4.973,0,0,1-.923,1.63,4.035,4.035,0,0,1-1.323.99,3.987,3.987,0,0,1-1.7.354,2.945,2.945,0,0,1-1.478-.3,1.445,1.445,0,0,1-.67-.968,3.011,3.011,0,0,1,.206-1.655Zm1.75.008a1.727,1.727,0,0,0-.127,1.234.737.737,0,0,0,.733.375,1.534,1.534,0,0,0,1.006-.367,3.063,3.063,0,0,0,.786-1.319,1.563,1.563,0,0,0,.1-1.171.756.756,0,0,0-.744-.368,1.518,1.518,0,0,0-.985.375,2.808,2.808,0,0,0-.769,1.241Zm2.716-4.345H310.6l-1.666,1.156h-.754l1.067-1.156Zm2.693,1.5-2.045,5.669h1.647l1.123-3.113,1,3.113h1.651l2.045-5.669h-1.651L314.58,309.9l-1-3.136Z" transform="translate(-135.392 -201.724)"/><path class="c" d="M121.273,290.917l.418.133a1.856,1.856,0,0,1-.484.995,1.175,1.175,0,0,1-.842.328,1.244,1.244,0,0,1-.744-.22,1.543,1.543,0,0,1-.506-.706,3.036,3.036,0,0,1-.2-1.148,2.759,2.759,0,0,1,.2-1.106,1.547,1.547,0,0,1,.533-.684,1.3,1.3,0,0,1,.751-.23,1.127,1.127,0,0,1,.78.293,1.6,1.6,0,0,1,.457.86l-.407.122q-.209-.827-.837-.827a.9.9,0,0,0-.543.166,1.109,1.109,0,0,0-.366.517,2.466,2.466,0,0,0-.137.889,2.183,2.183,0,0,0,.276,1.22.851.851,0,0,0,.736.407.793.793,0,0,0,.585-.25,1.372,1.372,0,0,0,.33-.758Zm.592,1.389,1.205-3.961h.446l1.283,3.961h-.475l-.365-1.2h-1.31l-.345,1.2Zm.905-1.627h1.061l-.326-1.1q-.151-.5-.222-.822a5.952,5.952,0,0,1-.17.757l-.344,1.161Zm2.139.5.373-.065a1.211,1.211,0,0,0,.135.621.385.385,0,0,0,.331.167.422.422,0,0,0,.263-.085.408.408,0,0,0,.152-.215,1.919,1.919,0,0,0,.055-.532v-2.729h.414v2.7a1.731,1.731,0,0,1-.231,1.029.773.773,0,0,1-.651.3.707.707,0,0,1-.61-.27,1.516,1.516,0,0,1-.233-.921Zm2.068,1.124,1.205-3.961h.446l1.283,3.961h-.475l-.365-1.2h-1.31l-.345,1.2Zm.905-1.627h1.061l-.326-1.1q-.151-.5-.222-.822a5.915,5.915,0,0,1-.17.757l-.344,1.161Zm3.338,1.627v-3.961H132.4a1.839,1.839,0,0,1,.615.076.836.836,0,0,1,.433.381,1.34,1.34,0,0,1,.161.683,1.375,1.375,0,0,1-.264.873,1.089,1.089,0,0,1-.91.337h-.8v1.61Zm.415-2.077h.811a.762.762,0,0,0,.561-.18.741.741,0,0,0,.177-.541.87.87,0,0,0-.087-.4.51.51,0,0,0-.212-.23,1.106,1.106,0,0,0-.447-.062h-.8v1.416Zm2.389.148a2.466,2.466,0,0,1,.43-1.557,1.319,1.319,0,0,1,1.073-.544,1.273,1.273,0,0,1,.756.243,1.622,1.622,0,0,1,.542.706,2.784,2.784,0,0,1,.2,1.1,2.457,2.457,0,0,1-.385,1.435,1.315,1.315,0,0,1-2.23-.016,2.394,2.394,0,0,1-.384-1.371Zm.428.008a1.819,1.819,0,0,0,.312,1.136.918.918,0,0,0,1.523,0,1.97,1.97,0,0,0,.309-1.2,2.473,2.473,0,0,0-.159-.913,1.12,1.12,0,0,0-.37-.493.876.876,0,0,0-.539-.185.928.928,0,0,0-.773.406,2.09,2.09,0,0,0-.3,1.253Zm3.1,1.921v-3.961h1.181a1.838,1.838,0,0,1,.615.076.836.836,0,0,1,.434.381,1.34,1.34,0,0,1,.161.683,1.375,1.375,0,0,1-.263.873,1.09,1.09,0,0,1-.91.337h-.8v1.61Zm.415-2.077h.811a.761.761,0,0,0,.561-.18.741.741,0,0,0,.177-.541.87.87,0,0,0-.087-.4.508.508,0,0,0-.212-.23,1.107,1.107,0,0,0-.447-.062h-.8v1.416Zm4.554-1.883h.417v2.289a3.416,3.416,0,0,1-.108.943,1.088,1.088,0,0,1-.394.583,1.179,1.179,0,0,1-.726.213,1.122,1.122,0,0,1-.93-.384,2.221,2.221,0,0,1-.309-1.355v-2.289h.415v2.286a2.649,2.649,0,0,0,.081.777.689.689,0,0,0,.264.366.773.773,0,0,0,.447.126.761.761,0,0,0,.644-.26,1.777,1.777,0,0,0,.2-1.01v-2.286Zm1.088,3.961v-3.961h.414v3.493h1.545v.468Zm2.117,0,1.205-3.961h.446l1.283,3.961h-.475l-.365-1.2h-1.31l-.345,1.2Zm.905-1.627h1.061l-.326-1.1q-.151-.5-.222-.822a5.874,5.874,0,0,1-.17.757l-.344,1.161Zm2.358,1.627v-3.961h1.39a1.426,1.426,0,0,1,.644.111.836.836,0,0,1,.34.369,1.286,1.286,0,0,1,.133.6,1.118,1.118,0,0,1-.225.727,1.043,1.043,0,0,1-.656.354,1.071,1.071,0,0,1,.266.218,2.76,2.76,0,0,1,.326.505l.548,1.078h-.522l-.417-.825a5.154,5.154,0,0,0-.367-.651.578.578,0,0,0-.564-.283h-.48v1.758Zm.415-2.212h.892a1.058,1.058,0,0,0,.443-.073.536.536,0,0,0,.24-.23.72.72,0,0,0,.089-.364.641.641,0,0,0-.17-.471.676.676,0,0,0-.5-.172H149.4Z" transform="translate(-0.821 -188.248)"/><path class="d" d="M219.283,85.7s1.887,17.269-9.536,26.648c0,0,8.061-4.377,13.588-4.831,0,0,2.39-4.623,3.818-13.977C227.153,93.535,226.273,90.84,219.283,85.7Z" transform="translate(-72.861 -27.576)"/><path class="e" d="M253.208,71.786s.6,25.462-12.523,35.189c0,0,22.433-11.8,21.048-3.6C261.733,103.373,277.894,90.54,253.208,71.786Z" transform="translate(-97.399 -16.543)"/><path class="d" d="M316.366,213.374c.406-2.4-1.234-3.086-3.754-2.854.367,1.647.007,3.936-3.044,6.359a21.855,21.855,0,0,0,6.844-3.543Z" transform="translate(-152.032 -126.544)"/><path class="c" d="M196.345,95.08c-12.055,0-21.828-9.486-21.828-21.187s9.773-21.187,21.828-21.187a22.172,22.172,0,0,1,12.8,4.022,22.88,22.88,0,1,0-.909,34.936A22.2,22.2,0,0,1,196.345,95.08Z" transform="translate(-42.267)"/></g></g></svg>