<svg xmlns="http://www.w3.org/2000/svg" width="107" height="107" viewBox="0 0 107 107"><defs><style>.a,.c{fill:#fff;}.a{stroke:#707070;stroke-width:0.5px;}.b{fill:#ef9300;}.b,.c,.d{fill-rule:evenodd;}.d{fill:#d9000d;}.e{stroke:none;}.f{fill:none;}</style></defs><g transform="translate(-681 -795)"><g class="a" transform="translate(681 795)"><rect class="e" width="107" height="107"/><rect class="f" x="0.25" y="0.25" width="106.5" height="106.5"/></g><g transform="translate(481.496 476.123)"><path class="b" d="M217.5,358.107a2.236,2.236,0,0,1,2.229-2.23h67.14a2.236,2.236,0,0,1,2.23,2.23v28.541a2.236,2.236,0,0,1-2.23,2.23h-67.14a2.236,2.236,0,0,1-2.229-2.23V358.107Z" transform="translate(0)"/><path class="c" d="M217.5,363.83h71.6v26.52H217.5V363.83Z" transform="translate(0 -4.713)"/><path class="d" d="M357.8,380.736a5.946,5.946,0,1,0,5.946,5.947,5.957,5.957,0,0,0-5.946-5.947Z" transform="translate(-79.614 -14.732)"/><path class="d" d="M237.494,380.736a5.946,5.946,0,1,0,5.946,5.947,5.957,5.957,0,0,0-5.946-5.947Z" transform="translate(-8.322 -14.732)"/><path class="d" d="M277.716,367.886c-5.5-.127-8.092,3.4-11.848,7.756l-3.543,4.106,5.61,6.716a1.788,1.788,0,1,1-2.8,2.224l-5.187-6.188-5.055,5.86a1.788,1.788,0,1,1-2.767-2.263l5.487-6.381-3.595-4.288,2.312-2.864,3.656,4.392,3.152-3.666c1.546-1.8,3.123-4.179,5.167-5.4H217.5V391.1h11.878c5.505,0,8-3.292,11.658-7.73l3.448-4.188-5.765-6.585a1.788,1.788,0,1,1,2.746-2.287l5.328,6.067,4.92-5.975a1.788,1.788,0,1,1,2.817,2.2l-5.339,6.507,3.693,4.2-2.327,2.756-3.676-4.146-3.066,3.737c-1.5,1.833-3.028,4.17-5.044,5.442H289.1V367.886Zm-39.15,11.18a9.394,9.394,0,1,1-9.393-9.4,9.411,9.411,0,0,1,9.393,9.4Zm39.617,9.394a9.395,9.395,0,1,1,9.394-9.394,9.412,9.412,0,0,1-9.394,9.394Z" transform="translate(0 -7.115)"/></g></g></svg>