<?xml version="1.0" encoding="utf-8"?>
<!-- Generator: Adobe Illustrator 25.2.0, SVG Export Plug-In . SVG Version: 6.00 Build 0)  -->
<svg version="1.1" id="Capa_1" xmlns="http://www.w3.org/2000/svg" xmlns:xlink="http://www.w3.org/1999/xlink" x="0px" y="0px"
	 viewBox="0 0 75 75" style="enable-background:new 0 0 75 75;" xml:space="preserve">
<style type="text/css">
	.st0{fill:#1A80C3;}
	.st1{fill-rule:evenodd;clip-rule:evenodd;fill:#FFFFFF;}
	.st2{fill-rule:evenodd;clip-rule:evenodd;fill:#FBBC1C;}
</style>
<g>
	<path class="st0" d="M71.6,49H3.3c-1.5,0-2.7-1.2-2.7-2.7V28.7c0-1.5,1.2-2.7,2.7-2.7h68.3c1.2,0,2.7,1.2,2.7,2.7v17.7
		C74.3,47.8,73.1,49,71.6,49"/>
	<path class="st1" d="M42.1,39.2c0,0.1,0,0.3,0,0.4c-0.1,0.5-0.6,0.9-1.3,0.9c-0.5,0-0.9-0.3-0.9-0.9c0-0.9,1-1.2,2.2-1.2V39.2z
		 M44,37.5c0-1.6-0.7-2.9-2.9-2.9c-1.2,0-2.1,0.3-2.6,0.6l0.4,1.3c0.5-0.3,1.2-0.5,1.9-0.5c1.1,0,1.3,0.6,1.3,1.1v0.1
		c-2.5,0-4.1,0.9-4.1,2.6c0,1.1,0.8,2.1,2.2,2.1c0.9,0,1.6-0.3,2-0.9h0c0,0,0.3,1.2,1.9,0.7C44,41.1,44,40.6,44,40V37.5z"/>
	<path class="st1" d="M5.1,32.5c0,0,1.6,6.7,1.9,7.8c0.3,1.3,0.9,1.7,2.4,1.4l1-4.1c0.3-1,0.4-1.8,0.6-2.8h0
		c0.1,1.1,0.3,1.8,0.5,2.8c0,0,0.4,1.9,0.6,2.9c0.2,1,0.8,1.6,2.3,1.3l2.4-9.2h-2l-0.8,4c-0.2,1.2-0.4,2.1-0.6,3.1h0
		c-0.1-1-0.3-1.9-0.5-3l-0.9-4h-2l-0.9,3.9c-0.3,1.2-0.5,2.2-0.7,3.2h0c-0.2-1-0.4-2.2-0.6-3.3c0,0-0.5-2.8-0.7-3.8H5.1z"/>
	<path class="st1" d="M20.7,39.2c0,0.1,0,0.3,0,0.4c-0.1,0.5-0.6,0.9-1.3,0.9c-0.5,0-0.9-0.3-0.9-0.9c0-0.9,1-1.2,2.2-1.2V39.2z
		 M22.6,37.5c0-1.6-0.7-2.9-2.9-2.9c-1.2,0-2.1,0.3-2.6,0.6l0.4,1.3c0.5-0.3,1.2-0.5,1.9-0.5c1.1,0,1.3,0.6,1.3,1.1v0.1
		c-2.5,0-4.1,0.9-4.1,2.6c0,1.1,0.8,2.1,2.2,2.1c0.9,0,1.6-0.3,2-0.9h0c0,0,0.3,1.2,1.9,0.7c-0.1-0.5-0.1-1-0.1-1.7V37.5z"/>
	<polygon class="st1" points="25.7,39.7 25.7,32.5 23.8,32.5 23.8,41.6 25.7,41.6 	"/>
	<path class="st1" d="M50,32.5v6.8c0,0.9,0.2,1.6,0.6,2c0.3,0.3,0.9,0.6,1.5,0.6c0.6,0,1.1-0.1,1.3-0.2l0-1.5
		c-0.2,0-0.4,0.1-0.7,0.1c-0.6,0-0.8-0.4-0.8-1.2v-2.6h1.6v-1.8h-1.6v-2.2H50z"/>
	<path class="st1" d="M45.2,34.7v6.9h1.9v-3.5c0-0.2,0-0.4,0-0.5c0.1-0.7,0.7-1.2,1.5-1.2c0.2,0,0.4,0,0.6,0v-1.8
		c-0.1,0-0.2,0-0.4,0c-0.7,0-1.5,0.5-1.9,1.5h-0.1v-1.3H45.2z"/>
	<path class="st1" d="M27,34.7v6.9h1.9v-4c0-0.2,0-0.4,0.1-0.6c0.2-0.4,0.5-0.9,1.1-0.9c0.8,0,1.1,0.6,1.1,1.6v3.9H33v-4.1
		c0-0.2,0-0.4,0.1-0.6c0.2-0.5,0.6-0.8,1.1-0.8c0.8,0,1.1,0.6,1.1,1.7v3.8h1.9v-4.1c0-2.1-1.1-3-2.3-3c-0.5,0-1,0.1-1.4,0.4
		c-0.3,0.2-0.6,0.5-0.9,0.9h0c-0.3-0.7-1-1.2-1.9-1.2c-1.2,0-1.7,0.6-2,1.1h0v-0.9H27z"/>
	<path class="st2" d="M64,34.8c0.3,0,0.6-0.2,0.7-0.4l0.3-3.8c0-0.4-0.4-0.7-1-0.7c-0.6,0-1,0.3-1,0.7l0.3,3.8
		C63.3,34.7,63.6,34.8,64,34.8L64,34.8z"/>
	<path class="st2" d="M61.9,36c0.2-0.3,0.2-0.6,0-0.8l-3.1-2.2c-0.3-0.2-0.8,0-1.1,0.5c-0.3,0.5-0.2,1,0.1,1.2l3.4,1.6
		C61.4,36.5,61.7,36.3,61.9,36L61.9,36z"/>
	<path class="st2" d="M66,36c0.2,0.3,0.5,0.4,0.7,0.4l3.5-1.6c0.3-0.2,0.4-0.7,0.1-1.2c-0.3-0.5-0.8-0.7-1.1-0.5L66,35.2
		C65.8,35.4,65.8,35.7,66,36L66,36z"/>
	<path class="st2" d="M64,39.6c0.3,0,0.6,0.2,0.7,0.4l0.3,3.8c0,0.4-0.4,0.7-1,0.7c-0.6,0-1-0.3-1-0.7l0.3-3.8
		C63.3,39.7,63.6,39.6,64,39.6L64,39.6z"/>
	<path class="st2" d="M66,38.4c0.2-0.3,0.5-0.4,0.7-0.4l3.5,1.6c0.3,0.2,0.4,0.7,0.1,1.2c-0.3,0.5-0.8,0.7-1.1,0.5L66,39.2
		C65.8,39,65.8,38.7,66,38.4L66,38.4z"/>
	<path class="st2" d="M61.9,38.4c0.2,0.3,0.2,0.6,0,0.8l-3.1,2.2c-0.3,0.2-0.8,0-1.1-0.5c-0.3-0.5-0.2-1,0.1-1.2l3.4-1.6
		C61.4,37.9,61.7,38.1,61.9,38.4L61.9,38.4z"/>
</g>
</svg>
