<svg xmlns="http://www.w3.org/2000/svg" xmlns:xlink="http://www.w3.org/1999/xlink" width="68.681" height="41.067" viewBox="0 0 68.681 41.067">
  <defs>
    <clipPath id="clip-path">
      <rect id="Rect치ngulo_10197" data-name="Rect치ngulo 10197" width="43.362" height="26.994" fill="none"/>
    </clipPath>
  </defs>
  <g id="Grupo_20618" data-name="Grupo 20618" transform="translate(-853.177 -1681)">
    <rect id="Rect치ngulo_9942" data-name="Rect치ngulo 9942" width="68.681" height="41.067" rx="3" transform="translate(853.177 1681)" fill="#0064ff"/>
    <g id="paramount_Blanco" data-name="paramount + Blanco" transform="translate(865.922 1688.081)">
      <g id="paramount_Blanco-2" data-name="paramount + Blanco" transform="translate(0 0)" clip-path="url(#clip-path)">
        <path id="Trazado_25772" data-name="Trazado 25772" d="M362.726,246.05c-.1-.043-.281-.243.01-.786l.676-1.414c.019-.043-.029-.1-.062-.062l-.59.6a10.223,10.223,0,0,0-.848,1.262l-.714,1.19a.1.1,0,0,1,.086.143l-.657,1.1c-.162.271.129.467.167.4,1.028-1.662,1.628-1.528,1.628-1.528l.343-.8a.081.081,0,0,0-.043-.11" transform="translate(-343.409 -232.171)" fill="#fff"/>
        <path id="Trazado_25773" data-name="Trazado 25773" d="M241.47,0a10.671,10.671,0,0,0-8.585,17.008,2.226,2.226,0,0,0,.876-.7l1.985-2.543a.4.4,0,0,1,.157-.124l.3-.129,3.266-4.142.476-.371.971-1.357a.4.4,0,0,1,.09-.09l.424-.309a.3.3,0,0,1,.352,0l.514.362a2.024,2.024,0,0,1,.652.752l2.066,3.628a.324.324,0,0,0,.162.157,2.834,2.834,0,0,1,1.181.814c.248.267,1.328,1.481,2.847,3.362a2.152,2.152,0,0,0,.857.7A10.672,10.672,0,0,0,241.47,0m-7.794,11.261-.69-.224-.429.59V10.9l-.69-.224.69-.224V9.718l.429.59.69-.224-.429.59Zm-.162,2.381-.224.69-.224-.69h-.728l.59-.429-.229-.69.59.429.59-.429-.224.69.59.429Zm.138-5.509.224.69-.59-.429-.59.429.224-.69-.59-.429h.729l.224-.69.224.69h.729Zm1.167-1.566-.429-.59-.69.224.429-.59-.429-.59.69.224.429-.59V5.38l.69.224-.69.224Zm1.819-2.547-.224.7-.224-.7h-.729l.59-.429-.224-.69.59.429.59-.429-.224.69.59.429Zm2.29-1.167-.429.59V2.714l-.69-.224.69-.224V1.538l.429.59.69-.224-.429.59.429.59Zm2.9-.667.224.69-.59-.429-.59.429.224-.69-.59-.429h.728l.224-.69.224.69h.728Zm2.609.529v.728l-.429-.59-.69.224.429-.59-.429-.59.69.224.429-.59v.738l.69.224Zm4.823,7.371.69.224.429-.59v.728l.69.224-.69.224v.728l-.429-.59-.69.224.429-.59Zm-2.738-5.371-.224-.69h-.728l.59-.429-.224-.69.59.429.59-.429-.224.69.59.429h-.733Zm1.6,1.852V5.837l-.69-.224.69-.224V4.661l.429.59.69-.224-.429.59.429.59-.69-.224Zm1.3,1.138.224-.69.224.69h.728l-.59.429.224.69-.59-.429-.59.429.224-.69-.59-.429Zm.448,5.937-.219.69-.224-.69H248.7l.59-.429-.229-.69.59.429.59-.429-.224.69.59.429Z" transform="translate(-219.81)" fill="#fff"/>
        <path id="Trazado_25774" data-name="Trazado 25774" d="M421.909,175.318a.684.684,0,0,0-.024-.657l-.471-1.271c-.067-.162.076-.262.171-.152a14.11,14.11,0,0,1,1.124,1.457l.438.729c.381.024,1.424.052,2.428.052a2.874,2.874,0,0,1-.281-.324c-1.714-2.128-2.8-3.314-2.814-3.323a1.922,1.922,0,0,0-.776-.571l-.124-.057v.324a.039.039,0,0,1-.076.019l-2.524-4.433V167.1a1.419,1.419,0,0,0-.452-.524l-.248-.171-1.2,2.776a.262.262,0,0,1,.238.362l-1.114,2.571h1.019a3.033,3.033,0,0,1,1.152.229l.271.11a8.5,8.5,0,0,0-.814,2.552,1.823,1.823,0,0,0,.067.471h1.871l-.081-.519a20.01,20.01,0,0,0,2.224.367" transform="translate(-396.383 -158.477)" fill="#fff"/>
        <path id="Trazado_25775" data-name="Trazado 25775" d="M11.073,359.547c0-1.719-1.824-2.547-3.985-2.547-2.314,0-4.442,1.028-5.218,2.619a3.014,3.014,0,0,0-.329,1.367,2.057,2.057,0,0,0,.329,1.162,2.038,2.038,0,0,0,1.8.8c1.076,0,1.924-.59,1.924-1.614a.281.281,0,0,0-.319-.286c-.333,0-.343.19-.333.286a1.269,1.269,0,0,1-1.29,1.447c-.957,0-1.352-.809-1.352-1.681a3.8,3.8,0,0,1,2.728-3.462,5.557,5.557,0,0,1,2.038-.357c1.576,0,2.866.6,2.866,2.228a2.7,2.7,0,0,1-2.5,2.609l.057-.181a9.966,9.966,0,0,1,1.176-2.89,2.217,2.217,0,0,1,.152-.2l-.081-.1a3.3,3.3,0,0,0-.343.238c-2.609,2.038-2.69,7.766-6.166,7.766a2.7,2.7,0,0,1-.357-.024,1.216,1.216,0,0,1-1.1-1.281c0-.133.048-.319.048-.424a.348.348,0,0,0-.343-.357H.437c-.309,0-.438.248-.448.6-.024,1.009.724,1.6,1.876,1.709.129.01.252.014.39.014,2.714,0,4.376-2.052,5.085-4.542a5.969,5.969,0,0,0,1.057-.224c1.257-.352,2.676-1.2,2.676-2.681" transform="translate(0.011 -340.002)" fill="#fff"/>
        <path id="Trazado_25776" data-name="Trazado 25776" d="M209.306,423.1h-.952l-.219.5-.376.843h-.448l-.133.286h.462l-.552,1.233c-.4.867-1.019,1.719-1.376,1.719-.081,0-.129-.033-.129-.11a1.131,1.131,0,0,1,.11-.376c.086-.224.3-.643.429-.924a4.536,4.536,0,0,0,.519-1.343.537.537,0,0,0-.59-.557,1.832,1.832,0,0,0-1.2.643l.238-.571h-.9l-.733,1.671c-.3.59-.89,1.566-1.267,1.566-.081,0-.109-.048-.109-.129a.671.671,0,0,1,.057-.2l.471-1.1.79-1.819h-.971l-.771,1.771c-.238.548-.843,1.481-1.233,1.481a.124.124,0,0,1-.133-.11v-.033a1.329,1.329,0,0,1,.129-.4l.4-.89.833-1.819H200.7l-.19.414a.934.934,0,0,1-.762.6.321.321,0,0,1-.309-.143.949.949,0,0,0-1.019-.938,2.058,2.058,0,0,0-1.733,1.043,5.332,5.332,0,0,0-.571,1.267c-.343.567-.7,1-.986,1-.071,0-.119-.038-.119-.133a1.566,1.566,0,0,1,.129-.39l.619-1.347a2.62,2.62,0,0,0,.3-.957.491.491,0,0,0-.524-.5,1.915,1.915,0,0,0-1.338.69.911.911,0,0,0,.014-.2.429.429,0,0,0-.486-.486,1.731,1.731,0,0,0-1.233.69l.252-.619h-.871l-.738,1.671c-.352.786-.914,1.566-1.233,1.566-.071,0-.119-.038-.119-.133a4.191,4.191,0,0,1,.229-.676l.981-2.219c.071-.167-.4-.271-1-.271a2.843,2.843,0,0,0-1.7.69,1.54,1.54,0,0,1-.686.4c-.119,0-.086-.033-.086-.071,0-.133.329-.519.329-.809,0-.133-.071-.224-.257-.224a1.724,1.724,0,0,0-1.067.686l.252-.614h-.857l-.738,1.671c-.352.786-.933,1.609-1.247,1.609-.071,0-.119-.038-.119-.133a3.443,3.443,0,0,1,.248-.709l.981-2.228c.071-.167-.4-.271-1-.271a2.941,2.941,0,0,0-2.195,1.209,3.886,3.886,0,0,0-.852,1.933.652.652,0,0,0,.709.748,1.789,1.789,0,0,0,1.209-.738,1.581,1.581,0,0,0-.033.19c0,.319.129.548.519.548a1.653,1.653,0,0,0,1.162-.738l-.3.676h.928l.914-2.076c.3-.676.643-1.028.738-1.028s.048.014.048.038a1.425,1.425,0,0,0-.143.438c0,.176.1.309.352.309a1.044,1.044,0,0,0,.619-.224,3.428,3.428,0,0,0-.786,1.852.652.652,0,0,0,.709.748,1.884,1.884,0,0,0,1.224-.8,1.945,1.945,0,0,0-.014.224.52.52,0,0,0,.533.571c.357,0,.714-.248,1.114-.733l-.3.667h.957l.876-1.981c.381-.857.9-1.319,1.152-1.319a.114.114,0,0,1,.129.1v.024a.857.857,0,0,1-.081.276l-1.257,2.9h.981l.89-2.019c.381-.867.8-1.29,1.124-1.29.1,0,.133.048.133.152a.867.867,0,0,1-.086.319l-.862,1.828a1.7,1.7,0,0,0-.143.557c0,.281.152.524.581.524.557,0,.981-.424,1.457-1.052v.133a.946.946,0,0,0,1.057.938,2.284,2.284,0,0,0,2.014-1.566,3.394,3.394,0,0,0,.309-1.076.6.6,0,0,0,.309.062.838.838,0,0,0,.414-.1l-.152.329c-.176.367-.367.771-.519,1.114a1.794,1.794,0,0,0-.167.643.538.538,0,0,0,.581.59,1.956,1.956,0,0,0,1.3-.886h.01a1.466,1.466,0,0,0-.038.329c0,.286.086.557.486.557a1.754,1.754,0,0,0,1.171-.757l-.3.667h.962l.771-1.752c.438-.986.876-1.586,1.281-1.586a.133.133,0,0,1,.133.119v.024a5.091,5.091,0,0,1-.452,1.076c-.214.457-.352.733-.452.981a1.87,1.87,0,0,0-.167.662.493.493,0,0,0,.543.533,2.124,2.124,0,0,0,1.424-.948,1.981,1.981,0,0,0-.11.6.755.755,0,0,0,.8.838,1.49,1.49,0,0,0,.867-.286,3.971,3.971,0,0,0,.909-.986l-.167-.157a3.553,3.553,0,0,1-.748.829.809.809,0,0,1-.5.19c-.2,0-.329-.1-.329-.357a3.274,3.274,0,0,1,.3-1.057c.01-.01.271-.6.519-1.162.2-.476.414-.938.452-1.033h.628l.129-.286h-.619Zm-27.14,4.59c-.133,0-.229-.048-.229-.224a4.388,4.388,0,0,1,.886-1.971,1.7,1.7,0,0,1,1.267-.8l-.6,1.352c-.452,1.019-.948,1.647-1.314,1.647m5.952,0a.206.206,0,0,1-.238-.224,4.388,4.388,0,0,1,.886-1.971,1.7,1.7,0,0,1,1.267-.8l-.614,1.352c-.462,1.043-.928,1.647-1.3,1.647m10.566-2.633a6.307,6.307,0,0,1-1.009,2.514c-.214.3-.4.39-.557.39s-.286-.181-.252-.452a6.1,6.1,0,0,1,.981-2.324c.248-.343.414-.486.6-.486s.248.157.238.357" transform="translate(-172.376 -402.955)" fill="#fff"/>
        <path id="Trazado_25777" data-name="Trazado 25777" d="M792.209,410.824l.876-2.024h-1.038l-.876,2.024h-2.2l-.367.848h2.2l-.876,2.024h1.038l.876-2.024h2.2l.367-.848Z" transform="translate(-751.052 -389.335)" fill="#fff"/>
      </g>
    </g>
  </g>
</svg>
