<svg xmlns="http://www.w3.org/2000/svg" width="68.681" height="41.209" viewBox="0 0 68.681 41.209">
  <g id="Grupo_5" data-name="Grupo 5" transform="translate(-422 111)">
    <rect id="Rectángulo_18557" data-name="Rectángulo 18557" width="68.681" height="41.209" rx="3" transform="translate(422 -111)" fill="#1a98fc"/>
    <g id="AmazonPrime_LogoStacked_Rev_RGB" transform="translate(415.8 -116.9)">
      <g id="Grupo_3" data-name="Grupo 3" transform="translate(12.2 17.9)">
        <path id="Trazado_4" data-name="Trazado 4" d="M105.159,115.556a18.261,18.261,0,0,1-10.309,3.151,18.657,18.657,0,0,1-12.593-4.8c-.261-.236-.028-.558.286-.375a25.347,25.347,0,0,0,12.6,3.343,25.06,25.06,0,0,0,9.611-1.967c.47-.2.865.311.4.652Z" transform="translate(-75.393 -104.249)" fill="#fff" fill-rule="evenodd"/>
        <path id="Trazado_5" data-name="Trazado 5" d="M299.963,109.535c-.356-.457-2.357-.216-3.256-.109-.272.033-.315-.206-.069-.377,1.6-1.121,4.21-.8,4.514-.422s-.08,3-1.575,4.251c-.231.192-.449.09-.346-.164.337-.84,1.09-2.721.733-3.178Z" transform="translate(-269.038 -99.553)" fill="#fff" fill-rule="evenodd"/>
        <path id="Trazado_6" data-name="Trazado 6" d="M296.91,21.467v-1.09a.269.269,0,0,1,.276-.276h4.881a.272.272,0,0,1,.282.275v.934a1.533,1.533,0,0,1-.368.685l-2.529,3.61a5.407,5.407,0,0,1,2.784.6.5.5,0,0,1,.259.425V27.79c0,.16-.176.346-.36.249a5.623,5.623,0,0,0-5.157.01c-.17.091-.347-.093-.347-.253v-1.1a1.31,1.31,0,0,1,.181-.748l2.929-4.2h-2.55a.271.271,0,0,1-.281-.274Z" transform="translate(-269.177 -19.888)" fill="#fff" fill-rule="evenodd"/>
        <path id="Trazado_7" data-name="Trazado 7" d="M368.142,18.66c2.2,0,3.4,1.893,3.4,4.3,0,2.325-1.316,4.17-3.4,4.17-2.163,0-3.342-1.893-3.342-4.25,0-2.373,1.192-4.218,3.342-4.218Zm.013,1.556c-1.1,0-1.164,1.491-1.164,2.422s-.013,2.919,1.151,2.919,1.206-1.6,1.206-2.582a7.057,7.057,0,0,0-.222-2.021.927.927,0,0,0-.97-.737Z" transform="translate(-330.767 -18.587)" fill="#fff" fill-rule="evenodd"/>
        <path id="Trazado_8" data-name="Trazado 8" d="M218.256,22.641a2.906,2.906,0,0,1-.278,1.575,1.206,1.206,0,0,1-1.028.675c-.569,0-.9-.434-.9-1.077,0-1.264,1.135-1.494,2.208-1.494v.321Zm1.5,3.62a.319.319,0,0,1-.35.035,3.87,3.87,0,0,1-.851-.989,2.945,2.945,0,0,1-2.449,1.079,2.108,2.108,0,0,1-2.223-2.315,2.521,2.521,0,0,1,1.584-2.427,10.251,10.251,0,0,1,2.792-.514,2.618,2.618,0,0,0-.18-1.269,1.041,1.041,0,0,0-.833-.386,1.132,1.132,0,0,0-1.189.874c-.03.165-.152.3-.28.29l-1.422-.154a.262.262,0,0,1-.222-.311c.331-1.746,1.907-2.273,3.32-2.273a3.37,3.37,0,0,1,2.236.739c.722.675.652,1.575.652,2.556v2.313a2.031,2.031,0,0,0,.56,1.376.281.281,0,0,1,0,.395c-.3.254-1.141.983-1.141.983Z" transform="translate(-194.414 -17.9)" fill="#fff" fill-rule="evenodd"/>
        <path id="Trazado_9" data-name="Trazado 9" d="M16.575,22.641a2.915,2.915,0,0,1-.278,1.575,1.2,1.2,0,0,1-1.028.675c-.569,0-.9-.434-.9-1.077,0-1.264,1.135-1.494,2.208-1.494v.321Zm1.5,3.62a.319.319,0,0,1-.35.035,3.87,3.87,0,0,1-.851-.989,2.945,2.945,0,0,1-2.449,1.079A2.108,2.108,0,0,1,12.2,24.071a2.52,2.52,0,0,1,1.584-2.427,10.251,10.251,0,0,1,2.792-.514,2.63,2.63,0,0,0-.18-1.269,1.043,1.043,0,0,0-.834-.386,1.132,1.132,0,0,0-1.189.874c-.03.165-.152.3-.28.29l-1.422-.154a.262.262,0,0,1-.222-.311c.331-1.746,1.907-2.273,3.321-2.273a3.37,3.37,0,0,1,2.236.739c.722.675.652,1.575.652,2.556v2.313a2.03,2.03,0,0,0,.56,1.376.28.28,0,0,1,0,.395c-.3.254-1.141.983-1.141.983Z" transform="translate(-12.2 -17.9)" fill="#fff" fill-rule="evenodd"/>
        <path id="Trazado_10" data-name="Trazado 10" d="M98.968,22.662c0-.882-.042-2.1,1.026-2.1s.915,1.251.915,2.1l0,4.04a.28.28,0,0,0,.266.274h1.484a.281.281,0,0,0,.287-.274v-4.04a4.609,4.609,0,0,1,.139-1.459.985.985,0,0,1,.887-.625.775.775,0,0,1,.874.658,9.738,9.738,0,0,1,.042,1.428V26.7a.279.279,0,0,0,.266.274h1.483a.281.281,0,0,0,.287-.274v-4.81a4.048,4.048,0,0,0-.374-2.39,2.194,2.194,0,0,0-3.771.577,2.04,2.04,0,0,0-3.881,0h-.028v-.974a.277.277,0,0,0-.277-.277H97.207a.277.277,0,0,0-.277.277V26.7a.277.277,0,0,0,.277.277H98.69a.277.277,0,0,0,.277-.277V22.662Z" transform="translate(-88.752 -18.596)" fill="#fff" fill-rule="evenodd"/>
        <path id="Trazado_11" data-name="Trazado 11" d="M448.138,26.7a.277.277,0,0,1-.277.277h-1.484a.277.277,0,0,1-.277-.277V19.107a.277.277,0,0,1,.277-.277h1.371a.274.274,0,0,1,.278.217v1.162h.029a2.02,2.02,0,0,1,2.023-1.539,1.944,1.944,0,0,1,1.732.9,4.85,4.85,0,0,1,.388,2.373v4.8a.281.281,0,0,1-.285.239h-1.488a.281.281,0,0,1-.264-.239l0-4.6c0-1.54-.591-1.586-.931-1.586a1.015,1.015,0,0,0-.854.6,3.447,3.447,0,0,0-.24,1.455v4.1Z" transform="translate(-404.22 -18.596)" fill="#fff" fill-rule="evenodd"/>
      </g>
      <g id="Grupo_4" data-name="Grupo 4" transform="translate(46.12 27.139)">
        <path id="Trazado_12" data-name="Trazado 12" d="M365.761,137.242a.817.817,0,0,0,.721-.332,1.861,1.861,0,0,0,.232-1.048,1.91,1.91,0,0,0-.227-1.057.816.816,0,0,0-.725-.332,1.663,1.663,0,0,0-.856.235v2.3a1.6,1.6,0,0,0,.855.236Zm-1.913,2.664a.242.242,0,0,1-.166-.048.226.226,0,0,1-.052-.171V133.86a.228.228,0,0,1,.052-.171.24.24,0,0,1,.166-.048h.629a.225.225,0,0,1,.244.192l.061.227a1.923,1.923,0,0,1,.633-.4,2.008,2.008,0,0,1,.756-.149,1.621,1.621,0,0,1,1.341.621,2.62,2.62,0,0,1,.493,1.678,3.065,3.065,0,0,1-.244,1.266,1.978,1.978,0,0,1-.664.834,1.64,1.64,0,0,1-.96.292,2.023,2.023,0,0,1-.681-.114,1.632,1.632,0,0,1-.55-.315v1.913a.182.182,0,0,1-.219.219h-.838Z" transform="translate(-363.63 -131.59)" fill="#fff"/>
        <path id="Trazado_13" data-name="Trazado 13" d="M418.058,138.947a.188.188,0,0,1-.218-.218V134.7a.227.227,0,0,1,.052-.171.242.242,0,0,1,.166-.048h.629a.225.225,0,0,1,.244.192l.114.472a2.51,2.51,0,0,1,.659-.546,1.4,1.4,0,0,1,.659-.161h.123a.257.257,0,0,1,.175.048.225.225,0,0,1,.052.17v.734a.242.242,0,0,1-.048.166.226.226,0,0,1-.171.052c-.04,0-.093,0-.157-.009s-.146-.009-.244-.009a2.618,2.618,0,0,0-.489.057,2.417,2.417,0,0,0-.489.144v2.935a.242.242,0,0,1-.048.166.226.226,0,0,1-.171.052h-.837Z" transform="translate(-412.608 -132.43)" fill="#fff"/>
        <path id="Trazado_14" data-name="Trazado 14" d="M453.324,120.137a.188.188,0,0,1-.218-.218v-4.027a.227.227,0,0,1,.052-.171.242.242,0,0,1,.166-.048h.839a.182.182,0,0,1,.218.219v4.027a.242.242,0,0,1-.048.166.225.225,0,0,1-.17.052Zm.42-5.154a.759.759,0,0,1-.533-.183.718.718,0,0,1,0-1,.866.866,0,0,1,1.066,0,.718.718,0,0,1,0,1,.763.763,0,0,1-.533.183Z" transform="translate(-444.383 -113.62)" fill="#fff"/>
        <path id="Trazado_15" data-name="Trazado 15" d="M478.638,138.125a.188.188,0,0,1-.218-.218V133.88a.227.227,0,0,1,.052-.171.242.242,0,0,1,.166-.048h.629a.225.225,0,0,1,.244.192l.07.236a3.808,3.808,0,0,1,.834-.432,2.36,2.36,0,0,1,.764-.126,1.174,1.174,0,0,1,1.109.559,3.557,3.557,0,0,1,.839-.428,2.541,2.541,0,0,1,.813-.131,1.273,1.273,0,0,1,.948.341,1.3,1.3,0,0,1,.336.952v3.084a.242.242,0,0,1-.048.166.226.226,0,0,1-.171.052h-.839a.188.188,0,0,1-.218-.218v-2.8q0-.594-.533-.594a2.214,2.214,0,0,0-.953.227v3.171a.242.242,0,0,1-.048.166.226.226,0,0,1-.171.052H481.4a.188.188,0,0,1-.218-.218v-2.8q0-.594-.533-.594a2.127,2.127,0,0,0-.961.236v3.162a.242.242,0,0,1-.048.166.226.226,0,0,1-.171.052h-.835Z" transform="translate(-467.341 -131.608)" fill="#fff"/>
        <path id="Trazado_16" data-name="Trazado 16" d="M559.026,135.513a1.193,1.193,0,0,0,.647-.135.466.466,0,0,0,.2-.415q0-.55-.655-.55-.838,0-.97,1.031a4,4,0,0,0,.778.069Zm.289,2.743a2.223,2.223,0,0,1-1.664-.594,2.338,2.338,0,0,1-.581-1.7,2.534,2.534,0,0,1,.594-1.782,2.133,2.133,0,0,1,1.651-.647,1.9,1.9,0,0,1,1.271.393,1.312,1.312,0,0,1,.458,1.048,1.122,1.122,0,0,1-.493.991,2.591,2.591,0,0,1-1.455.336,3.408,3.408,0,0,1-.865-.1,1.184,1.184,0,0,0,.354.839,1.393,1.393,0,0,0,.913.254,3.49,3.49,0,0,0,.476-.031,5.973,5.973,0,0,0,.642-.135.51.51,0,0,1,.052-.014.283.283,0,0,1,.044,0c.1,0,.149.067.149.2v.4a.364.364,0,0,1-.04.2.323.323,0,0,1-.153.1,3.714,3.714,0,0,1-1.354.246Z" transform="translate(-538.399 -131.608)" fill="#fff"/>
      </g>
    </g>
  </g>
</svg>
