<svg xmlns="http://www.w3.org/2000/svg" width="172.052" height="33.338" viewBox="0 0 172.052 33.338"><defs><style>.a{fill:#0096d6;}.b{fill:#002552;fill-rule:evenodd;}</style></defs><g transform="translate(12.462)"><g transform="translate(82.729)"><path class="a" d="M199.585,32.356a.822.822,0,0,1-.564-.163.766.766,0,0,1-.178-.578V11.842a.766.766,0,0,1,.178-.578.817.817,0,0,1,.564-.163h2.131a.767.767,0,0,1,.83.652l.208.77a6.571,6.571,0,0,1,2.15-1.364,6.851,6.851,0,0,1,2.564-.5,5.509,5.509,0,0,1,4.551,2.105,8.887,8.887,0,0,1,1.676,5.692,10.356,10.356,0,0,1-.83,4.3,6.722,6.722,0,0,1-2.253,2.83,5.55,5.55,0,0,1-3.261.993,6.948,6.948,0,0,1-2.313-.386,5.563,5.563,0,0,1-1.867-1.065v6.492a.615.615,0,0,1-.746.746Zm6.492-9.042a2.774,2.774,0,0,0,2.45-1.126,6.323,6.323,0,0,0,.786-3.557,6.491,6.491,0,0,0-.771-3.588,2.772,2.772,0,0,0-2.461-1.126,5.647,5.647,0,0,0-2.9.8v7.8A5.451,5.451,0,0,0,206.077,23.314Z" transform="translate(-198.839 -4.133)"/><path class="a" d="M216.251,26.232a.639.639,0,0,1-.746-.511.619.619,0,0,1,0-.234V11.824a.766.766,0,0,1,.178-.578.817.817,0,0,1,.564-.163h2.131a.767.767,0,0,1,.83.652l.386,1.6a8.491,8.491,0,0,1,2.237-1.853,4.788,4.788,0,0,1,2.237-.549h.423a.869.869,0,0,1,.593.163.759.759,0,0,1,.177.577v2.491a.817.817,0,0,1-.163.564.762.762,0,0,1-.578.178c-.138,0-.316-.01-.533-.03s-.493-.03-.83-.029a8.869,8.869,0,0,0-1.66.193,8.21,8.21,0,0,0-1.661.489v9.96a.817.817,0,0,1-.163.564.766.766,0,0,1-.578.178Z" transform="translate(-197.752 -4.115)"/><path class="a" d="M228.813,9.157A2.576,2.576,0,0,1,227,8.535a2.175,2.175,0,0,1-.682-1.69A2.171,2.171,0,0,1,227,5.155a2.938,2.938,0,0,1,3.617,0,2.176,2.176,0,0,1,.682,1.69,2.176,2.176,0,0,1-.682,1.69A2.578,2.578,0,0,1,228.813,9.157Zm-1.421,17.491a.639.639,0,0,1-.746-.511.618.618,0,0,1,0-.234V12.241a.762.762,0,0,1,.178-.578.817.817,0,0,1,.564-.163h2.846a.807.807,0,0,1,.577.163.812.812,0,0,1,.164.578V25.907a.817.817,0,0,1-.164.564.759.759,0,0,1-.577.178Z" transform="translate(-197.045 -4.533)"/><path class="a" d="M234.88,26.249a.639.639,0,0,1-.746-.511.619.619,0,0,1,0-.234V11.842a.766.766,0,0,1,.178-.578.817.817,0,0,1,.564-.163h2.131a.766.766,0,0,1,.83.652l.238.8a12.778,12.778,0,0,1,2.832-1.467,7.987,7.987,0,0,1,2.594-.426,3.986,3.986,0,0,1,3.765,1.9,12.165,12.165,0,0,1,2.846-1.453,8.657,8.657,0,0,1,2.757-.445,4.315,4.315,0,0,1,3.216,1.157,4.4,4.4,0,0,1,1.142,3.231V25.512a.817.817,0,0,1-.163.564.762.762,0,0,1-.578.178h-2.845a.639.639,0,0,1-.746-.511.62.62,0,0,1,0-.234V15.992q0-2.015-1.811-2.016a7.521,7.521,0,0,0-3.231.77V25.506a.817.817,0,0,1-.163.564.762.762,0,0,1-.578.178h-2.846a.639.639,0,0,1-.746-.511.618.618,0,0,1,0-.234v-9.51q0-2.015-1.811-2.016a7.221,7.221,0,0,0-3.261.8V25.508a.817.817,0,0,1-.163.564.762.762,0,0,1-.578.178Z" transform="translate(-196.535 -4.134)"/><path class="a" d="M265.941,26.694a7.54,7.54,0,0,1-5.646-2.016,7.926,7.926,0,0,1-1.971-5.781,8.6,8.6,0,0,1,2.016-6.049,7.233,7.233,0,0,1,5.6-2.193,6.416,6.416,0,0,1,4.313,1.335,4.451,4.451,0,0,1,1.556,3.557,3.811,3.811,0,0,1-1.675,3.365,8.774,8.774,0,0,1-4.935,1.142,11.684,11.684,0,0,1-2.935-.326,4.023,4.023,0,0,0,1.2,2.846,4.728,4.728,0,0,0,3.1.86,12.241,12.241,0,0,0,1.616-.107,20.236,20.236,0,0,0,2.179-.459,1.277,1.277,0,0,1,.178-.045.983.983,0,0,1,.148-.015q.5,0,.5.682v1.365a1.228,1.228,0,0,1-.133.667,1.094,1.094,0,0,1-.519.341A12.722,12.722,0,0,1,265.941,26.694Zm-.978-9.308a4.025,4.025,0,0,0,2.193-.459,1.58,1.58,0,0,0,.682-1.408q0-1.868-2.223-1.867-2.846,0-3.291,3.5A13.451,13.451,0,0,0,264.963,17.385Z" transform="translate(-194.956 -4.134)"/></g><g transform="translate(0 22.767)"><path class="b" d="M163.606,30.609c-5.139,3.792-12.589,5.809-19,5.809a34.393,34.393,0,0,1-23.215-8.856c-.48-.435-.051-1.028.526-.691a46.719,46.719,0,0,0,23.223,6.163,46.2,46.2,0,0,0,17.717-3.622c.868-.369,1.6.572.746,1.2Z" transform="translate(-121.18 -25.848)"/><path class="b" d="M163.407,28.224c-.657-.842-4.344-.4-6-.2-.5.06-.58-.378-.127-.7,2.941-2.066,7.762-1.469,8.321-.778s-.148,5.53-2.9,7.836c-.426.355-.828.165-.639-.3.62-1.549,2.009-5.016,1.351-5.859Z" transform="translate(-118.843 -25.904)"/></g></g><g transform="translate(0 6.677)"><path class="b" d="M157.522,13.694V11.687a.5.5,0,0,1,.483-.508h9.024a.5.5,0,0,1,.519.483v1.745a2.841,2.841,0,0,1-.678,1.264l-4.662,6.654a9.979,9.979,0,0,1,5.133,1.1.916.916,0,0,1,.477.783v2.142c0,.3-.32.639-.663.458a10.359,10.359,0,0,0-9.507.018c-.313.166-.639-.17-.639-.467V23.328a2.42,2.42,0,0,1,.335-1.385l5.4-7.747h-4.7a.5.5,0,0,1-.52-.482v-.02Z" transform="translate(-106.38 -10.776)"/><path class="b" d="M174.574,13.8c-2.019,0-2.145,2.748-2.145,4.464s-.026,5.381,2.121,5.381c2.121,0,2.222-2.956,2.222-4.759a12.975,12.975,0,0,0-.409-3.729,1.712,1.712,0,0,0-1.789-1.36Zm-.025-2.868c4.062,0,6.26,3.489,6.26,7.923,0,4.287-2.427,7.687-6.26,7.687-3.986,0-6.158-3.49-6.158-7.835,0-4.375,2.2-7.777,6.158-7.777Z" transform="translate(-105.636 -10.792)"/><path class="b" d="M154.013,26.222a.584.584,0,0,1-.647.064,7.122,7.122,0,0,1-1.568-1.824,5.428,5.428,0,0,1-4.514,1.986,3.884,3.884,0,0,1-4.109-3.648,3.8,3.8,0,0,1,.012-.614,4.648,4.648,0,0,1,2.919-4.474,18.938,18.938,0,0,1,5.146-.948,4.841,4.841,0,0,0-.332-2.344,1.919,1.919,0,0,0-1.536-.712,2.083,2.083,0,0,0-2.191,1.611c-.055.3-.28.559-.517.533l-2.622-.284a.483.483,0,0,1-.414-.542l.005-.03c.609-3.218,3.515-4.191,6.121-4.191a6.212,6.212,0,0,1,4.123,1.363c1.332,1.244,1.2,2.9,1.2,4.712v4.261a3.733,3.733,0,0,0,1.032,2.536.517.517,0,0,1-.009.728c-.559.469-2.106,1.811-2.106,1.811Zm-2.76-6.674a5.367,5.367,0,0,1-.512,2.9,2.223,2.223,0,0,1-1.9,1.244c-1.049,0-1.664-.8-1.664-1.986,0-2.332,2.092-2.755,4.072-2.755Z" transform="translate(-107.283 -10.801)"/><path class="b" d="M120.327,26.222a.584.584,0,0,1-.647.064,7.106,7.106,0,0,1-1.569-1.824,5.434,5.434,0,0,1-4.513,1.986,3.884,3.884,0,0,1-4.109-3.648,3.806,3.806,0,0,1,.012-.614,4.648,4.648,0,0,1,2.919-4.474,18.938,18.938,0,0,1,5.146-.948,4.842,4.842,0,0,0-.332-2.344,1.919,1.919,0,0,0-1.536-.712,2.085,2.085,0,0,0-2.191,1.613c-.055.3-.28.559-.517.533l-2.621-.283a.483.483,0,0,1-.414-.542l.005-.03c.609-3.218,3.515-4.191,6.121-4.191a6.211,6.211,0,0,1,4.123,1.363c1.332,1.244,1.2,2.9,1.2,4.712v4.261a3.733,3.733,0,0,0,1.032,2.536.517.517,0,0,1-.009.728c-.559.469-2.106,1.811-2.106,1.811Zm-2.759-6.674a5.377,5.377,0,0,1-.512,2.9,2.223,2.223,0,0,1-1.9,1.244c-1.049,0-1.664-.8-1.664-1.986,0-2.332,2.092-2.755,4.072-2.755Z" transform="translate(-109.482 -10.801)"/><path class="b" d="M127.407,18.3c0-1.627-.077-3.872,1.891-3.872,1.942,0,1.686,2.305,1.686,3.872v7.447a.515.515,0,0,0,.492.5h2.734a.516.516,0,0,0,.533-.5V18.3A8.516,8.516,0,0,1,135,15.605a1.817,1.817,0,0,1,1.636-1.153,1.428,1.428,0,0,1,1.61,1.213,18.082,18.082,0,0,1,.077,2.631v7.447a.513.513,0,0,0,.491.5h2.734a.517.517,0,0,0,.533-.5V16.878c0-1.508.178-3.222-.69-4.4a4.048,4.048,0,0,0-6.95,1.065c-.767-1.774-1.84-2.6-3.552-2.6a3.611,3.611,0,0,0-3.6,2.6h-.051v-1.8a.511.511,0,0,0-.511-.511h-2.557a.511.511,0,0,0-.511.511V25.737a.511.511,0,0,0,.511.511H126.9a.511.511,0,0,0,.511-.511V18.3Z" transform="translate(-108.557 -10.792)"/><path class="b" d="M185.726,25.737a.511.511,0,0,1-.511.511h-2.734a.511.511,0,0,1-.511-.511V11.743a.511.511,0,0,1,.511-.511h2.525a.5.5,0,0,1,.511.4v2.142h.052c.767-1.918,1.839-2.838,3.729-2.838a3.59,3.59,0,0,1,3.2,1.655c.716,1.123.716,3.015.716,4.375v8.842a.519.519,0,0,1-.524.442h-2.744a.516.516,0,0,1-.487-.442V17.318c0-2.84-1.089-2.924-1.716-2.924a1.873,1.873,0,0,0-1.576,1.1,6.356,6.356,0,0,0-.444,2.681v7.564Z" transform="translate(-104.75 -10.792)"/></g></svg>