<svg id="Grupo_20799" data-name="Grupo 20799" xmlns="http://www.w3.org/2000/svg" width="100.579" height="29.366" viewBox="0 0 100.579 29.366">
  <g id="Grupo_20793" data-name="Grupo 20793" transform="translate(0)">
    <rect id="Rectángulo_18659" data-name="Rectángulo 18659" width="100.579" height="29.366" rx="4" fill="#030504"/>
    <path id="Trazado_43472" data-name="Trazado 43472" d="M1779.189,23.522a3.087,3.087,0,0,1,3.083,3.084V48.63a3.087,3.087,0,0,1-3.083,3.084h-93.237a3.087,3.087,0,0,1-3.084-3.084V26.606a3.087,3.087,0,0,1,3.084-3.084h93.237m0-.587h-93.237a3.682,3.682,0,0,0-3.671,3.671V48.63a3.682,3.682,0,0,0,3.671,3.671h93.237a3.682,3.682,0,0,0,3.671-3.671V26.606a3.682,3.682,0,0,0-3.671-3.671Z" transform="translate(-1682.281 -22.935)" fill="#969595"/>
  </g>
  <g id="Grupo_20798" data-name="Grupo 20798" transform="translate(5.506 4.33)">
    <g id="Grupo_20796" data-name="Grupo 20796" transform="translate(0 7.163)">
      <g id="Grupo_20794" data-name="Grupo 20794" transform="translate(0 1.491)">
        <path id="Trazado_43473" data-name="Trazado 43473" d="M1763.167,140.318a14.892,14.892,0,0,1-8.408,2.57,15.216,15.216,0,0,1-10.271-3.918c-.213-.192-.023-.455.233-.306A20.673,20.673,0,0,0,1755,141.391a20.447,20.447,0,0,0,7.839-1.6C1763.221,139.624,1763.543,140.04,1763.167,140.318Z" transform="translate(-1738.891 -131.096)" fill="#fff" fill-rule="evenodd"/>
        <path id="Trazado_43474" data-name="Trazado 43474" d="M1842.423,137.34c-.291-.372-1.922-.176-2.655-.089-.222.027-.257-.167-.056-.308a4.086,4.086,0,0,1,3.682-.344c.25.308-.065,2.447-1.285,3.467-.188.157-.366.073-.283-.134C1842.1,139.247,1842.714,137.712,1842.423,137.34Z" transform="translate(-1817.201 -129.198)" fill="#fff" fill-rule="evenodd"/>
        <path id="Trazado_43475" data-name="Trazado 43475" d="M1839.879,98.273v-.888a.22.22,0,0,1,.225-.225h3.981a.222.222,0,0,1,.229.224v.762a1.25,1.25,0,0,1-.3.559l-2.062,2.944a4.419,4.419,0,0,1,2.271.488.406.406,0,0,1,.211.347v.948c0,.13-.143.282-.293.2a4.584,4.584,0,0,0-4.206.008c-.138.074-.283-.075-.283-.206v-.9a1.074,1.074,0,0,1,.148-.61l2.389-3.428h-2.08A.222.222,0,0,1,1839.879,98.273Z" transform="translate(-1817.261 -96.986)" fill="#fff" fill-rule="evenodd"/>
        <path id="Trazado_43476" data-name="Trazado 43476" d="M1752.392,103.289h-1.211a.228.228,0,0,1-.217-.2V96.869a.228.228,0,0,1,.233-.224h1.128a.228.228,0,0,1,.22.209v.811h.023a1.663,1.663,0,0,1,3.165,0,1.789,1.789,0,0,1,3.075-.471,3.3,3.3,0,0,1,.305,1.949v3.923a.228.228,0,0,1-.234.224h-1.209a.227.227,0,0,1-.218-.223v-3.3a7.94,7.94,0,0,0-.034-1.164.631.631,0,0,0-.712-.537.8.8,0,0,0-.724.51,3.77,3.77,0,0,0-.113,1.19v3.3a.228.228,0,0,1-.234.224h-1.21a.227.227,0,0,1-.218-.223v-3.3c0-.693.113-1.713-.746-1.713s-.836.994-.836,1.713v3.3A.229.229,0,0,1,1752.392,103.289Z" transform="translate(-1744.295 -96.454)" fill="#fff" fill-rule="evenodd"/>
        <path id="Trazado_43477" data-name="Trazado 43477" d="M1872.642,96.514c1.8,0,2.77,1.544,2.77,3.506,0,1.9-1.074,3.4-2.77,3.4-1.764,0-2.725-1.544-2.725-3.466S1870.89,96.514,1872.642,96.514Zm.011,1.269c-.893,0-.949,1.216-.949,1.975s-.011,2.381.938,2.381.983-1.308.983-2.106a5.746,5.746,0,0,0-.181-1.648A.758.758,0,0,0,1872.652,97.783Z" transform="translate(-1842.161 -96.454)" fill="#fff" fill-rule="evenodd"/>
        <path id="Trazado_43478" data-name="Trazado 43478" d="M1907.442,103.289h-1.207a.227.227,0,0,1-.217-.223l0-6.218a.23.23,0,0,1,.233-.2h1.123a.229.229,0,0,1,.215.174v.951h.023a1.647,1.647,0,0,1,1.65-1.256,1.587,1.587,0,0,1,1.413.733,3.953,3.953,0,0,1,.317,1.936v3.911a.23.23,0,0,1-.232.2h-1.214a.229.229,0,0,1-.216-.2V99.719c0-.68.079-1.675-.757-1.675a.792.792,0,0,0-.7.5,2.763,2.763,0,0,0-.192,1.178v3.347A.232.232,0,0,1,1907.442,103.289Z" transform="translate(-1871.861 -96.454)" fill="#fff" fill-rule="evenodd"/>
        <path id="Trazado_43479" data-name="Trazado 43479" d="M1806.468,100.043a2.378,2.378,0,0,1-.227,1.285.984.984,0,0,1-.838.55c-.465,0-.737-.354-.737-.878,0-1.032.925-1.219,1.8-1.219Zm1.221,2.953a.25.25,0,0,1-.286.028,2.946,2.946,0,0,1-.694-.807,2.4,2.4,0,0,1-2,.88,1.719,1.719,0,0,1-1.813-1.888,2.058,2.058,0,0,1,1.292-1.979,8.381,8.381,0,0,1,2.277-.42v-.157a1.55,1.55,0,0,0-.147-.878.809.809,0,0,0-.68-.315.922.922,0,0,0-.973.727.256.256,0,0,1-.21.223l-1.174-.127a.213.213,0,0,1-.181-.253,2.459,2.459,0,0,1,2.708-1.854,2.747,2.747,0,0,1,1.824.6c.589.551.532,1.285.532,2.085v1.886a1.654,1.654,0,0,0,.457,1.122.228.228,0,0,1,0,.322c-.247.207-.687.589-.928.8Z" transform="translate(-1787.023 -96.176)" fill="#fff" fill-rule="evenodd"/>
        <path id="Trazado_43480" data-name="Trazado 43480" d="M1716.91,100.043a2.379,2.379,0,0,1-.226,1.285.984.984,0,0,1-.839.55c-.464,0-.736-.354-.736-.878,0-1.032.926-1.219,1.8-1.219Zm1.221,2.953a.251.251,0,0,1-.286.028,2.939,2.939,0,0,1-.694-.807,2.4,2.4,0,0,1-2,.88,1.719,1.719,0,0,1-1.813-1.888,2.057,2.057,0,0,1,1.292-1.979,8.38,8.38,0,0,1,2.277-.42v-.157a1.551,1.551,0,0,0-.147-.878.809.809,0,0,0-.68-.315.922.922,0,0,0-.973.727.256.256,0,0,1-.21.223l-1.174-.127a.213.213,0,0,1-.181-.253,2.459,2.459,0,0,1,2.708-1.854,2.747,2.747,0,0,1,1.824.6c.589.551.533,1.285.533,2.085v1.886a1.653,1.653,0,0,0,.457,1.122.228.228,0,0,1,0,.322c-.247.207-.687.589-.929.8Z" transform="translate(-1713.341 -96.176)" fill="#fff" fill-rule="evenodd"/>
      </g>
      <g id="Grupo_20795" data-name="Grupo 20795" transform="translate(42.056)">
        <path id="Trazado_43481" data-name="Trazado 43481" d="M1952.57,103.5a1.979,1.979,0,0,1-1.435-.531,1.992,1.992,0,0,1,.127-2.871,2.765,2.765,0,0,1,1.814-.556,6.371,6.371,0,0,1,1.467.189v-.746a1.177,1.177,0,0,0-.278-.9,1.451,1.451,0,0,0-.973-.253,5.851,5.851,0,0,0-.924.082,6.252,6.252,0,0,0-.961.234.781.781,0,0,1-.215.038c-.109,0-.164-.08-.164-.24v-.468a.472.472,0,0,1,.05-.252.619.619,0,0,1,.266-.165,6.043,6.043,0,0,1,2.188-.379,2.751,2.751,0,0,1,1.826.506,1.972,1.972,0,0,1,.59,1.581v4.262a.246.246,0,0,1-.278.278H1955a.279.279,0,0,1-.316-.253l-.063-.366a3.508,3.508,0,0,1-.98.594A2.862,2.862,0,0,1,1952.57,103.5Zm.417-1.063a2.1,2.1,0,0,0,.771-.158,3.155,3.155,0,0,0,.784-.449v-1.214a5.951,5.951,0,0,0-1.188-.139q-1.315,0-1.315,1.024a.917.917,0,0,0,.253.689A.953.953,0,0,0,1952.987,102.439Z" transform="translate(-1950.584 -95.104)" fill="#fff"/>
        <path id="Trazado_43482" data-name="Trazado 43482" d="M1988.691,105.917a.246.246,0,0,1-.278-.278V97.153a.246.246,0,0,1,.278-.278h.7a.3.3,0,0,1,.329.252l.076.392a3.205,3.205,0,0,1,.98-.62,2.984,2.984,0,0,1,1.119-.215,2.324,2.324,0,0,1,1.916.9,3.777,3.777,0,0,1,.715,2.416,4.491,4.491,0,0,1-.348,1.833,2.748,2.748,0,0,1-.968,1.2,2.474,2.474,0,0,1-1.416.417,2.909,2.909,0,0,1-1.025-.184,2.651,2.651,0,0,1-.86-.512v2.883a.246.246,0,0,1-.278.278Zm2.719-3.642a1.374,1.374,0,0,0,1.2-.551,2.9,2.9,0,0,0,.392-1.676,2.843,2.843,0,0,0-.386-1.65,1.371,1.371,0,0,0-1.2-.537,2.615,2.615,0,0,0-1.518.48v3.44A2.592,2.592,0,0,0,1991.411,102.275Z" transform="translate(-1981.707 -95.104)" fill="#fff"/>
        <path id="Trazado_43483" data-name="Trazado 43483" d="M2029.211,105.917a.246.246,0,0,1-.278-.278V97.153a.246.246,0,0,1,.278-.278h.7a.3.3,0,0,1,.329.252l.076.392a3.21,3.21,0,0,1,.98-.62,2.984,2.984,0,0,1,1.119-.215,2.324,2.324,0,0,1,1.916.9,3.777,3.777,0,0,1,.715,2.416,4.5,4.5,0,0,1-.347,1.833,2.752,2.752,0,0,1-.968,1.2,2.475,2.475,0,0,1-1.416.417,2.907,2.907,0,0,1-1.024-.184,2.649,2.649,0,0,1-.86-.512v2.883a.246.246,0,0,1-.278.278Zm2.719-3.642a1.374,1.374,0,0,0,1.2-.551,2.9,2.9,0,0,0,.392-1.676,2.843,2.843,0,0,0-.386-1.65,1.371,1.371,0,0,0-1.2-.537,2.615,2.615,0,0,0-1.518.48v3.44A2.593,2.593,0,0,0,2031.931,102.275Z" transform="translate(-2015.044 -95.104)" fill="#fff"/>
        <path id="Trazado_43484" data-name="Trazado 43484" d="M2069.14,103.5a5.058,5.058,0,0,1-1.846-.329.557.557,0,0,1-.259-.158.489.489,0,0,1-.057-.272v-.455q0-.253.177-.253a1.687,1.687,0,0,1,.354.076,6.014,6.014,0,0,0,1.619.253,1.689,1.689,0,0,0,.923-.2.675.675,0,0,0,.291-.6.593.593,0,0,0-.177-.449,1.972,1.972,0,0,0-.658-.348l-1.049-.405a1.861,1.861,0,0,1-1.417-1.77,1.678,1.678,0,0,1,.658-1.4,2.787,2.787,0,0,1,1.758-.512,5,5,0,0,1,1.581.265.532.532,0,0,1,.253.146.481.481,0,0,1,.063.285v.443a.327.327,0,0,1-.044.2.188.188,0,0,1-.158.057,1.867,1.867,0,0,1-.316-.063,5.868,5.868,0,0,0-1.29-.189,1.65,1.65,0,0,0-.854.171.587.587,0,0,0-.272.537.568.568,0,0,0,.2.45,2.629,2.629,0,0,0,.7.373l.974.379a2.605,2.605,0,0,1,1.094.7,1.552,1.552,0,0,1,.336,1.024,1.821,1.821,0,0,1-.683,1.5A2.945,2.945,0,0,1,2069.14,103.5Z" transform="translate(-2046.345 -95.104)" fill="#fff"/>
        <path id="Trazado_43485" data-name="Trazado 43485" d="M2099.558,96.063a2.048,2.048,0,0,1-1.479-.467,1.912,1.912,0,0,1-.481-1.429V90.676h-.809a.246.246,0,0,1-.278-.278v-.366a.345.345,0,0,1,.064-.234.351.351,0,0,1,.2-.095l.873-.126.189-1.531a.3.3,0,0,1,.089-.215.35.35,0,0,1,.227-.063h.658a.246.246,0,0,1,.278.278v1.493h1.555a.246.246,0,0,1,.278.278V90.4a.246.246,0,0,1-.278.278h-1.555v3.415a.779.779,0,0,0,.208.613,1.059,1.059,0,0,0,.7.184,2.319,2.319,0,0,0,.467-.038,1.468,1.468,0,0,1,.291-.038q.216,0,.215.24v.455a.446.446,0,0,1-.07.285.5.5,0,0,1-.26.133A4.247,4.247,0,0,1,2099.558,96.063Z" transform="translate(-2070.642 -87.767)" fill="#fff"/>
        <path id="Trazado_43486" data-name="Trazado 43486" d="M2127.031,103.5a2.935,2.935,0,0,1-2.289-.9,4.233,4.233,0,0,1,0-5.014,3.367,3.367,0,0,1,4.578,0,4.233,4.233,0,0,1,0,5.014A2.936,2.936,0,0,1,2127.031,103.5Zm0-1.177q1.593,0,1.593-2.238t-1.593-2.225q-1.594,0-1.594,2.225T2127.031,102.325Z" transform="translate(-2093.192 -95.104)" fill="#fff"/>
        <path id="Trazado_43487" data-name="Trazado 43487" d="M2165.288,103.958a.246.246,0,0,1-.279-.278V97.8a.246.246,0,0,1,.279-.278h.67a.442.442,0,0,1,.247.05.292.292,0,0,1,.094.19l.152.72a3.531,3.531,0,0,1,.949-.784,2.062,2.062,0,0,1,.96-.228h.051a.986.986,0,0,1,.271.032.249.249,0,0,1,.152.107.6.6,0,0,1,.045.278v.683c0,.177-.076.265-.228.265q-.075,0-.208-.013c-.089-.008-.184-.012-.285-.012a2.918,2.918,0,0,0-1.656.48v4.389a.246.246,0,0,1-.278.278Z" transform="translate(-2126.998 -95.75)" fill="#fff"/>
        <path id="Trazado_43488" data-name="Trazado 43488" d="M2191.984,103.5a3.187,3.187,0,0,1-2.416-.86,3.486,3.486,0,0,1-.822-2.5,3.717,3.717,0,0,1,.8-2.542,2.836,2.836,0,0,1,2.245-.911,2.548,2.548,0,0,1,1.9.677,2.619,2.619,0,0,1,.664,1.916,6.68,6.68,0,0,1-.063.9.356.356,0,0,1-.095.222.281.281,0,0,1-.183.057h-3.9a1.909,1.909,0,0,0,.538,1.41,2.243,2.243,0,0,0,1.536.449,5.745,5.745,0,0,0,1.593-.241l.152-.038a.405.405,0,0,1,.089-.012c.126,0,.189.084.189.253v.455a.492.492,0,0,1-.057.272.556.556,0,0,1-.259.158A5.1,5.1,0,0,1,2191.984,103.5Zm1.063-4.047v-.1a1.8,1.8,0,0,0-.335-1.177,1.2,1.2,0,0,0-.98-.4,1.463,1.463,0,0,0-1.113.455,1.959,1.959,0,0,0-.493,1.227Z" transform="translate(-2146.527 -95.104)" fill="#fff"/>
      </g>
    </g>
    <g id="Grupo_20797" data-name="Grupo 20797" transform="translate(25.668)">
      <path id="Trazado_43489" data-name="Trazado 43489" d="M1859.546,52.322a1.294,1.294,0,0,1-.753-.218,1.381,1.381,0,0,1-.486-.608,2.262,2.262,0,0,1-.169-.905,2.362,2.362,0,0,1,.178-.955,1.391,1.391,0,0,1,.5-.621,1.318,1.318,0,0,1,.747-.215,1.55,1.55,0,0,1,1.011.37V47.492a.117.117,0,0,1,.132-.132h.39a.117.117,0,0,1,.132.132v4.625a.117.117,0,0,1-.132.132h-.291a.157.157,0,0,1-.1-.027.182.182,0,0,1-.056-.106l-.052-.211a1.606,1.606,0,0,1-.5.307A1.528,1.528,0,0,1,1859.546,52.322Zm.2-.529a1.426,1.426,0,0,0,.832-.3V49.62a1.5,1.5,0,0,0-.413-.221,1.452,1.452,0,0,0-.459-.069q-.9,0-.9,1.242Q1858.805,51.794,1859.744,51.794Z" transform="translate(-1858.138 -47.36)" fill="#fff"/>
      <path id="Trazado_43490" data-name="Trazado 43490" d="M1880.65,49.011a.405.405,0,0,1-.3-.109.434.434,0,0,1,0-.575.47.47,0,0,1,.6,0,.434.434,0,0,1,0,.575A.406.406,0,0,1,1880.65,49.011Zm-.2,3.945a.117.117,0,0,1-.132-.132V49.738a.117.117,0,0,1,.132-.132h.39a.117.117,0,0,1,.132.132v3.085a.117.117,0,0,1-.132.132Z" transform="translate(-1876.323 -48.066)" fill="#fff"/>
      <path id="Trazado_43491" data-name="Trazado 43491" d="M1889.278,59.033a2.568,2.568,0,0,1-1-.185.262.262,0,0,1-.109-.072.212.212,0,0,1-.03-.126v-.185c0-.079.026-.119.08-.119a.626.626,0,0,1,.165.04,2.965,2.965,0,0,0,.906.139.814.814,0,0,0,.492-.125.425.425,0,0,0,.169-.364.345.345,0,0,0-.1-.258,1.117,1.117,0,0,0-.373-.2l-.562-.211a.956.956,0,0,1-.734-.925.841.841,0,0,1,.334-.694,1.366,1.366,0,0,1,.875-.265,2.4,2.4,0,0,1,.839.152.231.231,0,0,1,.112.069.209.209,0,0,1,.033.129v.179c0,.079-.029.119-.086.119a.592.592,0,0,1-.152-.033,2.455,2.455,0,0,0-.714-.106q-.634,0-.634.429a.352.352,0,0,0,.106.271,1.371,1.371,0,0,0,.416.218l.516.2a1.354,1.354,0,0,1,.561.36.818.818,0,0,1,.172.539.9.9,0,0,1-.35.746A1.458,1.458,0,0,1,1889.278,59.033Z" transform="translate(-1882.823 -54.045)" fill="#fff"/>
      <path id="Trazado_43492" data-name="Trazado 43492" d="M1905.159,60.3a.117.117,0,0,1-.132-.132V55.717a.117.117,0,0,1,.132-.132h.291a.139.139,0,0,1,.152.132l.033.211a1.649,1.649,0,0,1,1.117-.443,1.223,1.223,0,0,1,1.011.466,1.981,1.981,0,0,1,.37,1.266,2.03,2.03,0,0,1-.389,1.3,1.262,1.262,0,0,1-1.038.489,1.471,1.471,0,0,1-1.024-.39v1.547a.117.117,0,0,1-.132.132Zm1.394-1.817q.912,0,.912-1.229a1.59,1.59,0,0,0-.221-.932.783.783,0,0,0-.677-.3,1.475,1.475,0,0,0-.885.3v1.843A1.457,1.457,0,0,0,1906.554,58.478Z" transform="translate(-1896.715 -54.045)" fill="#fff"/>
      <path id="Trazado_43493" data-name="Trazado 43493" d="M1927.163,59.033a1.5,1.5,0,0,1-1.176-.469,2.226,2.226,0,0,1,0-2.61,1.709,1.709,0,0,1,2.353,0,2.225,2.225,0,0,1,0,2.61A1.5,1.5,0,0,1,1927.163,59.033Zm0-.528q.932,0,.932-1.249t-.932-1.242q-.932,0-.932,1.242T1927.163,58.5Z" transform="translate(-1913.611 -54.045)" fill="#fff"/>
      <path id="Trazado_43494" data-name="Trazado 43494" d="M1947.724,58.934a.117.117,0,0,1-.132-.132V55.717a.117.117,0,0,1,.132-.132h.291a.174.174,0,0,1,.1.026.151.151,0,0,1,.049.1l.04.244a2.175,2.175,0,0,1,1.322-.469.988.988,0,0,1,.733.255,1.006,1.006,0,0,1,.251.737V58.8a.117.117,0,0,1-.132.132h-.39a.117.117,0,0,1-.132-.132V56.695a.78.78,0,0,0-.142-.516.559.559,0,0,0-.446-.165,1.818,1.818,0,0,0-1.024.337V58.8a.117.117,0,0,1-.132.132Z" transform="translate(-1931.734 -54.045)" fill="#fff"/>
      <path id="Trazado_43495" data-name="Trazado 43495" d="M1969.058,49.011a.407.407,0,0,1-.3-.109.434.434,0,0,1,0-.575.47.47,0,0,1,.6,0,.433.433,0,0,1,0,.575A.4.4,0,0,1,1969.058,49.011Zm-.2,3.945a.117.117,0,0,1-.132-.132V49.738a.117.117,0,0,1,.132-.132h.39a.117.117,0,0,1,.132.132v3.085a.117.117,0,0,1-.132.132Z" transform="translate(-1949.058 -48.066)" fill="#fff"/>
      <path id="Trazado_43496" data-name="Trazado 43496" d="M1979.572,52.322a1.514,1.514,0,0,1-1.064-.423l-.046.218a.139.139,0,0,1-.152.132h-.284a.117.117,0,0,1-.132-.132V47.492a.117.117,0,0,1,.132-.132h.39a.117.117,0,0,1,.132.132v1.724a1.634,1.634,0,0,1,1.07-.417,1.225,1.225,0,0,1,1.011.463,1.977,1.977,0,0,1,.371,1.269,2.03,2.03,0,0,1-.39,1.3A1.261,1.261,0,0,1,1979.572,52.322Zm-.152-.529q.912,0,.912-1.229a1.589,1.589,0,0,0-.221-.932.783.783,0,0,0-.678-.3,1.475,1.475,0,0,0-.885.3v1.843A1.419,1.419,0,0,0,1979.42,51.794Z" transform="translate(-1956.665 -47.36)" fill="#fff"/>
      <path id="Trazado_43497" data-name="Trazado 43497" d="M2000.118,52.283a.69.69,0,0,1-.536-.2.825.825,0,0,1-.185-.578V47.492a.117.117,0,0,1,.132-.132h.39a.117.117,0,0,1,.132.132v3.971a.32.32,0,0,0,.063.221.268.268,0,0,0,.208.069.523.523,0,0,0,.083-.007.5.5,0,0,1,.076-.007.1.1,0,0,1,.09.033.179.179,0,0,1,.023.1v.212a.161.161,0,0,1-.03.1.2.2,0,0,1-.1.056A1.483,1.483,0,0,1,2000.118,52.283Z" transform="translate(-1974.356 -47.36)" fill="#fff"/>
      <path id="Trazado_43498" data-name="Trazado 43498" d="M2010.139,59.033a1.592,1.592,0,0,1-1.229-.449,2.288,2.288,0,0,1,0-2.633,1.479,1.479,0,0,1,1.163-.466,1.269,1.269,0,0,1,.965.354,1.394,1.394,0,0,1,.337,1,2.84,2.84,0,0,1-.034.43.183.183,0,0,1-.042.106.145.145,0,0,1-.1.027h-2.075a1.193,1.193,0,0,0,.281.839,1.121,1.121,0,0,0,.829.271,2.65,2.65,0,0,0,.38-.026,3.127,3.127,0,0,0,.459-.113l.079-.023a.2.2,0,0,1,.059-.01q.086,0,.086.119v.185a.211.211,0,0,1-.027.122.293.293,0,0,1-.112.076,2.283,2.283,0,0,1-.472.139A2.925,2.925,0,0,1,2010.139,59.033Zm.634-2.068a1.626,1.626,0,0,0,.007-.172.867.867,0,0,0-.189-.608.712.712,0,0,0-.551-.2.841.841,0,0,0-.647.248,1.168,1.168,0,0,0-.265.737Z" transform="translate(-1981.84 -54.045)" fill="#fff"/>
      <path id="Trazado_43499" data-name="Trazado 43499" d="M2038.5,59.033a1.592,1.592,0,0,1-1.229-.449,2.288,2.288,0,0,1,0-2.633,1.479,1.479,0,0,1,1.163-.466,1.271,1.271,0,0,1,.965.354,1.4,1.4,0,0,1,.337,1,2.84,2.84,0,0,1-.034.43.183.183,0,0,1-.042.106.145.145,0,0,1-.1.027h-2.075a1.193,1.193,0,0,0,.281.839,1.121,1.121,0,0,0,.829.271,2.644,2.644,0,0,0,.38-.026,3.136,3.136,0,0,0,.459-.113l.079-.023a.2.2,0,0,1,.059-.01q.086,0,.086.119v.185a.211.211,0,0,1-.027.122.291.291,0,0,1-.112.076,2.278,2.278,0,0,1-.472.139A2.921,2.921,0,0,1,2038.5,59.033Zm.635-2.068a1.561,1.561,0,0,0,.007-.172.866.866,0,0,0-.189-.608.711.711,0,0,0-.551-.2.841.841,0,0,0-.647.248,1.165,1.165,0,0,0-.265.737Z" transform="translate(-2005.175 -54.045)" fill="#fff"/>
      <path id="Trazado_43500" data-name="Trazado 43500" d="M2057.117,58.934a.117.117,0,0,1-.132-.132V55.717a.116.116,0,0,1,.132-.132h.291a.174.174,0,0,1,.1.026.154.154,0,0,1,.049.1l.04.244a2.175,2.175,0,0,1,1.321-.469.985.985,0,0,1,.733.255,1,1,0,0,1,.251.737V58.8a.117.117,0,0,1-.132.132h-.39a.117.117,0,0,1-.132-.132V56.695a.78.78,0,0,0-.142-.516.558.558,0,0,0-.446-.165,1.819,1.819,0,0,0-1.025.337V58.8a.116.116,0,0,1-.132.132Z" transform="translate(-2021.735 -54.045)" fill="#fff"/>
    </g>
  </g>
</svg>
