<svg xmlns="http://www.w3.org/2000/svg" width="169.752" height="32.789" viewBox="0 0 169.752 32.789"><defs><style>.a{fill:#40f;}</style></defs><g transform="translate(0)"><path class="a" d="M175.6,20.8a1.973,1.973,0,0,1,0,2.607,2.139,2.139,0,0,1-2.726,0,1.95,1.95,0,0,1,0-2.607A2.139,2.139,0,0,1,175.6,20.8Zm-.5,5.792a.531.531,0,0,1,.6.449.523.523,0,0,1,0,.145V41.15a.531.531,0,0,1-.449.6.555.555,0,0,1-.154,0h-1.767a.531.531,0,0,1-.6-.457.523.523,0,0,1,0-.145V27.2a.523.523,0,0,1,.441-.594.5.5,0,0,1,.154,0Zm7.924,3.36a6.087,6.087,0,0,0-1.109,4.057V34.4a5.758,5.758,0,0,0,1.125,3.962,4.518,4.518,0,0,0,3.558,1.276,9.734,9.734,0,0,0,2.694-.42,2.433,2.433,0,0,1,.452-.087c.261,0,.388.2.388.594v.792a1.05,1.05,0,0,1-.119.571,1,1,0,0,1-.483.325,8.576,8.576,0,0,1-3.415.634,7,7,0,0,1-5.412-2.021,8.285,8.285,0,0,1-1.87-5.848,8.271,8.271,0,0,1,1.933-5.88,7.131,7.131,0,0,1,5.468-2.076,9.187,9.187,0,0,1,3.17.571,1.016,1.016,0,0,1,.468.293,1.071,1.071,0,0,1,.135.6v.792c0,.4-.135.594-.388.594a1.9,1.9,0,0,1-.483-.087,8.872,8.872,0,0,0-2.488-.357,4.8,4.8,0,0,0-3.613,1.323Zm-45.769,11.8a.531.531,0,0,1-.6-.448.557.557,0,0,1,0-.154V31.467a3.559,3.559,0,0,0-.571-2.219,2.155,2.155,0,0,0-1.8-.713,8.473,8.473,0,0,0-4.406,1.347,2.6,2.6,0,0,1,0,.444V41.15a.531.531,0,0,1-.449.6.555.555,0,0,1-.154,0h-1.767a.531.531,0,0,1-.6-.448.554.554,0,0,1,0-.154V31.467a3.612,3.612,0,0,0-.563-2.219,2.173,2.173,0,0,0-1.8-.713,8.121,8.121,0,0,0-4.382,1.315v11.3a.531.531,0,0,1-.449.6.523.523,0,0,1-.145,0H117.8a.531.531,0,0,1-.6-.457.523.523,0,0,1,0-.145V27.2a.523.523,0,0,1,.441-.594.5.5,0,0,1,.154,0h1.331a.8.8,0,0,1,.46.119.673.673,0,0,1,.23.444l.174.959a9.952,9.952,0,0,1,5.61-1.973,3.769,3.769,0,0,1,3.78,2.124,10.12,10.12,0,0,1,5.935-2.124,4.194,4.194,0,0,1,3.17,1.165,4.644,4.644,0,0,1,1.109,3.32V41.15a.531.531,0,0,1-.448.6.555.555,0,0,1-.154,0ZM153.329,27.2a.531.531,0,0,1,.457-.6.523.523,0,0,1,.145,0H155.7a.531.531,0,0,1,.6.449.525.525,0,0,1,0,.145V41.15a.531.531,0,0,1-.449.6.555.555,0,0,1-.154,0h-1.292a.8.8,0,0,1-.46-.119.684.684,0,0,1-.23-.452l-.206-1.046a9.512,9.512,0,0,1-5.729,2.068,4.311,4.311,0,0,1-3.3-1.2,4.753,4.753,0,0,1-1.141-3.384V27.2a.531.531,0,0,1,.457-.6.523.523,0,0,1,.145,0h1.767a.531.531,0,0,1,.6.449.523.523,0,0,1,0,.145V36.7a3.684,3.684,0,0,0,.626,2.377,2.448,2.448,0,0,0,2.013.792A7.924,7.924,0,0,0,153.3,38.44ZM166.6,39.336a1.917,1.917,0,0,0,.792-1.64,1.532,1.532,0,0,0-.46-1.165,5.034,5.034,0,0,0-1.7-.9l-2.551-.951c-2.211-.792-3.328-2.219-3.328-4.192a3.819,3.819,0,0,1,1.513-3.17,6.228,6.228,0,0,1,3.962-1.2,10.843,10.843,0,0,1,3.8.689,1.1,1.1,0,0,1,.515.309,1,1,0,0,1,.143.586V28.5c0,.357-.127.539-.388.539a2.573,2.573,0,0,1-.689-.151,11.224,11.224,0,0,0-3.233-.475c-1.918,0-2.884.642-2.884,1.941a1.584,1.584,0,0,0,.483,1.228,6.346,6.346,0,0,0,1.886.983l2.377.9a6.2,6.2,0,0,1,2.5,1.664,3.68,3.68,0,0,1,.792,2.441,4.071,4.071,0,0,1-1.585,3.376A6.627,6.627,0,0,1,164.3,42.2a11.745,11.745,0,0,1-4.525-.84,1.273,1.273,0,0,1-.491-.325,1,1,0,0,1-.135-.571v-.84c0-.357.119-.539.357-.539a3,3,0,0,1,.753.182,13.431,13.431,0,0,0,4.1.626,3.7,3.7,0,0,0,2.242-.571ZM78.178,44.748c-.666-.848-4.406-.4-6.086-.2-.515.055-.594-.388-.135-.705,2.987-2.092,7.876-1.49,8.447-.792s-.151,5.594-2.948,7.924c-.436.365-.84.166-.65-.3C77.434,49.114,78.844,45.6,78.178,44.748ZM76.007,47.22c-5.214,3.835-12.765,5.88-19.279,5.88a34.9,34.9,0,0,1-23.542-8.962c-.491-.436-.055-1.038.531-.7a47.538,47.538,0,0,0,23.605,6.236,46.928,46.928,0,0,0,17.964-3.669C76.134,45.635,76.871,46.586,76.007,47.22ZM28.567,34.977v-.6c-2.013,0-4.136.428-4.136,2.789,0,1.2.626,2,1.688,2a2.252,2.252,0,0,0,1.926-1.26A5.4,5.4,0,0,0,28.567,34.977Zm2.8,6.751a.577.577,0,0,1-.658.063,6.926,6.926,0,0,1-1.585-1.846,5.548,5.548,0,0,1-4.572,2.013,3.941,3.941,0,0,1-4.16-4.319,4.707,4.707,0,0,1,2.964-4.525,18.765,18.765,0,0,1,5.222-.959v-.364a3.539,3.539,0,0,0-.341-2,1.877,1.877,0,0,0-1.585-.721,2.108,2.108,0,0,0-2.227,1.664.578.578,0,0,1-.483.507l-2.694-.285a.5.5,0,0,1-.372-.586c.618-3.257,3.566-4.239,6.212-4.239a6.342,6.342,0,0,1,4.176,1.379c1.355,1.26,1.22,2.94,1.22,4.754v4.319a3.8,3.8,0,0,0,1.046,2.567.507.507,0,0,1,.012.717l-.012.012c-.563.475-1.585,1.347-2.124,1.846Zm33.6-6.751v-.6c-2.013,0-4.128.428-4.128,2.789,0,1.2.618,2,1.688,2a2.237,2.237,0,0,0,1.933-1.26A5.392,5.392,0,0,0,64.961,34.977Zm2.8,6.751a.571.571,0,0,1-.658.063,6.732,6.732,0,0,1-1.585-1.846,5.545,5.545,0,0,1-4.58,2.013c-2.377,0-4.16-1.442-4.16-4.319a4.755,4.755,0,0,1,2.964-4.525,18.818,18.818,0,0,1,5.222-.959v-.364a3.479,3.479,0,0,0-.341-2,1.847,1.847,0,0,0-1.585-.721A2.107,2.107,0,0,0,60.8,30.73a.578.578,0,0,1-.483.507l-2.686-.285a.5.5,0,0,1-.388-.586c.618-3.257,3.566-4.239,6.212-4.239a6.339,6.339,0,0,1,4.168,1.379c1.347,1.26,1.22,2.94,1.22,4.754v4.319a3.8,3.8,0,0,0,1.046,2.567.523.523,0,0,1,0,.729c-.571.475-1.585,1.347-2.132,1.846Zm34.2,0H99.193a.516.516,0,0,1-.5-.507V26.958a.523.523,0,0,1,.531-.468H101.8a.547.547,0,0,1,.5.4v2.171h.048c.792-1.941,1.87-2.868,3.788-2.868a3.638,3.638,0,0,1,3.241,1.672c.721,1.133.721,3.051.721,4.429v9.017a.516.516,0,0,1-.531.444h-2.781a.523.523,0,0,1-.5-.444V33.6c0-1.585.182-3.835-1.735-3.835a1.806,1.806,0,0,0-1.585,1.141,6.192,6.192,0,0,0-.444,2.694v7.655a.531.531,0,0,1-.553.508h-.01ZM90.286,29.169c-2.044,0-2.179,2.781-2.179,4.517s0,5.444,2.155,5.444,2.25-3,2.25-4.818a13.02,13.02,0,0,0-.412-3.764A1.735,1.735,0,0,0,90.286,29.169Zm0-2.9c4.12,0,6.339,3.526,6.339,8.011,0,4.342-2.456,7.781-6.339,7.781-4.041,0-6.244-3.534-6.244-7.924s2.2-7.868,6.22-7.868ZM38.947,41.76H36.166a.516.516,0,0,1-.491-.468V27.077a.523.523,0,0,1,.531-.515H38.8a.531.531,0,0,1,.507.483V28.9h.048A3.66,3.66,0,0,1,43,26.269c1.735,0,2.829.832,3.605,2.631a4.113,4.113,0,0,1,7.052-1.078c.88,1.2.7,2.932.7,4.453v8.978a.523.523,0,0,1-.538.507H51.047a.523.523,0,0,1-.5-.507V33.718a17.471,17.471,0,0,0-.079-2.662,1.443,1.443,0,0,0-1.628-1.229h0a1.847,1.847,0,0,0-1.656,1.165,8.611,8.611,0,0,0-.261,2.726v7.536a.515.515,0,0,1-.523.507H43.614a.523.523,0,0,1-.5-.507V33.718c0-1.585.261-3.922-1.7-3.922s-1.918,2.274-1.918,3.922v7.536a.515.515,0,0,1-.522.508Zm33.28-12.678V27.046a.507.507,0,0,1,.5-.515h9.16a.5.5,0,0,1,.522.475c0,.011,0,.021,0,.032v1.743a2.848,2.848,0,0,1-.681,1.284l-4.754,6.727a10.135,10.135,0,0,1,5.206,1.117.927.927,0,0,1,.483.792v2.171a.483.483,0,0,1-.674.46,10.538,10.538,0,0,0-9.643,0c-.317.166-.65-.174-.65-.475V38.8a2.448,2.448,0,0,1,.341-1.395l5.491-7.829H72.774a.515.515,0,0,1-.539-.49v-.009Z" transform="translate(-20.387 -20.311)"/></g></svg>