<svg id="Grupo_27020" data-name="Grupo 27020" xmlns="http://www.w3.org/2000/svg" xmlns:xlink="http://www.w3.org/1999/xlink" width="174.504" height="33.816" viewBox="0 0 174.504 33.816">
  <defs>
    <clipPath id="clip-path">
      <rect id="Rectángulo_19801" data-name="Rectángulo 19801" width="174.504" height="33.816" fill="none"/>
    </clipPath>
  </defs>
  <g id="Grupo_27017" data-name="Grupo 27017" transform="translate(0 0)" clip-path="url(#clip-path)">
    <path id="Trazado_67314" data-name="Trazado 67314" d="M183.271,34.515a.856.856,0,0,1-.571-.164.772.772,0,0,1-.18-.587V13.706a.772.772,0,0,1,.18-.587.828.828,0,0,1,.571-.164h2.163a.779.779,0,0,1,.841.661l.212.783a6.71,6.71,0,0,1,2.179-1.386,7,7,0,0,1,2.6-.513,5.588,5.588,0,0,1,4.618,2.137,9.026,9.026,0,0,1,1.7,5.776,10.5,10.5,0,0,1-.841,4.359,6.815,6.815,0,0,1-2.285,2.872,5.629,5.629,0,0,1-3.306,1.005,7.051,7.051,0,0,1-2.343-.391,5.534,5.534,0,0,1-1.894-1.084v6.586a.621.621,0,0,1-.751.751h-2.893Zm6.586-9.172a2.814,2.814,0,0,0,2.481-1.143,6.423,6.423,0,0,0,.8-3.607,6.556,6.556,0,0,0-.783-3.639,2.813,2.813,0,0,0-2.5-1.143,5.691,5.691,0,0,0-2.946.815v7.908a5.546,5.546,0,0,0,2.946.809" transform="translate(-85.974 -5.888)" fill="#1a98ff"/>
    <path id="Trazado_67315" data-name="Trazado 67315" d="M217.321,28.594a.648.648,0,0,1-.751-.751V13.979a.772.772,0,0,1,.18-.587.828.828,0,0,1,.571-.164h2.163a.779.779,0,0,1,.841.661l.391,1.624a8.617,8.617,0,0,1,2.269-1.878,4.862,4.862,0,0,1,2.269-.555h.423a.884.884,0,0,1,.6.164.772.772,0,0,1,.18.587V16.36a.828.828,0,0,1-.164.571.772.772,0,0,1-.587.18q-.214,0-.54-.032t-.841-.032a8.781,8.781,0,0,0-1.682.2,8.32,8.32,0,0,0-1.682.5v10.1a.856.856,0,0,1-.164.571.772.772,0,0,1-.587.18Z" transform="translate(-102.013 -6.161)" fill="#1a98ff"/>
    <path id="Trazado_67316" data-name="Trazado 67316" d="M241.188,4.687a2.63,2.63,0,0,1-1.835-.629,2.216,2.216,0,0,1-.693-1.714,2.2,2.2,0,0,1,.693-1.714,2.991,2.991,0,0,1,3.671,0,2.216,2.216,0,0,1,.693,1.714,2.216,2.216,0,0,1-.693,1.714,2.606,2.606,0,0,1-1.836.629m-1.444,17.747a.648.648,0,0,1-.751-.751V7.818a.772.772,0,0,1,.18-.587.828.828,0,0,1,.571-.164h2.888a.821.821,0,0,1,.587.164.821.821,0,0,1,.164.587V21.682a.856.856,0,0,1-.164.571.772.772,0,0,1-.587.18Z" transform="translate(-112.419 0)" fill="#1a98ff"/>
    <path id="Trazado_67317" data-name="Trazado 67317" d="M255.381,28.331a.648.648,0,0,1-.751-.751V13.715a.772.772,0,0,1,.18-.587.828.828,0,0,1,.571-.164h2.163a.779.779,0,0,1,.841.661l.243.815a12.9,12.9,0,0,1,2.872-1.486,8.083,8.083,0,0,1,2.629-.434,4.041,4.041,0,0,1,3.819,1.925,12.256,12.256,0,0,1,2.888-1.476,8.781,8.781,0,0,1,2.8-.45,4.381,4.381,0,0,1,3.264,1.174,4.463,4.463,0,0,1,1.158,3.28V27.59a.856.856,0,0,1-.164.571.772.772,0,0,1-.587.18h-2.888a.648.648,0,0,1-.751-.751V17.926q0-2.047-1.835-2.047a7.6,7.6,0,0,0-3.28.783V27.579a.828.828,0,0,1-.164.571.772.772,0,0,1-.587.18h-2.888a.648.648,0,0,1-.751-.751V17.926q0-2.047-1.836-2.047a7.327,7.327,0,0,0-3.306.809V27.574a.856.856,0,0,1-.164.571.772.772,0,0,1-.587.18h-2.888Z" transform="translate(-119.941 -5.897)" fill="#1a98ff"/>
    <path id="Trazado_67318" data-name="Trazado 67318" d="M311.758,28.766a7.646,7.646,0,0,1-5.729-2.047,8.046,8.046,0,0,1-2-5.866,8.723,8.723,0,0,1,2.047-6.136,7.348,7.348,0,0,1,5.686-2.227,6.492,6.492,0,0,1,4.375,1.354,4.515,4.515,0,0,1,1.576,3.607,3.865,3.865,0,0,1-1.7,3.412,8.91,8.91,0,0,1-5.009,1.158,11.763,11.763,0,0,1-2.978-.333,4.11,4.11,0,0,0,1.217,2.888,4.8,4.8,0,0,0,3.142.873,12.81,12.81,0,0,0,1.64-.106,20.673,20.673,0,0,0,2.211-.465,1.132,1.132,0,0,1,.18-.048.885.885,0,0,1,.148-.016c.339,0,.513.233.513.693v1.386a1.305,1.305,0,0,1-.132.677,1.088,1.088,0,0,1-.529.344,12.677,12.677,0,0,1-4.66.852m-.989-9.442A4.1,4.1,0,0,0,313,18.859a1.609,1.609,0,0,0,.693-1.428q0-1.9-2.253-1.894-2.888,0-3.338,3.549a13.7,13.7,0,0,0,2.671.238" transform="translate(-143.211 -5.883)" fill="#1a98ff"/>
    <path id="Trazado_67319" data-name="Trazado 67319" d="M66.9,49.324c-5.21,3.846-12.769,5.893-19.275,5.893a34.888,34.888,0,0,1-23.549-8.982c-.487-.439-.053-1.042.534-.7a47.378,47.378,0,0,0,23.56,6.252,46.952,46.952,0,0,0,17.974-3.676c.883-.376,1.619.577.756,1.217" transform="translate(-11.24 -21.401)" fill="#1a98ff" fill-rule="evenodd"/>
    <path id="Trazado_67320" data-name="Trazado 67320" d="M103.515,46.008c-.666-.852-4.406-.4-6.088-.2-.508.063-.587-.386-.127-.7,2.983-2.095,7.871-1.492,8.442-.788s-.148,5.607-2.946,7.95c-.428.36-.841.169-.651-.307.629-1.576,2.036-5.094,1.37-5.951" transform="translate(-45.689 -20.565)" fill="#1a98ff" fill-rule="evenodd"/>
    <path id="Trazado_67321" data-name="Trazado 67321" d="M97.578,16.129V14.093a.5.5,0,0,1,.518-.513h9.13a.506.506,0,0,1,.524.513v1.746a2.868,2.868,0,0,1-.688,1.28l-4.729,6.75a10.123,10.123,0,0,1,5.2,1.116.941.941,0,0,1,.487.793v2.174c0,.3-.328.645-.672.465a10.513,10.513,0,0,0-9.643.016c-.317.169-.651-.175-.651-.471V25.9a2.464,2.464,0,0,1,.339-1.4l5.48-7.86H98.107a.5.5,0,0,1-.529-.508" transform="translate(-45.719 -6.397)" fill="#1a98ff" fill-rule="evenodd"/>
    <path id="Trazado_67322" data-name="Trazado 67322" d="M126.583,15.979c-2.047,0-2.179,2.788-2.179,4.528s-.026,5.459,2.153,5.459c2.153,0,2.253-3,2.253-4.829a13.085,13.085,0,0,0-.418-3.777,1.733,1.733,0,0,0-1.809-1.381m-.026-2.909c4.121,0,6.348,3.539,6.348,8.035,0,4.348-2.46,7.8-6.348,7.8-4.041,0-6.247-3.539-6.247-7.945,0-4.438,2.227-7.887,6.247-7.887" transform="translate(-56.671 -6.157)" fill="#1a98ff" fill-rule="evenodd"/>
    <path id="Trazado_67323" data-name="Trazado 67323" d="M79.8,28.446a.6.6,0,0,1-.656.063,7.307,7.307,0,0,1-1.592-1.851,5.494,5.494,0,0,1-4.575,2.021,3.942,3.942,0,0,1-4.158-4.327,4.718,4.718,0,0,1,2.962-4.538A19.2,19.2,0,0,1,77,18.851a4.933,4.933,0,0,0-.339-2.375,1.946,1.946,0,0,0-1.56-.719,2.109,2.109,0,0,0-2.222,1.634c-.058.307-.286.566-.524.54L69.7,17.645a.484.484,0,0,1-.413-.582C69.9,13.8,72.851,12.81,75.5,12.81a6.318,6.318,0,0,1,4.184,1.381c1.349,1.264,1.222,2.946,1.222,4.782V23.3a3.778,3.778,0,0,0,1.047,2.571.528.528,0,0,1-.011.741c-.571.476-2.137,1.835-2.137,1.835M77,21.681a5.454,5.454,0,0,1-.518,2.946,2.251,2.251,0,0,1-1.92,1.264c-1.063,0-1.687-.809-1.687-2.015,0-2.364,2.121-2.793,4.131-2.793v.6Z" transform="translate(-32.417 -6.034)" fill="#1a98ff" fill-rule="evenodd"/>
    <path id="Trazado_67324" data-name="Trazado 67324" d="M10.981,28.446a.6.6,0,0,1-.656.063,7.307,7.307,0,0,1-1.592-1.851,5.494,5.494,0,0,1-4.575,2.021A3.942,3.942,0,0,1,0,24.352a4.718,4.718,0,0,1,2.962-4.538,19.2,19.2,0,0,1,5.221-.963,4.933,4.933,0,0,0-.339-2.375,1.946,1.946,0,0,0-1.56-.719,2.109,2.109,0,0,0-2.222,1.634c-.058.307-.286.566-.524.54L.878,17.645a.484.484,0,0,1-.413-.582c.619-3.264,3.565-4.253,6.21-4.253a6.318,6.318,0,0,1,4.184,1.381c1.349,1.264,1.222,2.946,1.222,4.782V23.3a3.778,3.778,0,0,0,1.047,2.571.528.528,0,0,1-.011.741c-.566.476-2.137,1.835-2.137,1.835m-2.8-6.765a5.454,5.454,0,0,1-.518,2.946,2.251,2.251,0,0,1-1.92,1.264c-1.063,0-1.687-.809-1.687-2.015,0-2.364,2.121-2.793,4.131-2.793v.6Z" transform="translate(0 -6.034)" fill="#1a98ff" fill-rule="evenodd"/>
    <path id="Trazado_67325" data-name="Trazado 67325" d="M32.714,20.539c0-1.65-.079-3.93,1.92-3.93,1.968,0,1.709,2.338,1.709,3.93l.005,7.554a.525.525,0,0,0,.5.513h2.772a.522.522,0,0,0,.534-.513V20.539a8.608,8.608,0,0,1,.259-2.729,1.841,1.841,0,0,1,1.661-1.169,1.451,1.451,0,0,1,1.634,1.232,17.857,17.857,0,0,1,.079,2.666v7.554a.521.521,0,0,0,.5.513h2.772a.522.522,0,0,0,.534-.513V19.1c0-1.529.18-3.269-.7-4.47a4.1,4.1,0,0,0-7.051,1.079c-.778-1.8-1.867-2.64-3.6-2.64a3.669,3.669,0,0,0-3.655,2.64h-.053V13.89a.519.519,0,0,0-.518-.518H29.418a.519.519,0,0,0-.518.518v14.2a.519.519,0,0,0,.518.518H32.19a.519.519,0,0,0,.518-.518Z" transform="translate(-13.613 -6.157)" fill="#1a98ff" fill-rule="evenodd"/>
    <path id="Trazado_67326" data-name="Trazado 67326" d="M151.858,28.092a.519.519,0,0,1-.518.518h-2.772a.519.519,0,0,1-.518-.518v-14.2a.519.519,0,0,1,.518-.518h2.565a.51.51,0,0,1,.518.407v2.174h.053c.778-1.952,1.867-2.878,3.782-2.878a3.642,3.642,0,0,1,3.243,1.682c.725,1.137.725,3.057.725,4.438v8.966a.529.529,0,0,1-.534.45h-2.782a.516.516,0,0,1-.492-.45l.005-8.611c0-2.883-1.106-2.967-1.74-2.967a1.9,1.9,0,0,0-1.6,1.116,6.472,6.472,0,0,0-.45,2.719Z" transform="translate(-69.738 -6.161)" fill="#1a98ff" fill-rule="evenodd"/>
  </g>
</svg>
