<svg xmlns="http://www.w3.org/2000/svg" xmlns:xlink="http://www.w3.org/1999/xlink" width="512" height="512" viewBox="0 0 512 512">
  <defs>
    <linearGradient id="linear-gradient" x1="0.5" y1="-0.131" x2="0.5" y2="1.228" gradientUnits="objectBoundingBox">
      <stop offset="0" stop-color="#11121a"/>
      <stop offset="0.005" stop-color="#281b3a"/>
      <stop offset="0.542" stop-color="#1d1429"/>
      <stop offset="0.94" stop-color="#4b2d91"/>
      <stop offset="0.978" stop-color="#2e2580"/>
      <stop offset="1" stop-color="#4b2d91"/>
    </linearGradient>
    <linearGradient id="linear-gradient-2" x1="0.478" y1="-0.102" x2="0.5" y2="0.785" gradientUnits="objectBoundingBox">
      <stop offset="0" stop-color="#ef6623"/>
      <stop offset="0.993" stop-color="#f59120"/>
    </linearGradient>
    <linearGradient id="linear-gradient-3" x1="0.484" y1="-0.514" x2="0.507" y2="0.69" xlink:href="#linear-gradient-2"/>
    <linearGradient id="linear-gradient-4" x1="0.477" y1="-0.128" x2="0.499" y2="0.759" xlink:href="#linear-gradient-2"/>
    <linearGradient id="linear-gradient-5" x1="0.5" y1="0.365" x2="0.5" y2="1.196" gradientUnits="objectBoundingBox">
      <stop offset="0" stop-color="#f0f0f0"/>
      <stop offset="1" stop-color="#a6a7aa"/>
    </linearGradient>
    <linearGradient id="linear-gradient-6" x1="0.5" y1="0.367" x2="0.5" y2="1.183" xlink:href="#linear-gradient-5"/>
    <linearGradient id="linear-gradient-7" x1="0.5" y1="0.369" x2="0.5" y2="1.19" xlink:href="#linear-gradient-5"/>
    <clipPath id="clip-app_icon_512x512">
      <rect width="512" height="512"/>
    </clipPath>
  </defs>
  <g id="app_icon_512x512" clip-path="url(#clip-app_icon_512x512)">
    <rect id="Rectángulo_73" data-name="Rectángulo 73" width="512" height="512" rx="50" fill="url(#linear-gradient)"/>
    <g id="Grupo_14583" data-name="Grupo 14583" transform="translate(-164 340)">
      <g id="Componente_5_6" data-name="Componente 5 – 6" transform="translate(245 -222)">
        <g id="Grupo_14577" data-name="Grupo 14577" transform="translate(1.895 118.087)">
          <path id="Trazado_18250" data-name="Trazado 18250" d="M580.141,606.173v-158.5h29.372v56.971q13.742-14.852,35.136-14.854,41.339,0,41.343,43.005v73.377H656.618V532.8q0-19.284-19.174-19.284-14.3,0-27.931,11.415v81.246Z" transform="translate(-580.141 -447.674)" fill="url(#linear-gradient-2)"/>
          <path id="Trazado_18251" data-name="Trazado 18251" d="M751.338,470.8V587.56H728.4l-3.548-14.854q-20.06,14.855-42.561,14.854-35.689,0-35.69-42.229V470.8h29.373v73.754q0,19.284,16.846,19.284,14.3,0,29.151-11.415V470.8Z" transform="translate(-526.657 -429.061)" fill="url(#linear-gradient-3)"/>
          <path id="Trazado_18252" data-name="Trazado 18252" d="M712.438,447.674h29.373v50.984a51.483,51.483,0,0,1,29.37-8.867q49.656,0,49.656,55.863,0,60.52-56.859,60.519a303.827,303.827,0,0,1-51.54-4.767Zm29.373,131.564a77.064,77.064,0,0,0,23.387,3.214q26.6,0,26.6-37.573,0-30.7-22.941-30.7a60.541,60.541,0,0,0-27.045,5.985Z" transform="translate(-473.666 -447.674)" fill="url(#linear-gradient-4)"/>
        </g>
        <path id="Trazado_18253" data-name="Trazado 18253" d="M621.258,393.5" transform="translate(-545.154 -373.188)" fill="#fff"/>
        <path id="Trazado_18254" data-name="Trazado 18254" d="M717.872,454.068l-24.766-71.285H665.913l38.945,101.975h24.474L770.8,382.783H743.609Z" transform="translate(-509.215 -381.812)" fill="url(#linear-gradient-5)"/>
        <path id="Trazado_18255" data-name="Trazado 18255" d="M777.707,423.519H761.2a15.885,15.885,0,0,1-7.777-1.635q-4.364-2.447-4.362-8.562,0-5.85,6.261-8.5,5.171-2.185,14.619-2.186a98.891,98.891,0,0,1,35.768,6.351q.571.219,1.137.448V388.071a110.905,110.905,0,0,0-36.224-5.826q-13.325,0-22.733,2.765a37.41,37.41,0,0,0-11.78,5.606,25.255,25.255,0,0,0-8.131,9.925,28.524,28.524,0,0,0-2.032,6.4,37.918,37.918,0,0,0-.679,7.355,47.551,47.551,0,0,0,.794,9,27.6,27.6,0,0,0,4.75,11.387,22.971,22.971,0,0,0,10.175,7.654,34.377,34.377,0,0,0,7.708,2.021,51.89,51.89,0,0,0,7.651.531h18.453a15.056,15.056,0,0,1,6.131,1.1,7.82,7.82,0,0,1,3.778,3.4,11.65,11.65,0,0,1,1.26,5.7,9.2,9.2,0,0,1-2.251,6.418,12.667,12.667,0,0,1-6.752,3.523,34.268,34.268,0,0,1-7.606.742q-6.186,0-11.968-.525a107.613,107.613,0,0,1-13.783-2.13,88.322,88.322,0,0,1-13.484-4.142v21.365q16.993,5.826,38.264,5.828,43.316,0,43.316-32.05a45.789,45.789,0,0,0-.536-7.2,30.7,30.7,0,0,0-2.534-8.421,23.281,23.281,0,0,0-10.412-10.773Q790.291,423.52,777.707,423.519Z" transform="translate(-461.449 -382.245)" fill="url(#linear-gradient-6)"/>
        <path id="Trazado_18256" data-name="Trazado 18256" d="M657.025,398.154l.339-.381a48.939,48.939,0,0,1,14.65-11.419,40.184,40.184,0,0,1,17.5-4.11c12,0,23.4,5.252,31.945,14.615,8.546,9.82,13.226,19.236,13.226,32.709v55.953H709.251V429.569c0-12.1-9.158-22.836-19.737-22.836-10.988,0-19.941,10.506-19.941,22.836v55.953H644.2V429.569c0-12.331-8.954-22.836-19.941-22.836-10.58,0-19.736,10.733-19.736,22.836v55.953H579.091V429.569c0-13.473,4.68-22.889,13.226-32.709,8.546-9.363,19.941-14.615,31.945-14.615a40.179,40.179,0,0,1,17.5,4.11,48.97,48.97,0,0,1,14.651,11.419c.175.2.206.233.339.381l.132.144Z" transform="translate(-579.091 -382.245)" fill="url(#linear-gradient-7)"/>
      </g>
    </g>
  </g>
</svg>
