<svg id="Grupo_20765" data-name="Grupo 20765" xmlns="http://www.w3.org/2000/svg" width="97.887" height="29.366" viewBox="0 0 97.887 29.366">
  <g id="Grupo_20760" data-name="Grupo 20760" transform="translate(0 0)">
    <path id="Trazado_43365" data-name="Trazado 43365" d="M90.981,342.109H6.116c-.222,0-.442.006-.666.009A9.584,9.584,0,0,0,4,342.248a4.827,4.827,0,0,0-1.377.454,4.665,4.665,0,0,0-1.173.854,4.539,4.539,0,0,0-.854,1.175,4.778,4.778,0,0,0-.453,1.379,9.436,9.436,0,0,0-.13,1.451c-.007.222-.007.445-.011.667v17.129c0,.225,0,.443.011.668a9.435,9.435,0,0,0,.13,1.451,4.766,4.766,0,0,0,.453,1.38,4.494,4.494,0,0,0,.854,1.17,4.545,4.545,0,0,0,1.173.854A4.857,4.857,0,0,0,4,371.338a9.755,9.755,0,0,0,1.452.128c.224,0,.444.008.666.008h85.65c.221,0,.447,0,.668-.008a9.623,9.623,0,0,0,1.449-.128,4.934,4.934,0,0,0,1.383-.457,4.545,4.545,0,0,0,1.172-.854,4.623,4.623,0,0,0,.856-1.17,4.78,4.78,0,0,0,.449-1.38,9.784,9.784,0,0,0,.134-1.451c0-.225,0-.443,0-.668.006-.263.006-.525.006-.793V349.02c0-.265,0-.529-.006-.791,0-.222,0-.445,0-.667a9.785,9.785,0,0,0-.134-1.451,4.793,4.793,0,0,0-.449-1.379,4.685,4.685,0,0,0-2.028-2.029,4.9,4.9,0,0,0-1.383-.454,9.455,9.455,0,0,0-1.449-.128c-.221,0-.447-.008-.668-.009Z" transform="translate(0 -342.109)" fill="#a8a8a8"/>
    <path id="Trazado_43366" data-name="Trazado 43366" d="M8.834,373.561c-.221,0-.436,0-.655-.008a9.2,9.2,0,0,1-1.355-.118,4.265,4.265,0,0,1-1.2-.4,3.923,3.923,0,0,1-1.012-.737,3.859,3.859,0,0,1-.74-1.012,4.146,4.146,0,0,1-.393-1.2,8.979,8.979,0,0,1-.121-1.359c0-.153-.011-.662-.011-.662V350.948s.006-.5.011-.648a8.954,8.954,0,0,1,.12-1.357,4.176,4.176,0,0,1,.394-1.2,3.9,3.9,0,0,1,.736-1.013,4.032,4.032,0,0,1,1.016-.741,4.215,4.215,0,0,1,1.2-.394,9.1,9.1,0,0,1,1.359-.119l.654-.009H94.477l.662.009a8.948,8.948,0,0,1,1.347.118,4.3,4.3,0,0,1,1.211.4,4.054,4.054,0,0,1,1.75,1.754,4.177,4.177,0,0,1,.388,1.2,9.418,9.418,0,0,1,.126,1.368c0,.205,0,.426,0,.645.006.272.006.53.006.791v15.545c0,.263,0,.52-.006.779,0,.236,0,.451,0,.674a9.214,9.214,0,0,1-.124,1.343,4.158,4.158,0,0,1-.391,1.21,3.974,3.974,0,0,1-.736,1,3.922,3.922,0,0,1-1.014.741,4.244,4.244,0,0,1-1.209.4,9.09,9.09,0,0,1-1.355.118c-.212,0-.434.008-.65.008H8.834Z" transform="translate(-2.714 -344.829)" fill="#040505"/>
  </g>
  <g id="Grupo_20761" data-name="Grupo 20761" transform="translate(30.884 4.124)">
    <path id="Trazado_43367" data-name="Trazado 43367" d="M163.357,370.676H166l-.073.712h-1.685v1.088h1.585v.664h-1.585v1.206h1.78l-.064.718h-2.6Z" transform="translate(-163.357 -369.4)" fill="#fff"/>
    <path id="Trazado_43368" data-name="Trazado 43368" d="M180.433,372.825l-1.364-2.149h1l.861,1.5.912-1.5h.973l-1.355,2.122,1.467,2.268h-1.01l-.991-1.652-.994,1.652h-.973Z" transform="translate(-176.007 -369.4)" fill="#fff"/>
    <path id="Trazado_43369" data-name="Trazado 43369" d="M202.768,370.676H204a2.146,2.146,0,0,1,1.316.347,1.182,1.182,0,0,1,.457,1,1.427,1.427,0,0,1-.2.761,1.3,1.3,0,0,1-.553.5,1.832,1.832,0,0,1-.813.173,2.988,2.988,0,0,1-.558-.055v1.664h-.882Zm1.905,1.926a.728.728,0,0,0,.214-.565.623.623,0,0,0-.227-.543,1.149,1.149,0,0,0-.673-.164h-.336v1.428a2.356,2.356,0,0,0,.391.039A.908.908,0,0,0,204.673,372.6Z" transform="translate(-195.317 -369.4)" fill="#fff"/>
    <path id="Trazado_43370" data-name="Trazado 43370" d="M222.507,370.676h.882v3.647h1.758l-.064.743h-2.576Z" transform="translate(-211.324 -369.4)" fill="#fff"/>
    <path id="Trazado_43371" data-name="Trazado 43371" d="M238.358,369.375a1.842,1.842,0,0,1-.747-.775,2.489,2.489,0,0,1-.258-1.159,2.554,2.554,0,0,1,.276-1.214,1.931,1.931,0,0,1,.793-.8,2.51,2.51,0,0,1,1.223-.283,2.331,2.331,0,0,1,1.163.274,1.832,1.832,0,0,1,.743.772,2.484,2.484,0,0,1,.256,1.152,2.572,2.572,0,0,1-.279,1.226,1.937,1.937,0,0,1-.8.805,2.491,2.491,0,0,1-1.211.282A2.33,2.33,0,0,1,238.358,369.375Zm1.934-.609a1.237,1.237,0,0,0,.444-.559,2.093,2.093,0,0,0,.149-.814,2.3,2.3,0,0,0-.13-.8,1.185,1.185,0,0,0-.417-.561,1.214,1.214,0,0,0-.735-.209,1.233,1.233,0,0,0-.73.212,1.3,1.3,0,0,0-.45.568,2,2,0,0,0-.15.784,2.177,2.177,0,0,0,.142.809,1.238,1.238,0,0,0,.434.565,1.2,1.2,0,0,0,.718.208A1.252,1.252,0,0,0,240.292,368.766Zm-1.281-3.892.794-.949.876.076-1.119.94Z" transform="translate(-223.364 -363.925)" fill="#fff"/>
    <path id="Trazado_43372" data-name="Trazado 43372" d="M265.2,370.676h1.44a1.91,1.91,0,0,1,1.179.3,1.031,1.031,0,0,1,.394.866,1.327,1.327,0,0,1-.473,1.04,1.485,1.485,0,0,1-.406.242l1.337,1.937h-1.012l-1.088-1.707h-.488v1.707H265.2Zm1.255,2.031a.977.977,0,0,0,.447-.1.721.721,0,0,0,.3-.277.789.789,0,0,0,.108-.415.52.52,0,0,0-.188-.444.91.91,0,0,0-.552-.141h-.491v1.376Z" transform="translate(-245.949 -369.4)" fill="#fff"/>
    <path id="Trazado_43373" data-name="Trazado 43373" d="M286.607,373.941h-1.679l-.4,1.112h-.888l1.7-4.392h.867l1.74,4.392h-.943Zm-1.437-.679h1.191l-.421-1.161q-.091-.239-.179-.561-.073.267-.173.558Z" transform="translate(-260.901 -369.388)" fill="#fff"/>
    <path id="Trazado_43374" data-name="Trazado 43374" d="M309.282,370.676h.882v3.647h1.758l-.064.743h-2.576Z" transform="translate(-281.694 -369.4)" fill="#fff"/>
    <path id="Trazado_43375" data-name="Trazado 43375" d="M325.133,374.59a1.843,1.843,0,0,1-.747-.775,2.49,2.49,0,0,1-.257-1.16,2.554,2.554,0,0,1,.276-1.214,1.931,1.931,0,0,1,.793-.8,2.51,2.51,0,0,1,1.223-.283,2.331,2.331,0,0,1,1.163.274,1.832,1.832,0,0,1,.743.772,2.484,2.484,0,0,1,.256,1.152,2.572,2.572,0,0,1-.279,1.226,1.937,1.937,0,0,1-.8.8,2.491,2.491,0,0,1-1.211.282A2.33,2.33,0,0,1,325.133,374.59Zm1.934-.609a1.237,1.237,0,0,0,.444-.559,2.093,2.093,0,0,0,.149-.814,2.3,2.3,0,0,0-.13-.8,1.185,1.185,0,0,0-.417-.561,1.214,1.214,0,0,0-.735-.209,1.233,1.233,0,0,0-.73.212,1.3,1.3,0,0,0-.45.568,2,2,0,0,0-.15.784,2.177,2.177,0,0,0,.142.809,1.238,1.238,0,0,0,.434.565,1.2,1.2,0,0,0,.718.208A1.251,1.251,0,0,0,327.067,373.981Z" transform="translate(-293.733 -369.139)" fill="#fff"/>
    <path id="Trazado_43376" data-name="Trazado 43376" d="M362.224,370.676h2.64l-.073.712h-1.685v1.088h1.586v.664h-1.586v1.206h1.78l-.064.718h-2.6Z" transform="translate(-324.627 -369.4)" fill="#fff"/>
    <path id="Trazado_43377" data-name="Trazado 43377" d="M380.742,370.676h1.015l2.031,3.256q-.03-.546-.03-.894v-2.361h.81v4.389h-.985l-2.065-3.307q.034.573.033,1.031v2.277h-.809Z" transform="translate(-339.644 -369.4)" fill="#fff"/>
  </g>
  <g id="Grupo_20764" data-name="Grupo 20764" transform="translate(6.414 5.342)">
    <g id="Grupo_20762" data-name="Grupo 20762" transform="translate(24.169 7.676)">
      <path id="Trazado_43378" data-name="Trazado 43378" d="M167.487,420.435h-3.4l-.831,2.273h-1.494l3.327-8.487H166.5l3.4,8.487h-1.57Zm-2.969-1.154h2.536l-.908-2.431q-.187-.5-.369-1.113-.164.539-.357,1.1Z" transform="translate(-161.765 -413.606)" fill="#fff"/>
      <path id="Trazado_43379" data-name="Trazado 43379" d="M208.19,426.727q0-.7-.047-1.547H209.5a6.776,6.776,0,0,1,.105.8,2.561,2.561,0,0,1,1.933-.92,2.18,2.18,0,0,1,2.041,1.326,4.036,4.036,0,0,1,.331,1.748,4.33,4.33,0,0,1-.378,1.892,2.7,2.7,0,0,1-1.057,1.189,3.013,3.013,0,0,1-1.57.4,3.867,3.867,0,0,1-1.271-.217v2.612l-1.447.123Zm3.8,3.23a2.882,2.882,0,0,0,.442-1.737,2.548,2.548,0,0,0-.366-1.538,1.168,1.168,0,0,0-.975-.477,1.573,1.573,0,0,0-.779.2,2.927,2.927,0,0,0-.679.533v3.385a2.2,2.2,0,0,0,.5.167,2.716,2.716,0,0,0,.568.061A1.5,1.5,0,0,0,211.994,429.957Z" transform="translate(-199.375 -422.399)" fill="#fff"/>
      <path id="Trazado_43380" data-name="Trazado 43380" d="M243.355,426.727q0-.7-.047-1.547h1.359a6.817,6.817,0,0,1,.106.8,2.56,2.56,0,0,1,1.933-.92,2.18,2.18,0,0,1,2.041,1.326,4.036,4.036,0,0,1,.331,1.748,4.327,4.327,0,0,1-.378,1.892,2.7,2.7,0,0,1-1.057,1.189,3.012,3.012,0,0,1-1.57.4,3.867,3.867,0,0,1-1.271-.217v2.612l-1.447.123Zm3.8,3.23a2.88,2.88,0,0,0,.442-1.737,2.548,2.548,0,0,0-.366-1.538,1.167,1.167,0,0,0-.975-.477,1.572,1.572,0,0,0-.779.2,2.927,2.927,0,0,0-.679.533v3.385a2.2,2.2,0,0,0,.5.167,2.716,2.716,0,0,0,.568.061A1.5,1.5,0,0,0,247.159,429.957Z" transform="translate(-227.892 -422.399)" fill="#fff"/>
      <path id="Trazado_43381" data-name="Trazado 43381" d="M279.919,421.829a3.513,3.513,0,0,1-1.441-1.485,4.879,4.879,0,0,1-.5-2.284,4.763,4.763,0,0,1,.579-2.428,3.734,3.734,0,0,1,1.579-1.5,4.924,4.924,0,0,1,2.24-.5,5.9,5.9,0,0,1,1.4.161,6.046,6.046,0,0,1,1.239.442l-.369,1.113a5.122,5.122,0,0,0-2.2-.55,3.081,3.081,0,0,0-1.549.378,2.567,2.567,0,0,0-1.034,1.11,3.9,3.9,0,0,0-.369,1.769,4.274,4.274,0,0,0,.284,1.611,2.38,2.38,0,0,0,.9,1.113,2.715,2.715,0,0,0,1.543.41,5.112,5.112,0,0,0,.844-.07,4.384,4.384,0,0,0,.79-.2V419.2h-1.962v-1.125h3.367v3.573a7.535,7.535,0,0,1-1.526.521,7.16,7.16,0,0,1-1.59.181A4.5,4.5,0,0,1,279.919,421.829Z" transform="translate(-256.005 -413.128)" fill="#fff"/>
      <path id="Trazado_43382" data-name="Trazado 43382" d="M326.236,431.5a5.533,5.533,0,0,1-.1-.838,2.788,2.788,0,0,1-.87.677,2.584,2.584,0,0,1-1.209.278,2.279,2.279,0,0,1-.993-.214,1.657,1.657,0,0,1-.712-.645,1.975,1.975,0,0,1-.264-1.051,1.807,1.807,0,0,1,.662-1.467,3.485,3.485,0,0,1,2.208-.548,8,8,0,0,1,1.148.082v-.123a1.592,1.592,0,0,0-.357-1.18,1.422,1.422,0,0,0-1.025-.343,4.01,4.01,0,0,0-.99.135,5.186,5.186,0,0,0-.925.322l-.228-1.054a5.54,5.54,0,0,1,1.019-.322,5.905,5.905,0,0,1,1.335-.146,3.494,3.494,0,0,1,1.394.249,1.829,1.829,0,0,1,.9.855,3.494,3.494,0,0,1,.322,1.631v2.513q0,.392.047,1.189Zm-.867-1.171a2.309,2.309,0,0,0,.738-.539v-1.171a9.3,9.3,0,0,0-.966-.064,1.968,1.968,0,0,0-1.239.29.971.971,0,0,0-.342.782.893.893,0,0,0,.248.694.971.971,0,0,0,.676.225A2.031,2.031,0,0,0,325.369,430.329Z" transform="translate(-291.779 -422.399)" fill="#fff"/>
      <path id="Trazado_43383" data-name="Trazado 43383" d="M357.657,418.553v-7.468l1.441-.117V418.3a.909.909,0,0,0,.138.571.534.534,0,0,0,.437.167,1.626,1.626,0,0,0,.381-.064l.17,1.037a2.478,2.478,0,0,1-.5.132,3.388,3.388,0,0,1-.559.05Q357.657,420.187,357.657,418.553Z" transform="translate(-320.622 -410.968)" fill="#fff"/>
      <path id="Trazado_43384" data-name="Trazado 43384" d="M376.711,418.553v-7.468l1.44-.117V418.3a.908.908,0,0,0,.138.571.533.533,0,0,0,.436.167,1.626,1.626,0,0,0,.381-.064l.17,1.037a2.479,2.479,0,0,1-.5.132,3.388,3.388,0,0,1-.559.05Q376.711,420.187,376.711,418.553Z" transform="translate(-336.074 -410.968)" fill="#fff"/>
      <path id="Trazado_43385" data-name="Trazado 43385" d="M398.011,428.525h-4.135q.1,1.985,1.892,1.985a4.014,4.014,0,0,0,.911-.108,5.415,5.415,0,0,0,.893-.29l.316.99a5.381,5.381,0,0,1-2.384.515,3.482,3.482,0,0,1-1.7-.381,2.447,2.447,0,0,1-1.04-1.1,3.9,3.9,0,0,1-.348-1.722,4.071,4.071,0,0,1,.369-1.8,2.684,2.684,0,0,1,1.028-1.154,2.877,2.877,0,0,1,1.52-.4,2.555,2.555,0,0,1,1.5.419,2.5,2.5,0,0,1,.89,1.116,3.974,3.974,0,0,1,.29,1.54Zm-1.412-.92a1.8,1.8,0,0,0-.381-1.133,1.16,1.16,0,0,0-.908-.378,1.219,1.219,0,0,0-.917.381,2.022,2.022,0,0,0-.477,1.13Z" transform="translate(-348.812 -422.399)" fill="#fff"/>
      <path id="Trazado_43386" data-name="Trazado 43386" d="M427.969,426.768q0-.521-.047-1.587h1.353q.035.264.067.63t.044.595a5.288,5.288,0,0,1,.495-.7,2.02,2.02,0,0,1,.568-.463,1.508,1.508,0,0,1,.741-.179,2.052,2.052,0,0,1,.574.07l-.182,1.253a1.6,1.6,0,0,0-.469-.064,1.539,1.539,0,0,0-.89.261,3.58,3.58,0,0,0-.814.858V431.5h-1.441Z" transform="translate(-377.603 -422.399)" fill="#fff"/>
      <path id="Trazado_43387" data-name="Trazado 43387" d="M450.6,434.588a3.524,3.524,0,0,1-.521-.126l.264-1.054c.1.027.221.053.369.079a2.508,2.508,0,0,0,.422.038q.96,0,1.441-1.236l.093-.234-2.331-6.372h1.552l1.172,3.561a11.543,11.543,0,0,1,.369,1.4q.164-.685.386-1.371l1.189-3.59h1.458l-2.325,6.4a6.573,6.573,0,0,1-.709,1.464,2.483,2.483,0,0,1-.9.826,2.684,2.684,0,0,1-1.251.269A3.921,3.921,0,0,1,450.6,434.588Z" transform="translate(-395.569 -422.901)" fill="#fff"/>
    </g>
    <g id="Grupo_20763" data-name="Grupo 20763" transform="translate(0 0)">
      <path id="形状_1_拷贝_25" data-name="形状 1 拷贝 25" d="M5.256,0C1.408,0,0,1.408,0,5.256v8.17c0,3.848,1.408,5.256,5.256,5.256h8.167c3.848,0,5.258-1.408,5.258-5.256V5.256C18.682,1.408,17.274,0,13.425,0Z" fill="#c00020"/>
      <path id="Trazado_43389" data-name="Trazado 43389" d="M46.567,419.782h.5v2.442h-.5v-.992H45.448v.992h-.5v-2.442h.5v.985h1.119Zm2.792,1.4c0,.4-.2.609-.555.609s-.558-.218-.558-.626v-1.38h-.5v1.4a.969.969,0,0,0,1.047,1.081.983.983,0,0,0,1.057-1.1v-1.378h-.5Zm5.727.281-.555-1.68h-.4l-.554,1.68-.54-1.678H52.5l.851,2.441h.41l.555-1.6.555,1.6h.414l.849-2.441h-.514Zm1.943-.288h.9v-.445h-.9v-.5h1.308v-.445h-1.8v2.439h1.844v-.445H57.028Zm1.947,1.048h.489v-2.439h-.489Zm-8.142-.507-.222.509H50.1l1.076-2.441h.437l1.072,2.441h-.52l-.219-.509Zm.184-.44h.749l-.376-.874Z" transform="translate(-42.867 -410.44)" fill="#fff"/>
      <path id="Trazado_43390" data-name="Trazado 43390" d="M69.993,389.995a3.113,3.113,0,0,1-3.11-3.11h.439a2.67,2.67,0,1,0,5.341,0H73.1A3.113,3.113,0,0,1,69.993,389.995Z" transform="translate(-60.652 -383.762)" fill="#fff"/>
    </g>
  </g>
</svg>
