<svg xmlns="http://www.w3.org/2000/svg" xmlns:xlink="http://www.w3.org/1999/xlink" width="61.691" height="61.691" viewBox="0 0 61.691 61.691">
  <defs>
    <linearGradient id="linear-gradient" x1="0.5" y1="-0.131" x2="0.5" y2="1.228" gradientUnits="objectBoundingBox">
      <stop offset="0" stop-color="#11121a"/>
      <stop offset="0.005" stop-color="#281b3a"/>
      <stop offset="0.542" stop-color="#1d1429"/>
      <stop offset="0.94" stop-color="#4b2d91"/>
      <stop offset="0.978" stop-color="#2e2580"/>
      <stop offset="1" stop-color="#4b2d91"/>
    </linearGradient>
    <linearGradient id="linear-gradient-2" x1="0.478" y1="-0.102" x2="0.5" y2="0.785" gradientUnits="objectBoundingBox">
      <stop offset="0" stop-color="#ef6623"/>
      <stop offset="0.993" stop-color="#f59120"/>
    </linearGradient>
    <linearGradient id="linear-gradient-3" x1="0.484" y1="-0.514" x2="0.507" y2="0.69" xlink:href="#linear-gradient-2"/>
    <linearGradient id="linear-gradient-4" x1="0.477" y1="-0.128" x2="0.499" y2="0.759" xlink:href="#linear-gradient-2"/>
    <linearGradient id="linear-gradient-5" x1="0.5" y1="0.365" x2="0.5" y2="1.196" gradientUnits="objectBoundingBox">
      <stop offset="0" stop-color="#f0f0f0"/>
      <stop offset="1" stop-color="#a6a7aa"/>
    </linearGradient>
    <linearGradient id="linear-gradient-6" x1="0.5" y1="0.367" x2="0.5" y2="1.183" xlink:href="#linear-gradient-5"/>
    <linearGradient id="linear-gradient-7" x1="0.5" y1="0.369" x2="0.5" y2="1.19" xlink:href="#linear-gradient-5"/>
  </defs>
  <g id="appmvshub" transform="translate(-0.383)">
    <rect id="Rectángulo_21" data-name="Rectángulo 21" width="61.691" height="61.691" rx="13" transform="translate(0.383)" fill="url(#linear-gradient)"/>
    <g id="Componente_5_4" data-name="Componente 5 – 4" transform="translate(9.449 13.383)">
      <g id="Grupo_14577" data-name="Grupo 14577" transform="translate(0.235 14.662)">
        <path id="Trazado_18250" data-name="Trazado 18250" d="M580.141,467.353V447.674h3.647v7.073a5.68,5.68,0,0,1,4.363-1.844q5.133,0,5.133,5.339v9.11h-3.647v-9.11a2.11,2.11,0,0,0-2.381-2.394,5.375,5.375,0,0,0-3.468,1.417v10.087Z" transform="translate(-580.141 -447.674)" fill="url(#linear-gradient-2)"/>
        <path id="Trazado_18251" data-name="Trazado 18251" d="M659.6,470.8v14.5h-2.849l-.441-1.844a8.73,8.73,0,0,1-5.284,1.844q-4.431,0-4.431-5.243V470.8h3.647v9.157q0,2.394,2.092,2.394a5.965,5.965,0,0,0,3.619-1.417V470.8Z" transform="translate(-631.704 -465.619)" fill="url(#linear-gradient-3)"/>
        <path id="Trazado_18252" data-name="Trazado 18252" d="M712.438,447.674h3.647V454a6.392,6.392,0,0,1,3.647-1.1q6.165,0,6.165,6.936,0,7.514-7.06,7.514a37.725,37.725,0,0,1-6.4-.592Zm3.647,16.335a9.568,9.568,0,0,0,2.9.4q3.3,0,3.3-4.665,0-3.812-2.848-3.812a7.516,7.516,0,0,0-3.358.743Z" transform="translate(-682.792 -447.674)" fill="url(#linear-gradient-4)"/>
      </g>
      <path id="Trazado_18253" data-name="Trazado 18253" d="M621.258,393.5" transform="translate(-611.809 -390.977)" fill="#fff"/>
      <path id="Trazado_18254" data-name="Trazado 18254" d="M672.365,391.634l-3.075-8.851h-3.376l4.835,12.661h3.039l5.149-12.661H675.56Z" transform="translate(-646.458 -382.662)" fill="url(#linear-gradient-5)"/>
      <path id="Trazado_18255" data-name="Trazado 18255" d="M731.775,387.37h-2.05a1.972,1.972,0,0,1-.966-.2,1.115,1.115,0,0,1-.542-1.063,1.1,1.1,0,0,1,.777-1.055,4.817,4.817,0,0,1,1.815-.271,12.279,12.279,0,0,1,4.441.789l.141.056v-2.653a13.768,13.768,0,0,0-4.5-.723,10.1,10.1,0,0,0-2.823.343,4.642,4.642,0,0,0-1.463.7,3.135,3.135,0,0,0-1.01,1.232,3.539,3.539,0,0,0-.252.794,4.7,4.7,0,0,0-.084.913,5.908,5.908,0,0,0,.1,1.117,3.427,3.427,0,0,0,.59,1.414,2.853,2.853,0,0,0,1.263.95,4.271,4.271,0,0,0,.957.251,6.45,6.45,0,0,0,.95.066h2.291a1.868,1.868,0,0,1,.761.136.971.971,0,0,1,.469.422,1.447,1.447,0,0,1,.156.707,1.141,1.141,0,0,1-.279.8,1.572,1.572,0,0,1-.838.437,4.257,4.257,0,0,1-.944.092q-.768,0-1.486-.065a13.359,13.359,0,0,1-1.711-.264,10.971,10.971,0,0,1-1.674-.514v2.653a14.6,14.6,0,0,0,4.751.724q5.378,0,5.378-3.979a5.7,5.7,0,0,0-.067-.895,3.813,3.813,0,0,0-.315-1.046,2.89,2.89,0,0,0-1.293-1.338A5.433,5.433,0,0,0,731.775,387.37Z" transform="translate(-692.508 -382.245)" fill="url(#linear-gradient-6)"/>
      <path id="Trazado_18256" data-name="Trazado 18256" d="M588.767,384.22l.042-.047a6.077,6.077,0,0,1,1.819-1.418,4.989,4.989,0,0,1,2.173-.51,5.362,5.362,0,0,1,3.966,1.815,5.76,5.76,0,0,1,1.642,4.061v6.947h-3.158v-6.947a2.734,2.734,0,0,0-2.451-2.835,2.7,2.7,0,0,0-2.476,2.835v6.947h-3.15v-6.947a2.7,2.7,0,0,0-2.476-2.835,2.734,2.734,0,0,0-2.45,2.835v6.947h-3.158v-6.947a5.761,5.761,0,0,1,1.642-4.061,5.362,5.362,0,0,1,3.966-1.815,4.989,4.989,0,0,1,2.173.51,6.077,6.077,0,0,1,1.819,1.418l.042.047.016.018Z" transform="translate(-579.091 -382.245)" fill="url(#linear-gradient-7)"/>
    </g>
  </g>
</svg>
