<svg id="appstore" xmlns="http://www.w3.org/2000/svg" width="87.742" height="28.702" viewBox="0 0 87.742 28.702">
  <g id="appstore-2" data-name="appstore" transform="translate(0 0)">
    <rect id="Rectángulo_9953" data-name="Rectángulo 9953" width="87.742" height="28.702" rx="5.783"/>
    <g id="Grupo_17968" data-name="Grupo 17968" transform="translate(5.889 4.457)">
      <path id="Trazado_25537" data-name="Trazado 25537" d="M52,63.972a14.212,14.212,0,0,1-1.278,2.405c-.841,1.278-2.018,2.859-3.465,2.859s-1.631-.841-3.381-.841-2.119.841-3.414.841-2.59-1.43-3.414-2.708c-2.338-3.549-2.573-7.72-1.144-9.94A5.151,5.151,0,0,1,40.059,54.1c1.514,0,2.523.841,3.8.841s2-.841,3.784-.841a5.087,5.087,0,0,1,3.8,2A4.345,4.345,0,0,0,52,63.972Z" transform="translate(-35.017 -49.458)" fill="#fff"/>
      <path id="Trazado_25538" data-name="Trazado 25538" d="M86.629,29.712a4.278,4.278,0,0,0,.959-3.212,4.618,4.618,0,0,0-3.027,1.631,3.927,3.927,0,0,0-.992,3.128A4,4,0,0,0,86.629,29.712Z" transform="translate(-75.363 -26.5)" fill="#fff"/>
    </g>
    <g id="Grupo_17969" data-name="Grupo 17969" transform="translate(25.884 12.563)">
      <path id="Trazado_25539" data-name="Trazado 25539" d="M157.247,75.7,153.9,85.539h1.53l.992-3.027h3.229l1.026,3.027h1.581L158.9,75.7Zm.79,1.615c.118.437.235.891.387,1.4l.908,2.607h-2.556l.891-2.624C157.785,78.256,157.92,77.8,158.037,77.315Z" transform="translate(-153.9 -75.532)" fill="#fff"/>
      <path id="Trazado_25540" data-name="Trazado 25540" d="M210.6,90.8a2.772,2.772,0,0,0-2.371,1.144l-.067-.975H206.8v.118c.034.605.05,1.278.05,2.237v7.6h1.5V97.393a2.607,2.607,0,0,0,2.035.875,3.061,3.061,0,0,0,2.254-.959,4.049,4.049,0,0,0,.992-2.859,3.741,3.741,0,0,0-.858-2.607A2.826,2.826,0,0,0,210.6,90.8Zm-.37,1.228c1.329,0,1.917,1.228,1.917,2.455,0,1.564-.757,2.54-1.985,2.54a1.8,1.8,0,0,1-1.749-1.379,1.9,1.9,0,0,1-.05-.488V93.962a2.233,2.233,0,0,1,.05-.37v-.118a1.884,1.884,0,0,1,1.816-1.43Z" transform="translate(-197.903 -88.092)" fill="#fff"/>
      <path id="Trazado_25541" data-name="Trazado 25541" d="M256.2,90.8a2.771,2.771,0,0,0-2.371,1.144l-.067-.975H252.4v.118c.034.605.05,1.278.05,2.237v7.6h1.5V97.393a2.607,2.607,0,0,0,2.035.875,3.078,3.078,0,0,0,2.254-.959,4.049,4.049,0,0,0,.992-2.859,3.741,3.741,0,0,0-.858-2.607A2.825,2.825,0,0,0,256.2,90.8Zm-.37,1.228c1.329,0,1.917,1.228,1.917,2.455,0,1.564-.757,2.54-1.984,2.54a1.8,1.8,0,0,1-1.749-1.379,1.9,1.9,0,0,1-.051-.488V93.962a2.2,2.2,0,0,1,.051-.37v-.118a1.884,1.884,0,0,1,1.816-1.43Z" transform="translate(-235.834 -88.092)" fill="#fff"/>
      <path id="Trazado_25542" data-name="Trazado 25542" d="M314.549,79.039c-1.4-.538-1.833-.959-1.833-1.749s.521-1.329,1.7-1.329a3.381,3.381,0,0,1,1.749.437l.118.084.42-1.245-.084-.05a4.259,4.259,0,0,0-2.17-.488c-1.9,0-3.229,1.127-3.229,2.725,0,1.3.824,2.2,2.607,2.842,1.261.471,1.732.959,1.732,1.783s-.723,1.514-1.9,1.514a4.07,4.07,0,0,1-2.153-.605l-.135-.084-.37,1.3.067.05a5.126,5.126,0,0,0,2.523.639c2.556,0,3.465-1.564,3.465-2.893S316.332,79.729,314.549,79.039Z" transform="translate(-284.578 -74.7)" fill="#fff"/>
      <path id="Trazado_25543" data-name="Trazado 25543" d="M350.34,81.7l-1.463.454V83.4H347.8v1.194h1.076v3.65a2.742,2.742,0,0,0,.521,1.884,1.9,1.9,0,0,0,1.446.572,3.5,3.5,0,0,0,1.144-.185l.084-.034L352,89.285l-.135.05a2.236,2.236,0,0,1-.69.084c-.572,0-.824-.37-.824-1.228V84.576h1.8V83.4H350.34Z" transform="translate(-315.189 -80.523)" fill="#fff"/>
      <path id="Trazado_25544" data-name="Trazado 25544" d="M378.032,90.789a3.5,3.5,0,0,0-3.532,3.784,3.36,3.36,0,0,0,3.431,3.666h.017a3.515,3.515,0,0,0,3.532-3.8,3.787,3.787,0,0,0-.942-2.641A3.313,3.313,0,0,0,378.032,90.789Zm-.05,1.177c1.345,0,1.951,1.312,1.951,2.523,0,1.5-.824,2.573-1.985,2.573h0c-1.127,0-1.951-1.06-1.951-2.54s.622-2.556,2-2.556Z" transform="translate(-337.398 -88.081)" fill="#fff"/>
      <path id="Trazado_25545" data-name="Trazado 25545" d="M424.8,90.95h-.084l-.37-.05a2.119,2.119,0,0,0-1.867,1.194l-.05-1.043H421.1v.118c.034.589.05,1.245.05,2.136v4.861h1.5V94.381a3.84,3.84,0,0,1,.034-.572,1.65,1.65,0,0,1,1.564-1.5h.555Z" transform="translate(-376.161 -88.175)" fill="#fff"/>
      <path id="Trazado_25546" data-name="Trazado 25546" d="M446.364,90.8c-1.985,0-3.364,1.581-3.364,3.851a3.292,3.292,0,0,0,3.515,3.6,5.718,5.718,0,0,0,2.355-.454l.084-.034-.286-1.11-.118.05a4.609,4.609,0,0,1-1.867.336,2.084,2.084,0,0,1-2.237-2.153h4.81v-.1a3.317,3.317,0,0,0,.05-.622C449.307,92.6,448.55,90.8,446.364,90.8Zm-.1,1.127a1.463,1.463,0,0,1,1.093.42,2.09,2.09,0,0,1,.5,1.379H444.48A1.892,1.892,0,0,1,446.263,91.927Z" transform="translate(-394.378 -88.092)" fill="#fff"/>
    </g>
    <text id="Disponible_en" data-name="Disponible en" transform="translate(27.391 8.457)" fill="#fff" font-size="5" font-family="MyriadPro-Regular, Myriad Pro"><tspan x="0" y="0">Disponible en</tspan></text>
  </g>
</svg>
