<svg xmlns="http://www.w3.org/2000/svg" width="35.976" height="35.333" viewBox="0 0 35.976 35.333"><defs><style>.a{fill:#00acec;}</style></defs><path class="a" d="M430.146,87.465a.76.76,0,0,0-.793-.049l-34.46,18.363a.758.758,0,0,0,.067,1.37l9.837,4.061,4.447,10.978a.758.758,0,0,0,1.294.19l5.656-7.071,8.909,3.173a.758.758,0,0,0,1-.6l4.352-29.68A.757.757,0,0,0,430.146,87.465Zm-5.24,4.038-19.684,18.241-8.2-3.384ZM411.678,113.5l3.036,1.235L411,119.371Zm-1.24-1.539a.758.758,0,0,0-.152.374l-.753,6.534-3.254-8.035,17.382-16.108Zm14.3,4.785-12.5-4.651,16.291-21.232Z" transform="translate(-394.492 -87.327)"/></svg>