<svg xmlns="http://www.w3.org/2000/svg" xmlns:xlink="http://www.w3.org/1999/xlink" width="97.483" height="48.731" viewBox="0 0 97.483 48.731">
  <defs>
    <clipPath id="clip-path">
      <rect width="97.483" height="48.731" fill="none"/>
    </clipPath>
  </defs>
  <g id="Grupo_27038" data-name="Grupo 27038" transform="translate(-827.001 -2510)">
    <g id="LogoDish" transform="translate(827.001 2510)" clip-path="url(#clip-path)">
      <g id="LogoDish-2" data-name="LogoDish">
        <path id="Trazado_416" data-name="Trazado 416" d="M288.294,10.429c-6.672-8.753-25.794-6.724-44.915,4.11a5.38,5.38,0,0,0-.378-.894c23.558-13.894,46.772-17.8,53.668-8.787,4.247,5.571,1.358,14.978-6.62,25.175a10.2,10.2,0,0,0-1.238-4.351c2.425-5.984,2.442-11.384-.516-15.27" transform="translate(-201.214 -0.011)" fill="#dc091f"/>
        <path id="Trazado_417" data-name="Trazado 417" d="M266.6,139.319c0,4.179,3.284,6.259,6.947,8.185l3.267,1.737c1.771.929,2.579,1.995,2.579,3.422,0,1.892-1.5,3.078-3.921,3.078-4.454,0-5.795-3.456-6.517-6.827l-.12-.533h-2.184v9.509h1.7l.206-.224c.4-.413.4-.413.774-.413a12.081,12.081,0,0,1,2.476.378,20.753,20.753,0,0,0,4.058.567c3.68,0,8.873-2.3,8.873-7.429,0-3.577-2.3-5.176-5.073-6.758l-6.087-3.37a3.489,3.489,0,0,1-2.081-3.164c0-1.358.946-2.751,3.577-2.751,1.943,0,4.35.671,5.571,5.95l.12.516H282.9l-.275-8.512h-1.7l-.206.327a.481.481,0,0,1-.4.241c-.086,0-.567-.155-.86-.241a15.594,15.594,0,0,0-4.385-.808c-4.918,0-8.478,2.992-8.478,7.119" transform="translate(-220.756 -109.469)" fill="#040506"/>
        <path id="Trazado_418" data-name="Trazado 418" d="M6.259,86.461c0-6.724,3.388-9.114,6.294-9.114a4.957,4.957,0,0,1,5.107,4.918V93.942c-.4,1.513-2.2,2.6-4.316,2.6-3.267,0-7.085-2.648-7.085-10.077M22.75,62.817l-.189.052h0c-1.015.344-5,1.548-8.22,2.287l-.533.12v2.1l.774-.069c1.806-.172,2.493.052,2.751.258s.31.757.31,1.548v7.016a8.959,8.959,0,0,0-5.262-1.565,11.88,11.88,0,0,0-8.735,4.11A14.358,14.358,0,0,0,0,88.147c0,12.071,9.836,12.433,10.971,12.433a9.535,9.535,0,0,0,6.672-2.339V100.1l.808.567,9.114-3.009V95.644l-.757.052c-1.771.12-2.442-.1-2.7-.327s-.31-.619-.31-1.324V63.161l-.98-.361Z" transform="translate(0 -52.003)" fill="#040506"/>
        <path id="Trazado_419" data-name="Trazado 419" d="M393.988,98.8c-2.476-.413-2.8-.464-2.8-3.817V84.407c0-5.984-2.562-9.011-7.635-9.011a10.517,10.517,0,0,0-7.583,3.267V64.116l-.929-.516-.086.034-.241.086c-1.187.447-5.812,1.737-7.927,2.287l-.516.138v2.064l.791-.086a11.729,11.729,0,0,1,1.324-.052,1.559,1.559,0,0,1,1.1.31,2.853,2.853,0,0,1,.327,1.53V94.845c0,3.353-.224,3.646-2.975,3.921l-.636.069v2.029h13.069V98.8h-.12c-2.528-.258-3.2-.327-3.2-3.869V82.464c.31-.361,2.631-2.923,5.5-2.923,2.476,0,3.577,1.565,3.577,5.073V94.965c0,3.267-.6,3.628-3.181,3.817h-.034v2.1h12.759V98.886l-.585-.1" transform="translate(-303.229 -52.665)" fill="#040506"/>
        <path id="Trazado_420" data-name="Trazado 420" d="M174.118,251.96c4.316,0,6.483-2.321,8.013-5.073.1-.189.017-.31-.172-.224a19.626,19.626,0,0,1-7.841,1.788,20.127,20.127,0,0,1-7.858-1.788c-.189-.086-.275.034-.172.224,1.53,2.751,3.714,5.073,8.03,5.073" transform="translate(-137.491 -204.227)" fill="#dc091f"/>
        <path id="Trazado_421" data-name="Trazado 421" d="M176.075,209.285c1.187,2.149,2.889,4.024,6.294,4.024s5.107-1.874,6.294-4.024c.086-.138.017-.258-.155-.189a15.081,15.081,0,0,1-12.295,0c-.172-.069-.224.034-.155.189" transform="translate(-145.759 -173.124)" fill="#dc091f"/>
        <path id="Trazado_422" data-name="Trazado 422" d="M185.405,173.981a5.183,5.183,0,0,0,9.458,0c.052-.1,0-.206-.138-.155a12.587,12.587,0,0,1-9.183,0c-.138-.052-.189.034-.138.155" transform="translate(-153.507 -143.925)" fill="#dc091f"/>
        <path id="Trazado_423" data-name="Trazado 423" d="M197.289,142.926a3.462,3.462,0,0,0,3.233-2.149c.052-.086,0-.155-.1-.12a10.971,10.971,0,0,1-6.259,0c-.12-.034-.155.034-.12.12a3.507,3.507,0,0,0,3.233,2.149" transform="translate(-160.662 -116.464)" fill="#dc091f"/>
        <path id="Trazado_424" data-name="Trazado 424" d="M182.7,69.074a4.922,4.922,0,1,1,4.918,4.574,4.754,4.754,0,0,1-4.918-4.574" transform="translate(-151.283 -53.411)" fill="#dc091f"/>
        <path id="Trazado_425" data-name="Trazado 425" d="M550.813,267.337a1.463,1.463,0,0,1-1.513-1.41,1.516,1.516,0,0,1,3.026,0,1.463,1.463,0,0,1-1.513,1.41m0-2.717a1.307,1.307,0,1,0,1.393,1.307,1.358,1.358,0,0,0-1.393-1.307" transform="translate(-454.844 -219.019)" fill="#040506"/>
        <path id="Trazado_426" data-name="Trazado 426" d="M555.2,268.3h.6q.533,0,.533.43a.4.4,0,0,1-.1.292.516.516,0,0,1-.275.138l.447.653h-.275l-.447-.653h-.241v.636H555.2Zm.241.653h.275a.7.7,0,0,0,.292-.052.189.189,0,0,0,.086-.189.172.172,0,0,0-.1-.172.551.551,0,0,0-.258-.052h-.292Z" transform="translate(-459.729 -222.166)" fill="#040506"/>
      </g>
    </g>
  </g>
</svg>
