<svg xmlns="http://www.w3.org/2000/svg" width="86.301" height="47" viewBox="0 0 86.301 47"><defs><style>.a{fill:#ed1420;}</style></defs><g transform="translate(0 0)"><path class="a" d="M866.011,9.9c-5.914-8.3-22.842-6.375-39.77,3.909a5.311,5.311,0,0,0-.34-.851C846.768-.237,867.322-3.935,873.425,4.616c3.765,5.283,1.2,14.215-5.856,23.9a10.091,10.091,0,0,0-1.092-4.128c2.154-5.681,2.162-10.812-.461-14.492" transform="translate(-788.923 -0.015)"/><path d="M906.3,503.265c0,3.971,2.91,5.946,6.156,7.777l2.892,1.643c1.576.886,2.279,1.889,2.279,3.25,0,1.8-1.33,2.919-3.47,2.919-3.944,0-5.131-3.277-5.776-6.487l-.1-.5h-1.934v9.03h1.5l.184-.206c.345-.39.345-.39.681-.39a9.278,9.278,0,0,1,2.189.358,15.926,15.926,0,0,0,3.595.537c3.264,0,7.862-2.189,7.862-7.056,0-3.394-2.033-4.916-4.491-6.42l-5.395-3.2a3.338,3.338,0,0,1-1.84-3.009c0-1.052.842-2.619,3.17-2.619,1.728,0,3.85.64,4.929,5.641l.1.492h1.894l-.237-8.081h-1.513l-.179.313a.424.424,0,0,1-.358.237,4.625,4.625,0,0,1-.757-.224,12.98,12.98,0,0,0-3.882-.775c-4.352,0-7.508,2.843-7.508,6.76" transform="translate(-865.724 -474.272)"/><path d="M5.534,269.566c0-6.389,3-8.659,5.565-8.659a4.551,4.551,0,0,1,4.513,4.665v11.085a3.759,3.759,0,0,1-3.819,2.467c-2.892,0-6.263-2.507-6.263-9.559m14.6-22.448-.161.058h0c-.9.318-4.423,1.477-7.271,2.18l-.475.116v1.979l.685-.072c1.6-.166,2.2.045,2.431.251s.278.716.278,1.477v6.648a7.556,7.556,0,0,0-4.665-1.491,10.246,10.246,0,0,0-7.736,3.909A14.1,14.1,0,0,0,0,271.164c0,11.466,8.712,11.8,9.7,11.8a8.132,8.132,0,0,0,5.914-2.225V282.5l.716.533,8.063-2.852v-1.907l-.672.054c-1.567.121-2.167-.107-2.4-.318s-.273-.6-.273-1.263V247.44l-.864-.34Z" transform="translate(0 -236.038)"/><path d="M1270.375,279.813c-2.2-.389-2.48-.439-2.48-3.631V266.153c0-5.677-2.274-8.556-6.756-8.556a9,9,0,0,0-6.711,3.1V246.892l-.819-.492-.08.031-.21.085c-1.052.43-5.14,1.652-7.016,2.171l-.457.125v1.965l.694-.076a10.113,10.113,0,0,1,1.177-.045,1.4,1.4,0,0,1,.981.287,2.138,2.138,0,0,1,.3,1.455v23.684c0,3.188-.2,3.465-2.633,3.72l-.56.063v1.93h11.569v-1.979l-.1-.013c-2.234-.237-2.839-.3-2.839-3.671v-11.82c.282-.345,2.337-2.771,4.862-2.771,2.194,0,3.17,1.486,3.17,4.817v9.823c0,3.094-.533,3.452-2.82,3.622h-.045V281.8h11.291V279.9l-.515-.09" transform="translate(-1190.024 -235.369)"/><path class="a" d="M571.773,918.776c3.815,0,5.744-2.207,7.1-4.822.089-.175.018-.291-.152-.21a15.04,15.04,0,0,1-13.9,0c-.17-.081-.242.04-.152.21,1.357,2.615,3.286,4.822,7.1,4.822" transform="translate(-539.354 -872.81)"/><path class="a" d="M598.753,773.525c1.052,2.042,2.565,3.819,5.578,3.819s4.526-1.778,5.574-3.819c.072-.139.013-.242-.134-.175a12.529,12.529,0,0,1-10.888,0c-.148-.063-.206.04-.134.175" transform="translate(-571.912 -738.708)"/><path class="a" d="M630.239,644.8c.77,1.513,1.9,2.9,4.182,2.9s3.407-1.388,4.182-2.9c.054-.1.009-.192-.116-.139a10.441,10.441,0,0,1-8.13,0c-.121-.054-.17.036-.116.139" transform="translate(-602.002 -615.78)"/><path class="a" d="M662.611,525.846a3.092,3.092,0,0,0,2.865-2.037c.04-.076,0-.148-.1-.112a8.364,8.364,0,0,1-2.767.434,8.469,8.469,0,0,1-2.771-.434.077.077,0,0,0-.1.112,3.1,3.1,0,0,0,2.87,2.037" transform="translate(-630.192 -500.243)"/><path class="a" d="M621.3,250.447a4.347,4.347,0,1,1,4.347,4.347,4.347,4.347,0,0,1-4.347-4.347" transform="translate(-593.484 -235.083)"/><path d="M1868.747,981.8a1.348,1.348,0,1,1,1.348-1.348,1.348,1.348,0,0,1-1.348,1.348m0-2.583a1.236,1.236,0,1,0,1.236,1.236,1.236,1.236,0,0,0-1.236-1.236" transform="translate(-1783.794 -935.265)"/><path d="M1887.6,992.7h.528q.47,0,.47.4a.382.382,0,0,1-.1.282.447.447,0,0,1-.251.125l.4.618h-.237l-.394-.618h-.215v.618h-.206Zm.206.618h.246a.583.583,0,0,0,.255-.04q.081-.04.081-.179a.174.174,0,0,0-.085-.161.457.457,0,0,0-.233-.049h-.264Z" transform="translate(-1803.09 -948.256)"/></g></svg>