<svg xmlns="http://www.w3.org/2000/svg" xmlns:xlink="http://www.w3.org/1999/xlink" width="456.404" height="48" viewBox="0 0 456.404 48">
  <defs>
    <clipPath id="clip-path">
      <rect id="Rectángulo_19801" data-name="Rectángulo 19801" width="211.425" height="40.971" fill="none"/>
    </clipPath>
  </defs>
  <g id="Grupo_27019" data-name="Grupo 27019" transform="translate(-456 -844)">
    <text id="_" data-name="/" transform="translate(671.774 844)" fill="#1f6fa8" font-size="40" font-family="HelveticaNeue-Light, Helvetica Neue" font-weight="300"><tspan x="1.199" y="39">/</tspan></text>
    <g id="LogoFreedom" transform="translate(456 851.859)">
      <path id="Trazado_5" data-name="Trazado 5" d="M112.651,63.949l-4.2,25.226h6.025l1.608-9.53h9.176l.847-5.015h-9.183l.842-5.287h10.474l.911-5.395Z" transform="translate(-108.45 -63.948)" fill="#00acec"/>
      <path id="Trazado_6" data-name="Trazado 6" d="M132.881,72.49c1.122-1.643,2.808-2.9,4.382-2.9a4.282,4.282,0,0,1,1.858.417l-1.333,5.325a4.974,4.974,0,0,0-1.827-.28,4.885,4.885,0,0,0-3.112,1.646l-1.993,11.84h-5.821L128.153,70h4.52Z" transform="translate(-106.575 -63.446)" fill="#00acec"/>
      <path id="Trazado_7" data-name="Trazado 7" d="M152.6,86.392a15.322,15.322,0,0,1-7.98,2.312c-4.975,0-7.71-2.828-7.71-7.559,0-6.833,4.513-11.56,11.037-11.56,4.654,0,6.864,2.692,6.864,5.868,0,4.106-2.591,5.657-11.737,6.174,0,1.349,1.055,2.452,3.084,2.452a14.171,14.171,0,0,0,5.576-1.343Zm-3.251-10.835c0-.935-.736-1.628-2.108-1.628-2.2,0-3.712,1.765-4.1,3.937,3.19-.24,6.206-.24,6.206-2.308" transform="translate(-105.551 -63.311)" fill="#00acec"/>
      <path id="Trazado_8" data-name="Trazado 8" d="M169.494,86.392a15.32,15.32,0,0,1-7.985,2.312c-4.973,0-7.708-2.828-7.708-7.559,0-6.833,4.52-11.56,11.037-11.56,4.656,0,6.864,2.692,6.864,5.868,0,4.106-2.588,5.657-11.735,6.174,0,1.349,1.053,2.452,3.082,2.452a14.17,14.17,0,0,0,5.573-1.343Zm-3.257-10.835c0-.935-.736-1.628-2.1-1.628-2.212,0-3.716,1.765-4.1,3.937,3.188-.24,6.2-.24,6.2-2.308" transform="translate(-103.83 -63.311)" fill="#00acec"/>
      <path id="Trazado_9" data-name="Trazado 9" d="M182.821,86.929a7.7,7.7,0,0,1-5.887,2.7c-4.135,0-6.128-2.7-6.128-7.216,0-8.061,4.729-12.192,9.629-12.192a5.623,5.623,0,0,1,4.488,2.029l1.372-8.3h5.776l-4.2,25.222h-5.082Zm1.33-10.368a3.634,3.634,0,0,0-2.911-1.435c-2.62,0-4.165,2.241-4.165,6.2,0,2,.7,3.434,2.627,3.434a5.016,5.016,0,0,0,3.363-1.577Z" transform="translate(-102.111 -63.948)" fill="#00acec"/>
      <path id="Trazado_10" data-name="Trazado 10" d="M200.15,69.581c4.87,0,8.094,2.8,8.094,7.767a12.128,12.128,0,0,1-.139,1.869c-1.013,7.071-5.714,9.486-10.968,9.486-5.22,0-8.058-2.757-8.058-7.627a16.607,16.607,0,0,1,.109-1.825c.872-6.942,5.843-9.671,10.962-9.671M195.072,80.8c0,2.246,1.158,3.177,2.907,3.177,1.924,0,3.534-1.242,4.1-4.76a10.514,10.514,0,0,0,.141-1.729c0-2.279-1.128-3.176-2.778-3.176-2.065,0-3.673,1.346-4.2,4.658a12.321,12.321,0,0,0-.175,1.83" transform="translate(-100.242 -63.311)" fill="#00acec"/>
      <path id="Trazado_11" data-name="Trazado 11" d="M214.947,70l.139,2.168a8.332,8.332,0,0,1,5.817-2.59c2.142,0,3.4.88,4,2.491a9.064,9.064,0,0,1,6.125-2.491c3.329,0,4.8,2.068,4.134,6.065L232.99,88.535h-5.814l1.958-11.665c.25-1.5.039-2.315-1.327-2.315a4.641,4.641,0,0,0-2.729,1.23l-2.138,12.75h-5.823l1.93-11.456c.242-1.571.242-2.523-1.115-2.523a4.588,4.588,0,0,0-2.907,1.3l-2.141,12.68h-5.814L210.182,70Z" transform="translate(-98.469 -63.447)" fill="#00acec"/>
      <path id="Trazado_12" data-name="Trazado 12" d="M237.958,63.948h9.669c4.975,0,7.745,2.6,7.745,6.97,0,6.03-3.646,10.271-10.933,10.271h-3.331l-1.324,7.983h-6.03Zm5.151,5.257-1.159,7.008h2.981c2.87,0,4.312-1.715,4.312-4.21,0-1.683-.951-2.8-3.016-2.8Z" transform="translate(-95.714 -63.948)" fill="#00acec"/>
      <path id="Trazado_13" data-name="Trazado 13" d="M264.142,69.581c4.873,0,8.1,2.8,8.1,7.767a11.716,11.716,0,0,1-.138,1.869c-1.017,7.071-5.714,9.486-10.966,9.486-5.222,0-8.061-2.757-8.061-7.627a15.358,15.358,0,0,1,.108-1.825c.875-6.942,5.848-9.671,10.96-9.671M259.069,80.8c0,2.246,1.155,3.177,2.9,3.177,1.933,0,3.544-1.242,4.1-4.76a10.517,10.517,0,0,0,.141-1.729c0-2.279-1.122-3.176-2.775-3.176-2.059,0-3.676,1.346-4.2,4.658a12.892,12.892,0,0,0-.172,1.83" transform="translate(-93.971 -63.311)" fill="#00acec"/>
      <path id="Trazado_14" data-name="Trazado 14" d="M269.121,95.537,273.391,70h4.732l.287,2.138a8.827,8.827,0,0,1,6.157-2.554c3.433,0,5.851,2.307,5.851,7.247,0,7.074-3.327,12.123-9.455,12.123A5.951,5.951,0,0,1,276.34,87l-1.406,8.541Zm7.952-12.889a4.228,4.228,0,0,0,3.016,1.471c2.445,0,4.061-2,4.061-6.372,0-2.175-.739-3.332-2.385-3.332a6.086,6.086,0,0,0-3.606,1.752Z" transform="translate(-92.157 -63.598)" fill="#00acec"/>
      <path id="Trazado_15" data-name="Trazado 15" d="M292.292,84.934a2.073,2.073,0,1,1-2.067-2.017,2.027,2.027,0,0,1,2.067,2.017m-3.63,0a1.564,1.564,0,0,0,1.575,1.612,1.613,1.613,0,0,0-.012-3.222,1.568,1.568,0,0,0-1.563,1.611m1.243,1.059h-.467V83.974a4.1,4.1,0,0,1,.775-.061,1.264,1.264,0,0,1,.7.147.564.564,0,0,1,.2.443.517.517,0,0,1-.418.467V85a.6.6,0,0,1,.368.492,1.554,1.554,0,0,0,.148.505h-.5a1.786,1.786,0,0,1-.16-.492c-.037-.223-.159-.321-.417-.321h-.222Zm.012-1.144h.221c.258,0,.468-.087.468-.3,0-.184-.136-.307-.431-.307a1.116,1.116,0,0,0-.258.024Z" transform="translate(-90.006 -62.019)" fill="#00acec"/>
    </g>
    <g id="Grupo_27018" data-name="Grupo 27018" transform="translate(700.979 847)">
      <g id="Grupo_27017" data-name="Grupo 27017" transform="translate(0 0)" clip-path="url(#clip-path)">
        <path id="Trazado_67314" data-name="Trazado 67314" d="M183.43,39.173a1.037,1.037,0,0,1-.692-.2.936.936,0,0,1-.218-.711v-24.3a.936.936,0,0,1,.218-.711,1,1,0,0,1,.692-.2h2.621a.943.943,0,0,1,1.019.8l.256.948a8.13,8.13,0,0,1,2.64-1.679,8.476,8.476,0,0,1,3.153-.622,6.77,6.77,0,0,1,5.595,2.589,10.936,10.936,0,0,1,2.057,7,12.727,12.727,0,0,1-1.019,5.281,8.257,8.257,0,0,1-2.769,3.48,6.821,6.821,0,0,1-4.005,1.218,8.543,8.543,0,0,1-2.839-.474,6.7,6.7,0,0,1-2.294-1.314v7.979a.752.752,0,0,1-.91.91H183.43Zm7.979-11.113a3.409,3.409,0,0,0,3.006-1.384,7.782,7.782,0,0,0,.968-4.371,7.943,7.943,0,0,0-.948-4.409,3.408,3.408,0,0,0-3.025-1.384,6.9,6.9,0,0,0-3.57.987V27.08a6.719,6.719,0,0,0,3.57.981" transform="translate(-65.548 -4.489)" fill="#1a98ff"/>
        <path id="Trazado_67315" data-name="Trazado 67315" d="M217.48,31.877a.785.785,0,0,1-.91-.91v-16.8a.935.935,0,0,1,.218-.711,1,1,0,0,1,.692-.2H220.1a.943.943,0,0,1,1.019.8l.474,1.967a10.44,10.44,0,0,1,2.749-2.275,5.89,5.89,0,0,1,2.749-.673h.513a1.071,1.071,0,0,1,.731.2.936.936,0,0,1,.218.711v3.063a1,1,0,0,1-.2.692.936.936,0,0,1-.711.218q-.26,0-.654-.038t-1.019-.038a10.639,10.639,0,0,0-2.038.237,10.081,10.081,0,0,0-2.038.6V30.967a1.037,1.037,0,0,1-.2.692.936.936,0,0,1-.711.218Z" transform="translate(-77.776 -4.697)" fill="#1a98ff"/>
        <path id="Trazado_67316" data-name="Trazado 67316" d="M241.723,5.678a3.186,3.186,0,0,1-2.224-.763,2.685,2.685,0,0,1-.84-2.076A2.663,2.663,0,0,1,239.5.763a3.624,3.624,0,0,1,4.448,0,2.685,2.685,0,0,1,.84,2.076,2.685,2.685,0,0,1-.84,2.076,3.157,3.157,0,0,1-2.224.763m-1.75,21.5a.785.785,0,0,1-.91-.91V9.472a.936.936,0,0,1,.218-.711,1,1,0,0,1,.692-.2h3.5a.994.994,0,0,1,.711.2.994.994,0,0,1,.2.711v16.8a1.037,1.037,0,0,1-.2.692.936.936,0,0,1-.711.218Z" transform="translate(-85.709 0)" fill="#1a98ff"/>
        <path id="Trazado_67317" data-name="Trazado 67317" d="M255.54,31.676a.785.785,0,0,1-.91-.91v-16.8a.936.936,0,0,1,.218-.711,1,1,0,0,1,.692-.2h2.621a.943.943,0,0,1,1.019.8l.295.987a15.634,15.634,0,0,1,3.48-1.8,9.793,9.793,0,0,1,3.185-.526,4.9,4.9,0,0,1,4.627,2.333,14.85,14.85,0,0,1,3.5-1.788,10.639,10.639,0,0,1,3.39-.545,5.308,5.308,0,0,1,3.954,1.423,5.407,5.407,0,0,1,1.4,3.973V30.779a1.037,1.037,0,0,1-.2.692.936.936,0,0,1-.711.218h-3.5a.785.785,0,0,1-.91-.91V19.07q0-2.48-2.224-2.48a9.207,9.207,0,0,0-3.973.948V30.766a1,1,0,0,1-.2.692.936.936,0,0,1-.711.218h-3.5a.785.785,0,0,1-.91-.91V19.07q0-2.48-2.224-2.48a8.878,8.878,0,0,0-4.005.981V30.759a1.037,1.037,0,0,1-.2.692.935.935,0,0,1-.711.218h-3.5Z" transform="translate(-91.444 -4.496)" fill="#1a98ff"/>
        <path id="Trazado_67318" data-name="Trazado 67318" d="M313.393,32.21q-4.518,0-6.941-2.48t-2.422-7.107a10.568,10.568,0,0,1,2.48-7.434,8.9,8.9,0,0,1,6.889-2.7,7.865,7.865,0,0,1,5.3,1.641,5.47,5.47,0,0,1,1.91,4.371,4.682,4.682,0,0,1-2.057,4.134,10.8,10.8,0,0,1-6.069,1.4,14.251,14.251,0,0,1-3.608-.4,4.979,4.979,0,0,0,1.474,3.5,5.815,5.815,0,0,0,3.807,1.057,15.521,15.521,0,0,0,1.987-.128,25.048,25.048,0,0,0,2.679-.564,1.37,1.37,0,0,1,.218-.058,1.073,1.073,0,0,1,.179-.019c.41,0,.622.282.622.84v1.679a1.582,1.582,0,0,1-.16.82,1.318,1.318,0,0,1-.641.417,15.359,15.359,0,0,1-5.646,1.032m-1.2-11.44a4.963,4.963,0,0,0,2.7-.564,1.95,1.95,0,0,0,.84-1.73q0-2.3-2.73-2.294-3.5,0-4.044,4.3a16.6,16.6,0,0,0,3.236.288" transform="translate(-109.185 -4.485)" fill="#1a98ff"/>
        <path id="Trazado_67319" data-name="Trazado 67319" d="M76,50.148c-6.313,4.659-15.471,7.139-23.353,7.139A42.269,42.269,0,0,1,24.117,46.405c-.59-.532-.064-1.263.647-.852a57.4,57.4,0,0,0,28.545,7.575,56.886,56.886,0,0,0,21.777-4.454c1.07-.455,1.961.7.916,1.474" transform="translate(-8.57 -16.316)" fill="#1a98ff" fill-rule="evenodd"/>
        <path id="Trazado_67320" data-name="Trazado 67320" d="M104.894,46.505c-.808-1.032-5.338-.487-7.376-.244-.615.077-.711-.468-.154-.852,3.615-2.538,9.536-1.807,10.228-.955s-.179,6.793-3.57,9.632c-.519.436-1.019.205-.788-.372.763-1.91,2.467-6.172,1.66-7.21" transform="translate(-34.834 -15.679)" fill="#1a98ff" fill-rule="evenodd"/>
        <path id="Trazado_67321" data-name="Trazado 67321" d="M97.688,16.669V14.2a.6.6,0,0,1,.628-.622h11.062a.613.613,0,0,1,.634.622v2.115a3.474,3.474,0,0,1-.833,1.551l-5.729,8.178a12.264,12.264,0,0,1,6.306,1.352,1.14,1.14,0,0,1,.59.961v2.634c0,.365-.4.782-.814.564a12.738,12.738,0,0,0-11.683.019c-.385.205-.788-.211-.788-.57v-2.5a2.985,2.985,0,0,1,.41-1.7l6.639-9.523H98.329a.606.606,0,0,1-.641-.615" transform="translate(-34.857 -4.877)" fill="#1a98ff" fill-rule="evenodd"/>
        <path id="Trazado_67322" data-name="Trazado 67322" d="M127.911,16.595c-2.48,0-2.64,3.377-2.64,5.486s-.032,6.614,2.608,6.614c2.608,0,2.73-3.634,2.73-5.851a15.854,15.854,0,0,0-.506-4.576,2.1,2.1,0,0,0-2.192-1.673m-.032-3.525c4.992,0,7.69,4.287,7.69,9.735,0,5.268-2.98,9.446-7.69,9.446-4.9,0-7.569-4.287-7.569-9.626,0-5.377,2.7-9.555,7.569-9.555" transform="translate(-43.206 -4.694)" fill="#1a98ff" fill-rule="evenodd"/>
        <path id="Trazado_67323" data-name="Trazado 67323" d="M82.125,31.754a.721.721,0,0,1-.795.077A8.853,8.853,0,0,1,79.4,29.588a6.657,6.657,0,0,1-5.544,2.448c-2.833,0-5.037-1.75-5.037-5.242a5.716,5.716,0,0,1,3.589-5.5c1.826-.8,4.377-.948,6.325-1.166,0,0,.16-2.108-.41-2.878a2.358,2.358,0,0,0-1.891-.872,2.555,2.555,0,0,0-2.692,1.98c-.07.372-.346.686-.634.654l-3.224-.346a.586.586,0,0,1-.5-.7c.75-3.954,4.319-5.153,7.524-5.153a7.654,7.654,0,0,1,5.069,1.673c1.634,1.532,1.48,3.57,1.48,5.794v5.242a4.578,4.578,0,0,0,1.269,3.115.64.64,0,0,1-.013.9c-.692.577-2.589,2.224-2.589,2.224m-3.4-8.2a6.608,6.608,0,0,1-.628,3.57,2.727,2.727,0,0,1-2.326,1.532c-1.288,0-2.044-.981-2.044-2.442,0-2.865,2.57-3.384,5.005-3.384v.724Z" transform="translate(-24.715 -4.6)" fill="#1a98ff" fill-rule="evenodd"/>
        <path id="Trazado_67324" data-name="Trazado 67324" d="M13.3,31.754a.721.721,0,0,1-.795.077,8.853,8.853,0,0,1-1.929-2.243,6.657,6.657,0,0,1-5.544,2.448C2.2,32.036,0,30.287,0,26.794a5.716,5.716,0,0,1,3.589-5.5c1.826-.8,4.377-.948,6.325-1.166,0,0,.16-2.108-.41-2.878a2.358,2.358,0,0,0-1.891-.872,2.555,2.555,0,0,0-2.692,1.98c-.07.372-.346.686-.634.654l-3.224-.346a.586.586,0,0,1-.5-.7c.75-3.954,4.319-5.153,7.524-5.153a7.654,7.654,0,0,1,5.069,1.673c1.634,1.532,1.48,3.57,1.48,5.794v5.242a4.578,4.578,0,0,0,1.269,3.115.64.64,0,0,1-.013.9c-.686.577-2.589,2.224-2.589,2.224m-3.39-8.2a6.608,6.608,0,0,1-.628,3.57A2.727,2.727,0,0,1,6.96,28.659c-1.288,0-2.044-.981-2.044-2.442,0-2.865,2.57-3.384,5.005-3.384v.724Z" transform="translate(0 -4.6)" fill="#1a98ff" fill-rule="evenodd"/>
        <path id="Trazado_67325" data-name="Trazado 67325" d="M33.521,22.119c0-2-.1-4.762,2.326-4.762,2.384,0,2.07,2.833,2.07,4.762l.006,9.152a.636.636,0,0,0,.6.622h3.358a.632.632,0,0,0,.647-.622V22.119a10.43,10.43,0,0,1,.314-3.307A2.231,2.231,0,0,1,44.858,17.4a1.758,1.758,0,0,1,1.98,1.493,21.635,21.635,0,0,1,.1,3.23v9.152a.631.631,0,0,0,.6.622h3.358a.632.632,0,0,0,.647-.622V20.376c0-1.852.218-3.961-.846-5.415a4.969,4.969,0,0,0-8.543,1.307c-.942-2.179-2.262-3.2-4.364-3.2a4.446,4.446,0,0,0-4.428,3.2H33.3v-2.2a.629.629,0,0,0-.628-.628h-3.14a.629.629,0,0,0-.628.628v17.2a.629.629,0,0,0,.628.628h3.358a.629.629,0,0,0,.628-.628Z" transform="translate(-10.379 -4.694)" fill="#1a98ff" fill-rule="evenodd"/>
        <path id="Trazado_67326" data-name="Trazado 67326" d="M152.664,31.268a.629.629,0,0,1-.628.628h-3.358a.629.629,0,0,1-.628-.628v-17.2a.629.629,0,0,1,.628-.628h3.108a.618.618,0,0,1,.628.493v2.634h.064c.942-2.365,2.262-3.486,4.582-3.486a4.412,4.412,0,0,1,3.929,2.038c.878,1.378.878,3.7.878,5.377V31.358a.641.641,0,0,1-.647.545h-3.371a.626.626,0,0,1-.6-.545l.006-10.433c0-3.493-1.339-3.6-2.108-3.6a2.3,2.3,0,0,0-1.935,1.352,7.842,7.842,0,0,0-.545,3.294Z" transform="translate(-53.168 -4.697)" fill="#1a98ff" fill-rule="evenodd"/>
      </g>
    </g>
  </g>
</svg>
