<svg xmlns="http://www.w3.org/2000/svg" width="226.723" height="54" viewBox="0 0 226.723 54"><defs><style>.a,.b{fill:#00a1ed;}.b{font-size:15px;font-family:GothamMedium, Gotham Medium;}</style></defs><g transform="translate(-607 -1987)"><g transform="translate(607 1987)"><g transform="translate(0 0)"><path class="a" d="M8.452,3.6,3.7,32.187h6.82l1.826-10.8h10.4L23.7,15.7H13.3l.943-5.986H26.12L27.147,3.6Z" transform="translate(-3.7 -3.6)"/><g transform="translate(20.908)"><path class="a" d="M185.488,65.689c1.27-1.862,3.18-3.289,4.97-3.289a4.861,4.861,0,0,1,2.1.472l-1.512,6.034a4.888,4.888,0,0,0-5.6,1.548L183.19,83.864H176.6l3.531-20.993h5.127Z" transform="translate(-176.6 -55.289)"/><path class="a" d="M318.176,81.724a17.153,17.153,0,0,1-9.045,2.66c-5.635,0-8.731-3.253-8.731-8.695,0-7.86,5.115-13.29,12.5-13.29,5.272,0,7.775,3.1,7.775,6.748,0,4.716-2.938,6.506-13.3,7.1,0,1.548,1.2,2.818,3.495,2.818a15.757,15.757,0,0,0,6.312-1.548ZM314.5,69.269c0-1.076-.834-1.874-2.382-1.874-2.5,0-4.208,2.032-4.643,4.523,3.616-.278,7.026-.278,7.026-2.66" transform="translate(-285.429 -55.29)"/><path class="a" d="M494.376,81.724a17.153,17.153,0,0,1-9.045,2.66c-5.635,0-8.731-3.253-8.731-8.695,0-7.86,5.127-13.29,12.5-13.29,5.272,0,7.776,3.1,7.776,6.748,0,4.716-2.926,6.506-13.29,7.1,0,1.548,1.2,2.818,3.495,2.818a15.758,15.758,0,0,0,6.312-1.548Zm-3.688-12.455c0-1.076-.834-1.874-2.382-1.874-2.5,0-4.208,2.032-4.644,4.523,3.616-.278,7.026-.278,7.026-2.66" transform="translate(-440.323 -55.29)"/><path class="a" d="M667.516,29.635a8.757,8.757,0,0,1-6.675,3.059c-4.68,0-6.941-3.059-6.941-8.175,0-9.13,5.357-13.81,10.907-13.81a6.364,6.364,0,0,1,5.079,2.3l1.56-9.408h6.542l-4.764,28.587h-5.756Zm1.511-11.742a4.111,4.111,0,0,0-3.3-1.62c-2.975,0-4.716,2.539-4.716,7.026,0,2.261.8,3.894,2.975,3.894a5.681,5.681,0,0,0,3.809-1.79Z" transform="translate(-596.182 -3.6)"/><path class="a" d="M856.952,62.4c5.514,0,9.166,3.217,9.166,8.936a14.131,14.131,0,0,1-.157,2.152C864.812,81.615,859.492,84.4,853.53,84.4s-9.13-3.168-9.13-8.767a19.275,19.275,0,0,1,.121-2.092c.992-7.981,6.627-11.125,12.419-11.125M851.2,75.3c0,2.588,1.306,3.652,3.289,3.652,2.177,0,4-1.427,4.644-5.478a12.18,12.18,0,0,0,.157-1.983c0-2.624-1.282-3.652-3.144-3.652-2.346,0-4.16,1.548-4.753,5.357a14.429,14.429,0,0,0-.193,2.1" transform="translate(-763.646 -55.29)"/><path class="a" d="M1040.937,62.784l.157,2.455a9.437,9.437,0,0,1,6.59-2.938c2.431,0,3.857.992,4.535,2.818a10.254,10.254,0,0,1,6.941-2.818c3.773,0,5.442,2.346,4.68,6.869l-2.455,14.608h-6.591l2.213-13.217c.278-1.705.048-2.624-1.5-2.624a5.28,5.28,0,0,0-3.1,1.391l-2.418,14.451h-6.6L1045.58,70.8c.278-1.778.278-2.854-1.27-2.854a4.749,4.749,0,0,0-3.289,1.475l-2.431,14.366H1032l3.531-20.993Z" transform="translate(-928.56 -55.202)"/><path class="a" d="M1315.153,3.6h10.956c5.635,0,8.779,2.938,8.779,7.9,0,6.832-4.136,11.633-12.383,11.633h-3.773l-1.5,9.045H1310.4Zm5.841,5.962-1.306,7.945h3.362c3.253,0,4.885-1.947,4.885-4.764,0-1.911-1.076-3.168-3.422-3.168Z" transform="translate(-1173.295 -3.6)"/><path class="a" d="M1524.34,62.4c5.526,0,9.178,3.217,9.178,8.936a13.706,13.706,0,0,1-.169,2.14c-1.149,8.126-6.469,10.907-12.419,10.907s-9.13-3.168-9.13-8.767a17.75,17.75,0,0,1,.121-2.092c.992-7.981,6.627-11.125,12.419-11.125M1518.6,75.3c0,2.588,1.306,3.652,3.289,3.652,2.189,0,4.015-1.427,4.643-5.478a12.152,12.152,0,0,0,.157-1.983c0-2.624-1.27-3.652-3.144-3.652-2.334,0-4.16,1.548-4.752,5.357a14.86,14.86,0,0,0-.193,2.1" transform="translate(-1350.34 -55.29)"/><path class="a" d="M1679.1,91.8l4.837-28.925h5.357l.327,2.419a10.021,10.021,0,0,1,6.977-2.89c3.894,0,6.627,2.612,6.627,8.211,0,8.017-3.773,13.737-10.714,13.737a6.723,6.723,0,0,1-5.236-2.225l-1.6,9.674Zm9.009-14.608a4.791,4.791,0,0,0,3.422,1.669c2.769,0,4.607-2.261,4.607-7.219,0-2.467-.834-3.773-2.7-3.773a6.89,6.89,0,0,0-4.087,1.983Z" transform="translate(-1497.41 -55.29)"/></g></g></g><text class="b" transform="translate(720 2039)"><tspan x="-62.513" y="0">Telefonía celular</tspan></text></g></svg>