<?xml version="1.0" encoding="utf-8"?>
<!-- Generator: Adobe Illustrator 25.2.0, SVG Export Plug-In . SVG Version: 6.00 Build 0)  -->
<svg version="1.1" id="Capa_1" xmlns="http://www.w3.org/2000/svg" xmlns:xlink="http://www.w3.org/1999/xlink" x="0px" y="0px"
	 viewBox="0 0 239.9 54.1" style="enable-background:new 0 0 239.9 54.1;" xml:space="preserve">
<style type="text/css">
	.st0{fill:#FFFFFF;}
	.st1{enable-background:new    ;}
</style>
<g transform="translate(-109 -38.921)">
	<g transform="translate(109 38.921)">
		<g transform="translate(0 0)">
			<path class="st0" d="M5,0L0,30.2h7.2l1.9-11.4h11l1-6h-11l1-6.3h12.6L24.8,0H5z"/>
			<g transform="translate(22.124)">
				<path class="st0" d="M9.4,11c1.3-2,3.4-3.5,5.3-3.5c0.8,0,1.5,0.2,2.2,0.5l-1.6,6.4c-2.1-0.8-4.5-0.1-5.9,1.6L7,30.2H0L3.7,8
					h5.4L9.4,11z"/>
				<path class="st0" d="M34.7,28c-2.9,1.8-6.2,2.8-9.6,2.8c-6,0-9.2-3.4-9.2-9.2c0-8.3,5.4-14.1,13.2-14.1c5.6,0,8.2,3.3,8.2,7.1
					c0,5-3.1,6.9-14.1,7.5c0,1.6,1.3,3,3.7,3c2.3-0.1,4.6-0.6,6.7-1.6L34.7,28z M30.8,14.8c0-1.1-0.9-2-2.5-2
					c-2.6,0-4.5,2.2-4.9,4.8C27.2,17.3,30.8,17.3,30.8,14.8"/>
				<path class="st0" d="M57.2,28c-2.9,1.8-6.2,2.8-9.6,2.8c-6,0-9.2-3.4-9.2-9.2c0-8.3,5.4-14.1,13.2-14.1c5.6,0,8.2,3.3,8.2,7.1
					c0,5-3.1,6.9-14.1,7.5c0,1.6,1.3,3,3.7,3c2.3-0.1,4.6-0.6,6.7-1.6L57.2,28z M53.3,14.8c0-1.1-0.9-2-2.5-2
					c-2.6,0-4.5,2.2-4.9,4.8C49.7,17.3,53.3,17.3,53.3,14.8"/>
				<path class="st0" d="M75.5,27.5c-1.8,2.1-4.3,3.2-7.1,3.2c-5,0-7.3-3.2-7.3-8.6c0-9.7,5.7-14.6,11.5-14.6
					c2.1-0.1,4.1,0.8,5.4,2.4l1.7-10h6.9l-5,30.2h-6.1L75.5,27.5z M77.1,15.1c-0.8-1.1-2.1-1.7-3.5-1.7c-3.1,0-5,2.7-5,7.4
					c0,2.4,0.8,4.1,3.1,4.1c1.5-0.1,3-0.8,4-1.9L77.1,15.1z"/>
				<path class="st0" d="M98.7,7.5c5.8,0,9.7,3.4,9.7,9.5c0,0.8-0.1,1.5-0.2,2.3c-1.2,8.6-6.8,11.5-13.2,11.5s-9.7-3.4-9.7-9.3
					c0-0.7,0-1.5,0.1-2.2C86.6,10.9,92.6,7.5,98.7,7.5 M92.6,21.2c0,2.7,1.4,3.9,3.5,3.9c2.3,0,4.2-1.5,4.9-5.8
					c0.1-0.7,0.2-1.4,0.2-2.1c0-2.8-1.4-3.9-3.3-3.9c-2.5,0-4.4,1.6-5,5.7C92.7,19.7,92.7,20.4,92.6,21.2"/>
				<path class="st0" d="M118.9,8l0.2,2.6c1.8-1.9,4.3-3,7-3.1c2.6,0,4.1,1,4.8,3c2-1.9,4.6-2.9,7.3-3c4,0,5.8,2.5,5,7.3l-2.6,15.5
					h-7l2.3-14c0.3-1.8,0.1-2.8-1.6-2.8c-1.2,0.1-2.4,0.6-3.3,1.5l-2.6,15.3h-7l2.3-13.7c0.3-1.9,0.3-3-1.3-3
					c-1.3,0-2.6,0.6-3.5,1.6l-2.6,15.2h-7L113.2,8L118.9,8z"/>
				<path class="st0" d="M150.1,0h11.6c6,0,9.3,3.1,9.3,8.4c0,7.2-4.4,12.3-13.1,12.3h-4l-1.6,9.6h-7.2L150.1,0z M156.3,6.3
					l-1.4,8.4h3.6c3.4,0,5.2-2.1,5.2-5c0-2-1.1-3.4-3.6-3.4L156.3,6.3z"/>
				<path class="st0" d="M184.1,7.5c5.8,0,9.7,3.4,9.7,9.5c0,0.8-0.1,1.5-0.2,2.3c-1.2,8.6-6.8,11.5-13.1,11.5s-9.7-3.4-9.7-9.3
					c0-0.7,0-1.5,0.1-2.2C172,10.9,178,7.5,184.1,7.5 M178,21.2c0,2.7,1.4,3.9,3.5,3.9c2.3,0,4.2-1.5,4.9-5.8
					c0.1-0.7,0.2-1.4,0.2-2.1c0-2.8-1.3-3.9-3.3-3.9c-2.5,0-4.4,1.6-5,5.7C178.1,19.7,178.1,20.4,178,21.2"/>
				<path class="st0" d="M192.3,38.6L197.4,8h5.7l0.3,2.6c2-1.9,4.6-3,7.4-3.1c4.1,0,7,2.8,7,8.7c0,8.5-4,14.5-11.3,14.5
					c-2.1,0.1-4.1-0.8-5.5-2.4l-1.7,10.2H192.3z M201.8,23.2c0.9,1.1,2.2,1.7,3.6,1.8c2.9,0,4.9-2.4,4.9-7.6c0-2.6-0.9-4-2.9-4
					c-1.6,0.2-3.2,0.9-4.3,2.1L201.8,23.2z"/>
			</g>
		</g>
	</g>
	<g class="st1">
		<path class="st0" d="M153.5,90v-8.9h-3.2v-1.8h8.5v1.8h-3.2V90H153.5z"/>
		<path class="st0" d="M160.3,90V79.3h8v1.8h-5.8v2.4h5.4v1.8h-5.4v2.9h6V90H160.3z"/>
		<path class="st0" d="M170.3,90V79.4h2.2v8.8h5.4V90H170.3z"/>
		<path class="st0" d="M179.4,90V79.3h8v1.8h-5.8v2.4h5.4v1.8h-5.4v2.9h6V90H179.4z"/>
		<path class="st0" d="M189.5,90V79.3h7.4v1.8h-5.2v2.5h4.5v1.8h-4.5V90H189.5z"/>
		<path class="st0" d="M198.2,84.7c0-1.1,0.2-2,0.5-2.8c0.2-0.5,0.6-1,1-1.5c0.4-0.4,0.9-0.8,1.4-1c0.7-0.3,1.4-0.4,2.3-0.4
			c1.6,0,2.8,0.5,3.8,1.5c0.9,1,1.4,2.3,1.4,4.1c0,1.7-0.5,3.1-1.4,4.1c-0.9,1-2.2,1.5-3.8,1.5c-1.6,0-2.9-0.5-3.8-1.5
			C198.6,87.7,198.2,86.4,198.2,84.7z M200.4,84.6c0,1.2,0.3,2.1,0.8,2.8c0.6,0.6,1.3,0.9,2.1,0.9s1.6-0.3,2.1-0.9
			c0.6-0.6,0.8-1.6,0.8-2.8c0-1.2-0.3-2.1-0.8-2.8c-0.5-0.6-1.3-0.9-2.1-0.9s-1.6,0.3-2.2,0.9C200.7,82.5,200.4,83.4,200.4,84.6z"/>
		<path class="st0" d="M210.3,90V79.3h2.1l4.4,7.2v-7.2h2V90h-2.2l-4.3-7v7H210.3z"/>
		<path class="st0" d="M220.8,78.6l1-2.2h2.3l-2,2.2H220.8z M221,90V79.3h2.2V90H221z"/>
		<path class="st0" d="M235,90h-2.4l-0.9-2.4h-4.3l-0.9,2.4h-2.3l4.2-10.7h2.3L235,90z M231,85.8l-1.5-4l-1.5,4H231z"/>
		<path class="st0" d="M246.6,86.1l2.1,0.7c-0.3,1.2-0.9,2-1.6,2.6c-0.8,0.6-1.7,0.9-2.9,0.9c-1.4,0-2.6-0.5-3.5-1.5
			c-0.9-1-1.4-2.3-1.4-4c0-1.8,0.5-3.2,1.4-4.2c0.9-1,2.1-1.5,3.6-1.5c1.3,0,2.4,0.4,3.2,1.2c0.5,0.5,0.9,1.1,1.1,2l-2.1,0.5
			c-0.1-0.6-0.4-1-0.8-1.3c-0.4-0.3-0.9-0.5-1.5-0.5c-0.8,0-1.4,0.3-1.9,0.9c-0.5,0.6-0.7,1.5-0.7,2.8c0,1.4,0.2,2.3,0.7,2.9
			s1.1,0.9,1.9,0.9c0.6,0,1.1-0.2,1.5-0.5C246.1,87.4,246.4,86.8,246.6,86.1z"/>
		<path class="st0" d="M250.6,90V79.3h8v1.8h-5.8v2.4h5.4v1.8h-5.4v2.9h6V90H250.6z"/>
		<path class="st0" d="M260.6,90V79.4h2.2v8.8h5.4V90H260.6z"/>
		<path class="st0" d="M269.7,79.3h2.2v5.8c0,0.9,0,1.5,0.1,1.8c0.1,0.4,0.3,0.8,0.7,1.1c0.3,0.3,0.8,0.4,1.4,0.4
			c0.6,0,1.1-0.1,1.4-0.4c0.3-0.3,0.5-0.6,0.6-0.9s0.1-1,0.1-1.8v-5.9h2.2v5.6c0,1.3-0.1,2.2-0.2,2.7s-0.3,1-0.6,1.3
			c-0.3,0.4-0.7,0.7-1.3,0.9c-0.5,0.2-1.2,0.3-2.1,0.3c-1,0-1.8-0.1-2.3-0.4c-0.5-0.2-0.9-0.5-1.3-0.9c-0.3-0.4-0.5-0.8-0.6-1.2
			c-0.1-0.6-0.2-1.5-0.2-2.7V79.3z"/>
		<path class="st0" d="M280.6,90V79.4h2.2v8.8h5.4V90H280.6z"/>
		<path class="st0" d="M299.4,90H297l-0.9-2.4h-4.3l-0.9,2.4h-2.3l4.2-10.7h2.3L299.4,90z M295.4,85.8l-1.5-4l-1.4,4H295.4z"/>
		<path class="st0" d="M300.6,90V79.3h4.6c1.1,0,2,0.1,2.5,0.3c0.5,0.2,0.9,0.5,1.2,1s0.5,1.1,0.5,1.7c0,0.8-0.2,1.5-0.7,2
			c-0.5,0.5-1.2,0.9-2.1,1c0.5,0.3,0.9,0.6,1.2,0.9c0.3,0.3,0.7,0.9,1.2,1.7l1.3,2.1h-2.6l-1.6-2.3c-0.6-0.8-0.9-1.4-1.1-1.6
			c-0.2-0.2-0.4-0.4-0.7-0.4c-0.2-0.1-0.6-0.1-1.1-0.1h-0.4V90H300.6z M302.7,83.8h1.6c1,0,1.7,0,1.9-0.1c0.3-0.1,0.5-0.2,0.6-0.5
			s0.2-0.5,0.2-0.8c0-0.4-0.1-0.7-0.3-0.9c-0.2-0.2-0.5-0.4-0.8-0.4c-0.2,0-0.7,0-1.6,0h-1.7V83.8z"/>
	</g>
</g>
</svg>
