<svg id="googleplay" xmlns="http://www.w3.org/2000/svg" xmlns:xlink="http://www.w3.org/1999/xlink" width="87.754" height="28.702" viewBox="0 0 87.754 28.702">
  <defs>
    <clipPath id="clip-path">
      <path id="Trazado_25598" data-name="Trazado 25598" d="M50.821,40.737l-3.946-2.282-7.635-4.409c-.429-.24-.841-.1-.841.412V52.421c0,.377.309.549.669.343l7.806-4.512,3.963-2.282,3.792-2.2c.446-.257.412-.618.034-.806Z" transform="translate(-38.4 -33.932)" fill="none"/>
    </clipPath>
    <linearGradient id="linear-gradient" x1="0.5" x2="0.5" y2="1" gradientUnits="objectBoundingBox">
      <stop offset="0" stop-color="#006aa2"/>
      <stop offset="0.34" stop-color="#2f8da7"/>
      <stop offset="0.79" stop-color="#66b6ad"/>
      <stop offset="1" stop-color="#7cc6af"/>
    </linearGradient>
    <linearGradient id="linear-gradient-2" x1="-0.001" y1="0.5" x2="1.001" y2="0.5" gradientUnits="objectBoundingBox">
      <stop offset="0" stop-color="#4ab59d"/>
      <stop offset="1" stop-color="#dfe385"/>
    </linearGradient>
    <linearGradient id="linear-gradient-3" x1="0.5" y1="-0.001" x2="0.5" y2="1.001" gradientUnits="objectBoundingBox">
      <stop offset="0" stop-color="#e4282d"/>
      <stop offset="0.32" stop-color="#bb2e4f"/>
      <stop offset="0.78" stop-color="#84357b"/>
      <stop offset="1" stop-color="#6e388d"/>
    </linearGradient>
    <linearGradient id="linear-gradient-4" x1="0.5" y1="0.002" x2="0.5" y2="0.999" gradientUnits="objectBoundingBox">
      <stop offset="0" stop-color="#f07165"/>
      <stop offset="0.66" stop-color="#fba460"/>
      <stop offset="1" stop-color="#ffba5e"/>
    </linearGradient>
  </defs>
  <path id="Trazado_25593" data-name="Trazado 25593" d="M87.754,24.825A3.877,3.877,0,0,1,83.877,28.7h-80A3.877,3.877,0,0,1,0,24.825V3.877A3.877,3.877,0,0,1,3.877,0h80a3.877,3.877,0,0,1,3.877,3.877Z" fill="#1a1818"/>
  <g id="PLAY" transform="translate(6.588 5.821)">
    <g id="Grupo_17982" data-name="Grupo 17982" clip-path="url(#clip-path)">
      <path id="Trazado_25594" data-name="Trazado 25594" d="M38.4,32.2V51.638l9.8-9.71Z" transform="translate(-38.4 -32.497)" fill="url(#linear-gradient)"/>
      <path id="Trazado_25595" data-name="Trazado 25595" d="M50.821,38.971,46.875,36.69,38.4,31.8v.069L48.2,41.6Z" transform="translate(-38.4 -32.166)" fill="url(#linear-gradient-2)"/>
      <path id="Trazado_25596" data-name="Trazado 25596" d="M38.4,98.61v.069l8.475-4.89,3.946-2.282L48.2,88.9Z" transform="translate(-38.4 -79.47)" fill="url(#linear-gradient-3)"/>
      <path id="Trazado_25597" data-name="Trazado 25597" d="M98.125,73.6,95.5,76.225l2.625,2.608,4.529-2.608Z" transform="translate(-85.704 -66.794)" fill="url(#linear-gradient-4)"/>
    </g>
  </g>
  <g id="Grupo_17983" data-name="Grupo 17983" transform="translate(65.657 12.696)">
    <path id="Trazado_25599" data-name="Trazado 25599" d="M385.342,93.047a2.454,2.454,0,0,1-1.012-.206,1.9,1.9,0,0,1-.772-.635h-.069a7.561,7.561,0,0,1,.069.944v2.333H382.7V87.3h.7l.12.772h.034a1.991,1.991,0,0,1,.772-.669,2.333,2.333,0,0,1,1.012-.206,2.064,2.064,0,0,1,1.733.772,3.52,3.52,0,0,1,.618,2.162,3.377,3.377,0,0,1-.618,2.162A2.093,2.093,0,0,1,385.342,93.047Zm-.12-5.13a1.5,1.5,0,0,0-1.252.48,2.545,2.545,0,0,0-.395,1.527v.189a2.834,2.834,0,0,0,.395,1.7,1.5,1.5,0,0,0,1.27.515,1.321,1.321,0,0,0,1.149-.6,3.432,3.432,0,0,0,0-3.26,1.372,1.372,0,0,0-1.184-.549Z" transform="translate(-382.7 -84.933)" fill="#f9f9f9"/>
    <path id="Trazado_25600" data-name="Trazado 25600" d="M419.158,82.012H418.3V74h.858Z" transform="translate(-412.192 -74)" fill="#f9f9f9"/>
    <path id="Trazado_25601" data-name="Trazado 25601" d="M433.18,92.947l-.172-.806h-.034a2.368,2.368,0,0,1-.841.721,2.556,2.556,0,0,1-1.047.189,1.913,1.913,0,0,1-1.321-.429,1.578,1.578,0,0,1-.48-1.235q0-1.716,2.745-1.8l.961-.034v-.343a1.388,1.388,0,0,0-.292-.978,1.2,1.2,0,0,0-.909-.309,3.723,3.723,0,0,0-1.6.429l-.275-.652a4.03,4.03,0,0,1,.909-.36,3.963,3.963,0,0,1,1-.137,2.137,2.137,0,0,1,1.493.446,1.887,1.887,0,0,1,.48,1.441v3.86Zm-1.939-.6a1.732,1.732,0,0,0,1.252-.446,1.63,1.63,0,0,0,.463-1.235v-.515l-.858.034a2.989,2.989,0,0,0-1.475.326.961.961,0,0,0-.446.875.875.875,0,0,0,.275.7A1.167,1.167,0,0,0,431.241,92.347Z" transform="translate(-421.29 -84.935)" fill="#f9f9f9"/>
    <path id="Trazado_25602" data-name="Trazado 25602" d="M458.6,87.8h.909l1.235,3.225a12.322,12.322,0,0,1,.5,1.6h.034q.069-.257.274-.892t1.407-3.912h.926l-2.436,6.434a3.174,3.174,0,0,1-.841,1.355,1.8,1.8,0,0,1-1.184.395,3.449,3.449,0,0,1-.772-.086v-.686a2.985,2.985,0,0,0,.635.069,1.306,1.306,0,0,0,1.252-1l.309-.806Z" transform="translate(-445.578 -85.432)" fill="#f9f9f9"/>
  </g>
  <g id="Grupo_17985" data-name="Grupo 17985" transform="translate(26.627 12.061)">
    <path id="Trazado_25603" data-name="Trazado 25603" d="M284.392,88.746a1.99,1.99,0,0,1,.841,1.6,2.011,2.011,0,0,1-1,1.681.839.839,0,0,0-.326.583.652.652,0,0,0,.309.515l.429.326a2.09,2.09,0,0,1,1,1.664c0,1.115-1.081,2.23-3.105,2.23-1.716,0-2.539-.823-2.539-1.7a1.681,1.681,0,0,1,.909-1.441,5.57,5.57,0,0,1,2.265-.549,1.184,1.184,0,0,1-.36-.806,1.063,1.063,0,0,1,.12-.463h-.377A1.859,1.859,0,0,1,280.6,90.53a2.128,2.128,0,0,1,.755-1.578,3.245,3.245,0,0,1,2.11-.652H285.9l-.755.429ZM283.551,94h-.275a4.717,4.717,0,0,0-1.235.189,1.318,1.318,0,0,0-1.012,1.218c0,.841.823,1.441,2.076,1.441s1.733-.549,1.733-1.27S284.461,94.631,283.551,94Zm.343-2.247a1.2,1.2,0,0,0,.292-.858c0-.858-.515-2.179-1.493-2.179a1.1,1.1,0,0,0-.823.395,1.373,1.373,0,0,0-.257.875c0,.789.463,2.11,1.475,2.11A1.218,1.218,0,0,0,283.894,91.748Z" transform="translate(-258.589 -85.212)" fill="#f9f9f9"/>
    <path id="Trazado_25604" data-name="Trazado 25604" d="M248.282,93.142a2.779,2.779,0,0,1-2.882-2.779,2.927,2.927,0,0,1,3.054-2.865,2.762,2.762,0,0,1,2.814,2.779A2.873,2.873,0,0,1,248.282,93.142Zm1.475-.961a2.127,2.127,0,0,0,.36-1.3c0-1.047-.5-3.019-1.956-3.019a1.647,1.647,0,0,0-1.064.395,1.775,1.775,0,0,0-.549,1.441c0,1.167.583,3.088,2.007,3.088A1.51,1.51,0,0,0,249.758,92.181Z" transform="translate(-229.925 -84.547)" fill="#f9f9f9"/>
    <path id="Trazado_25605" data-name="Trazado 25605" d="M210.982,93.142a2.779,2.779,0,0,1-2.882-2.779,2.927,2.927,0,0,1,3.054-2.865,2.762,2.762,0,0,1,2.814,2.779A2.873,2.873,0,0,1,210.982,93.142Zm1.475-.961a2.145,2.145,0,0,0,.36-1.3c0-1.047-.5-3.019-1.956-3.019a1.647,1.647,0,0,0-1.064.395,1.775,1.775,0,0,0-.549,1.441c0,1.167.583,3.088,2.007,3.088A1.51,1.51,0,0,0,212.458,92.181Z" transform="translate(-199.024 -84.547)" fill="#f9f9f9"/>
    <path id="Trazado_25606" data-name="Trazado 25606" d="M163.384,80.032l-1.7.395a12.577,12.577,0,0,1-1.956.206,4.218,4.218,0,0,1-4.529-4.289,4.489,4.489,0,0,1,4.787-4.443,6.829,6.829,0,0,1,1.819.257,4.632,4.632,0,0,1,1.561.738l-.978.909-.412.1.292-.48a3.382,3.382,0,0,0-2.539-1.115,3.285,3.285,0,0,0-3.294,3.5,4.313,4.313,0,0,0,4.22,4.341,3.534,3.534,0,0,0,1.51-.292V77.939l-1.784.1.944-.515h2.522l-.309.292a.274.274,0,0,0-.12.189c-.017.1-.017.446-.017.566Z" transform="translate(-155.2 -71.625)" fill="#f9f9f9"/>
    <path id="Trazado_25607" data-name="Trazado 25607" d="M315.322,78.363c-.395-.034-.48-.1-.48-.566V71c.051-.412.172-.48.532-.7h-1.681l-.892.429h.909v7.326c0,.24-.051.275-.326.635h2.093l.446-.257Z" transform="translate(-285.762 -70.3)" fill="#f9f9f9"/>
    <path id="Trazado_25608" data-name="Trazado 25608" d="M334.806,92.548l-.395.206a2.745,2.745,0,0,1-1.149.223,2.522,2.522,0,0,1-1.561-.463,3.02,3.02,0,0,1-1.2-2.488,2.685,2.685,0,0,1,2.694-2.728,2.3,2.3,0,0,1,1.218.326,1.956,1.956,0,0,1,.823,1.167l-2.762,1.149-.909.069A2.617,2.617,0,0,0,334,92.377a3.054,3.054,0,0,0,1.441-.412Zm-1.115-3.517c.223-.086.343-.154.343-.326a1.176,1.176,0,0,0-1.167-1.012c-.635,0-1.355.36-1.355,1.63,0,.206.017.412.034.618Z" transform="translate(-300.425 -84.382)" fill="#f9f9f9"/>
    <g id="Grupo_17984" data-name="Grupo 17984" transform="translate(35.17 2.934)">
      <path id="Trazado_25609" data-name="Trazado 25609" d="M360.56,87.486v.772h-.1v-.772H360.2V87.4h.6v.086Z" transform="translate(-360.2 -87.4)" fill="#f9f9f9"/>
      <path id="Trazado_25610" data-name="Trazado 25610" d="M365.335,88.258v-.789h0l-.24.789h-.069l-.24-.789h0v.789H364.7V87.4h.154l.223.686h0l.223-.686h.154v.858Z" transform="translate(-363.928 -87.4)" fill="#f9f9f9"/>
    </g>
  </g>
  <text id="Disponible_en" data-name="Disponible en" transform="translate(26.18 7.962)" fill="#fff" font-size="5" font-family="MyriadPro-Regular, Myriad Pro"><tspan x="0" y="0">Disponible en</tspan></text>
</svg>
