<svg xmlns="http://www.w3.org/2000/svg" width="239.91" height="54.079" viewBox="0 0 239.91 54.079"><defs><style>.a,.b{fill:#fff;}.b{font-size:15px;font-family:AkzidenzGroteskBE-Bold;font-weight:700;}</style></defs><g transform="translate(-109 -38.921)"><g transform="translate(109 38.921)"><g transform="translate(0 0)"><path class="a" d="M8.729,3.6,3.7,33.849h7.217l1.932-11.427h11l1.011-6.014h-11l1-6.334H27.424L28.511,3.6Z" transform="translate(-3.7 -3.6)"/><g transform="translate(22.124)"><path class="a" d="M186,65.88c1.344-1.971,3.365-3.48,5.259-3.48a5.144,5.144,0,0,1,2.226.5l-1.6,6.385a5.173,5.173,0,0,0-5.924,1.638l-2.393,14.191H176.6L180.336,62.9h5.425Z" transform="translate(-176.6 -54.876)"/><path class="a" d="M319.21,82.848a18.15,18.15,0,0,1-9.571,2.815c-5.963,0-9.239-3.442-9.239-9.2,0-8.317,5.413-14.063,13.231-14.063,5.579,0,8.228,3.276,8.228,7.14,0,4.99-3.109,6.884-14.075,7.511,0,1.638,1.267,2.981,3.7,2.981a16.673,16.673,0,0,0,6.679-1.638Zm-3.89-13.18c0-1.139-.883-1.983-2.521-1.983-2.649,0-4.453,2.15-4.914,4.786,3.826-.294,7.434-.294,7.434-2.815" transform="translate(-284.559 -54.876)"/><path class="a" d="M495.41,82.848a18.151,18.151,0,0,1-9.571,2.815c-5.963,0-9.239-3.442-9.239-9.2,0-8.317,5.425-14.063,13.231-14.063,5.579,0,8.228,3.276,8.228,7.14,0,4.99-3.1,6.884-14.063,7.511,0,1.638,1.267,2.981,3.7,2.981a16.673,16.673,0,0,0,6.679-1.638Zm-3.9-13.18c0-1.139-.883-1.983-2.521-1.983-2.649,0-4.453,2.15-4.914,4.786,3.826-.294,7.434-.294,7.434-2.815" transform="translate(-438.212 -54.876)"/><path class="a" d="M668.308,31.15a9.266,9.266,0,0,1-7.063,3.237c-4.952,0-7.345-3.237-7.345-8.65,0-9.661,5.669-14.613,11.542-14.613a6.734,6.734,0,0,1,5.374,2.431L672.467,3.6h6.923l-5.042,30.249h-6.091Zm1.6-12.425a4.351,4.351,0,0,0-3.493-1.715c-3.148,0-4.99,2.687-4.99,7.434,0,2.393.844,4.12,3.148,4.12a6.012,6.012,0,0,0,4.031-1.894Z" transform="translate(-592.825 -3.6)"/><path class="a" d="M857.682,62.4c5.835,0,9.7,3.4,9.7,9.456a14.965,14.965,0,0,1-.166,2.278c-1.216,8.6-6.846,11.542-13.154,11.542S844.4,82.323,844.4,76.4a20.355,20.355,0,0,1,.128-2.214c1.049-8.445,7.012-11.772,13.141-11.772m-6.078,13.64c0,2.738,1.382,3.864,3.48,3.864,2.3,0,4.235-1.51,4.914-5.8a12.868,12.868,0,0,0,.166-2.1c0-2.777-1.356-3.864-3.327-3.864-2.482,0-4.4,1.638-5.029,5.669a15.252,15.252,0,0,0-.2,2.226" transform="translate(-758.949 -54.876)"/><path class="a" d="M1041.456,62.812l.167,2.6A9.986,9.986,0,0,1,1048.6,62.3c2.572,0,4.082,1.049,4.8,2.981a10.85,10.85,0,0,1,7.345-2.981c3.992,0,5.758,2.482,4.952,7.268l-2.6,15.457h-6.974l2.342-13.986c.294-1.8.051-2.777-1.587-2.777a5.587,5.587,0,0,0-3.276,1.472l-2.559,15.291h-6.987l2.316-13.73c.294-1.881.294-3.02-1.343-3.02a5.028,5.028,0,0,0-3.481,1.561l-2.572,15.2H1032l3.736-22.214Z" transform="translate(-922.544 -54.789)"/><path class="a" d="M1315.429,3.6h11.593c5.963,0,9.29,3.109,9.29,8.356,0,7.23-4.376,12.31-13.1,12.31h-3.992l-1.587,9.571h-7.23Zm6.18,6.308-1.382,8.407h3.557c3.442,0,5.169-2.06,5.169-5.042,0-2.022-1.139-3.353-3.621-3.353Z" transform="translate(-1165.32 -3.6)"/><path class="a" d="M1525.069,62.4c5.848,0,9.712,3.4,9.712,9.456a14.538,14.538,0,0,1-.179,2.265c-1.215,8.6-6.846,11.542-13.141,11.542s-9.661-3.353-9.661-9.277a18.815,18.815,0,0,1,.128-2.214c1.049-8.445,7.012-11.772,13.141-11.772m-6.078,13.653c0,2.738,1.382,3.864,3.48,3.864,2.316,0,4.248-1.51,4.914-5.8a12.882,12.882,0,0,0,.166-2.1c0-2.777-1.344-3.864-3.327-3.864-2.47,0-4.4,1.638-5.029,5.669a15.753,15.753,0,0,0-.2,2.226" transform="translate(-1340.949 -54.876)"/><path class="a" d="M1679.1,93.507l5.118-30.608h5.669l.345,2.559a10.6,10.6,0,0,1,7.383-3.058c4.12,0,7.012,2.764,7.012,8.688,0,8.484-3.992,14.536-11.337,14.536a7.115,7.115,0,0,1-5.541-2.354l-1.689,10.237Zm9.533-15.457a5.07,5.07,0,0,0,3.621,1.766c2.93,0,4.875-2.393,4.875-7.639,0-2.61-.883-3.992-2.854-3.992a7.291,7.291,0,0,0-4.325,2.1Z" transform="translate(-1486.841 -54.876)"/></g></g></g><text class="b" transform="translate(228 90)"><tspan x="-77.978" y="0">TELEFONÍA CELULAR</tspan></text></g></svg>