<?xml version="1.0" encoding="utf-8"?>
<!-- Generator: Adobe Illustrator 25.2.0, SVG Export Plug-In . SVG Version: 6.00 Build 0)  -->
<svg version="1.1" id="Capa_1" xmlns="http://www.w3.org/2000/svg" xmlns:xlink="http://www.w3.org/1999/xlink" x="0px" y="0px"
	 viewBox="0 0 291.6 65.7" style="enable-background:new 0 0 291.6 65.7;" xml:space="preserve">
<style type="text/css">
	.st0{fill:#11B1ED;}
	.st1{enable-background:new    ;}
</style>
<g transform="translate(0 0)">
	<path class="st0" d="M6.1,0L0,36.8h8.8l2.3-13.9h13.4l1.2-7.3H12.3l1.2-7.7h15.3L30.2,0H6.1z"/>
	<g transform="translate(26.889)">
		<path class="st0" d="M11.4,13.4c1.6-2.4,4.1-4.2,6.4-4.2c0.9,0,1.9,0.2,2.7,0.6l-1.9,7.8c-2.6-1-5.5-0.2-7.2,2L8.5,36.7H0l4.5-27
			h6.6L11.4,13.4z"/>
		<path class="st0" d="M42.1,34c-3.5,2.2-7.5,3.4-11.6,3.4c-7.2,0-11.2-4.2-11.2-11.2c0-10.1,6.6-17.1,16.1-17.1c6.8,0,10,4,10,8.7
			c0,6.1-3.8,8.4-17.1,9.1c0,2,1.5,3.6,4.5,3.6c2.4,0,4.6-0.6,8.1-2L42.1,34z M37.4,18c0-1.4-1.1-2.4-3.1-2.4c-3.2,0-5.4,2.6-6,5.8
			C33,21,37.4,21,37.4,18"/>
		<path class="st0" d="M69.5,34c-3.5,2.2-7.5,3.4-11.6,3.4c-7.2,0-11.2-4.2-11.2-11.2c0-10.1,6.6-17.1,16.1-17.1c6.8,0,10,4,10,8.7
			c0,6.1-3.8,8.4-17.1,9.1c0,2,1.5,3.6,4.5,3.6c2.4,0,4.6-0.6,8.1-2L69.5,34z M64.8,18c0-1.4-1.1-2.4-3.1-2.4c-3.2,0-5.4,2.6-6,5.8
			C60.4,21,64.8,21,64.8,18"/>
		<path class="st0" d="M91.7,33.5c-2.1,2.5-5.3,3.9-8.6,3.9c-6,0-8.9-3.9-8.9-10.5c0-11.7,6.9-17.8,14-17.8c2.5-0.1,4.9,1,6.5,3
			l2-12.1h8.4l-6.1,36.8h-7.4L91.7,33.5z M93.7,18.4c-1-1.3-2.6-2.1-4.2-2.1c-3.8,0-6.1,3.3-6.1,9c0,2.9,1,5,3.8,5
			c1.9-0.1,3.6-0.9,4.9-2.3L93.7,18.4z"/>
		<path class="st0" d="M120,9.1c7.1,0,11.8,4.1,11.8,11.5c0,0.9-0.1,1.9-0.2,2.8c-1.5,10.5-8.3,14-16,14s-11.7-4.1-11.7-11.3
			c0-0.9,0.1-1.8,0.2-2.7C105.3,13.2,112.5,9.2,120,9.1 M112.6,25.7c0,3.3,1.7,4.7,4.2,4.7c2.8,0,5.1-1.8,6-7
			c0.1-0.8,0.2-1.7,0.2-2.6c0-3.4-1.6-4.7-4-4.7c-3,0-5.3,2-6.1,6.9C112.7,23.9,112.6,24.8,112.6,25.7"/>
		<path class="st0" d="M144.5,9.8l0.2,3.2c2.2-2.3,5.3-3.7,8.5-3.8c3.1,0,5,1.3,5.8,3.6c2.4-2.3,5.6-3.6,8.9-3.6c4.9,0,7,3,6,8.8
			l-3.2,18.8h-8.5l2.8-17c0.4-2.2,0.1-3.4-1.9-3.4c-1.5,0.1-2.9,0.8-4,1.8l-3.1,18.6h-8.5l2.8-16.7c0.4-2.3,0.4-3.7-1.6-3.7
			c-1.6,0.1-3.1,0.7-4.2,1.9l-3.1,18.5H133l4.5-27L144.5,9.8z"/>
		<path class="st0" d="M182.4,0h14.1c7.2,0,11.3,3.8,11.3,10.2c0,8.8-5.3,15-15.9,15H187l-1.9,11.6h-8.8L182.4,0z M189.9,7.7
			l-1.7,10.2h4.3c4.2,0,6.3-2.5,6.3-6.1c0-2.5-1.4-4.1-4.4-4.1L189.9,7.7z"/>
		<path class="st0" d="M223.8,9.1c7.1,0,11.8,4.1,11.8,11.5c0,0.9-0.1,1.8-0.2,2.8c-1.5,10.5-8.3,14-16,14s-11.7-4.1-11.7-11.3
			c0-0.9,0.1-1.8,0.2-2.7C209.1,13.2,216.3,9.1,223.8,9.1 M216.4,25.7c0,3.3,1.7,4.7,4.2,4.7c2.8,0,5.2-1.8,6-7
			c0.1-0.8,0.2-1.7,0.2-2.6c0-3.4-1.6-4.7-4-4.7c-3,0-5.3,2-6.1,6.9C216.5,23.9,216.4,24.8,216.4,25.7"/>
		<path class="st0" d="M233.7,47l6.2-37.2h6.9l0.4,3.1c2.4-2.4,5.6-3.7,9-3.7c5,0,8.5,3.4,8.5,10.6c0,10.3-4.9,17.7-13.8,17.7
			c-2.6,0.1-5-1-6.7-2.9L242.1,47H233.7z M245.3,28.2c1.1,1.3,2.7,2.1,4.4,2.1c3.6,0,5.9-2.9,5.9-9.3c0-3.2-1.1-4.9-3.5-4.9
			c-2,0-4.3,1.6-5.3,2.6L245.3,28.2z"/>
	</g>
</g>
<g class="st1">
	<path class="st0" d="M53.6,61.7V51.6H50v-2.1h9.7v2.1h-3.6v10.1H53.6z"/>
	<path class="st0" d="M61.2,61.7V49.6h9v2.1h-6.6v2.7h6.1v2h-6.1v3.3h6.8v2.1H61.2z"/>
	<path class="st0" d="M72.7,61.7V49.7h2.5v10h6.1v2.1H72.7z"/>
	<path class="st0" d="M83,61.7V49.6h9v2.1h-6.6v2.7h6.1v2h-6.1v3.3h6.8v2.1H83z"/>
	<path class="st0" d="M94.3,61.7V49.6h8.3v2.1h-5.9v2.9h5.1v2.1h-5.1v5.2H94.3z"/>
	<path class="st0" d="M104.2,55.7c0-1.2,0.2-2.3,0.6-3.1c0.3-0.6,0.7-1.2,1.1-1.7c0.5-0.5,1-0.9,1.6-1.1c0.8-0.3,1.6-0.5,2.6-0.5
		c1.8,0,3.2,0.6,4.3,1.7c1.1,1.1,1.6,2.7,1.6,4.6c0,2-0.5,3.5-1.6,4.6s-2.5,1.7-4.3,1.7c-1.8,0-3.2-0.6-4.3-1.7
		C104.7,59.2,104.2,57.7,104.2,55.7z M106.7,55.6c0,1.4,0.3,2.4,1,3.1s1.4,1.1,2.4,1.1s1.8-0.4,2.4-1.1c0.6-0.7,0.9-1.8,0.9-3.2
		c0-1.4-0.3-2.4-0.9-3.1c-0.6-0.7-1.4-1-2.4-1s-1.8,0.3-2.4,1S106.7,54.2,106.7,55.6z"/>
	<path class="st0" d="M117.9,61.7V49.6h2.4l5,8.1v-8.1h2.3v12.2h-2.5l-4.9-7.9v7.9H117.9z"/>
	<path class="st0" d="M129.8,48.9l1.1-2.5h2.6l-2.3,2.5H129.8z M130.1,61.7V49.6h2.5v12.2H130.1z"/>
	<path class="st0" d="M145.9,61.7h-2.7l-1.1-2.8h-4.9l-1,2.8h-2.6l4.7-12.2h2.6L145.9,61.7z M141.4,56.9l-1.7-4.5l-1.6,4.5H141.4z"
		/>
	<path class="st0" d="M159.1,57.3l2.4,0.8c-0.4,1.3-1,2.3-1.8,3c-0.8,0.6-1.9,1-3.2,1c-1.6,0-2.9-0.6-4-1.7c-1-1.1-1.6-2.6-1.6-4.5
		c0-2,0.5-3.6,1.6-4.7c1-1.1,2.4-1.7,4.1-1.7c1.5,0,2.7,0.4,3.6,1.3c0.6,0.5,1,1.3,1.2,2.2l-2.4,0.6c-0.1-0.6-0.4-1.1-0.9-1.5
		c-0.5-0.4-1-0.5-1.7-0.5c-0.9,0-1.6,0.3-2.2,1c-0.6,0.6-0.8,1.7-0.8,3.1c0,1.5,0.3,2.6,0.8,3.3s1.3,1,2.2,1c0.7,0,1.2-0.2,1.7-0.6
		C158.5,58.8,158.9,58.1,159.1,57.3z"/>
	<path class="st0" d="M163.6,61.7V49.6h9v2.1H166v2.7h6.1v2H166v3.3h6.8v2.1H163.6z"/>
	<path class="st0" d="M175,61.7V49.7h2.5v10h6.1v2.1H175z"/>
	<path class="st0" d="M185.3,49.6h2.5v6.6c0,1,0,1.7,0.1,2c0.1,0.5,0.4,0.9,0.8,1.2c0.4,0.3,0.9,0.5,1.6,0.5c0.7,0,1.2-0.1,1.6-0.4
		s0.6-0.6,0.6-1c0.1-0.4,0.1-1.1,0.1-2.1v-6.7h2.5v6.4c0,1.5-0.1,2.5-0.2,3.1c-0.1,0.6-0.4,1.1-0.7,1.5c-0.4,0.4-0.8,0.7-1.4,1
		s-1.4,0.4-2.3,0.4c-1.2,0-2-0.1-2.6-0.4s-1.1-0.6-1.4-1c-0.3-0.4-0.6-0.9-0.7-1.3c-0.2-0.7-0.2-1.7-0.2-3.1V49.6z"/>
	<path class="st0" d="M197.6,61.7V49.7h2.5v10h6.1v2.1H197.6z"/>
	<path class="st0" d="M218.9,61.7h-2.7l-1.1-2.8h-4.9l-1,2.8h-2.6l4.7-12.2h2.6L218.9,61.7z M214.4,56.9l-1.7-4.5l-1.6,4.5H214.4z"
		/>
	<path class="st0" d="M220.2,61.7V49.6h5.2c1.3,0,2.2,0.1,2.8,0.3s1.1,0.6,1.4,1.2s0.5,1.2,0.5,1.9c0,0.9-0.3,1.7-0.8,2.3
		c-0.5,0.6-1.3,1-2.4,1.1c0.5,0.3,1,0.7,1.3,1c0.3,0.4,0.8,1,1.4,2l1.5,2.4h-2.9l-1.8-2.6c-0.6-0.9-1.1-1.5-1.3-1.8
		s-0.5-0.4-0.7-0.5c-0.3-0.1-0.7-0.1-1.2-0.1h-0.5v5.1H220.2z M222.7,54.7h1.8c1.2,0,1.9,0,2.2-0.1s0.5-0.3,0.7-0.5s0.2-0.5,0.2-0.9
		c0-0.4-0.1-0.7-0.3-1c-0.2-0.3-0.5-0.4-0.9-0.5c-0.2,0-0.8,0-1.8,0h-1.9V54.7z"/>
</g>
</svg>
