<svg xmlns="http://www.w3.org/2000/svg" xmlns:xlink="http://www.w3.org/1999/xlink" width="127.387" height="37.898" viewBox="0 0 127.387 37.898">
  <defs>
    <linearGradient id="linear-gradient" y1="0.5" x2="1" y2="0.5" gradientUnits="objectBoundingBox">
      <stop offset="0" stop-color="#1b142a"/>
      <stop offset="0.54" stop-color="#241c57"/>
      <stop offset="0.993" stop-color="#2e2580"/>
    </linearGradient>
    <linearGradient id="linear-gradient-3" x1="0.5" y1="0.146" x2="0.5" y2="0.716" gradientUnits="objectBoundingBox">
      <stop offset="0" stop-color="#eb4e16"/>
      <stop offset="0.955" stop-color="#f57b0f"/>
      <stop offset="0.993" stop-color="#f67d0f"/>
    </linearGradient>
    <linearGradient id="linear-gradient-4" x1="0.5" y1="-0.159" x2="0.5" y2="0.615" xlink:href="#linear-gradient-3"/>
    <linearGradient id="linear-gradient-6" x1="0.5" y1="-0.757" x2="0.5" y2="0.853" xlink:href="#linear-gradient"/>
    <linearGradient id="linear-gradient-7" x1="0.5" y1="-0.733" x2="0.5" y2="0.847" xlink:href="#linear-gradient"/>
    <linearGradient id="linear-gradient-8" x1="0.5" y1="-0.738" x2="0.5" y2="0.852" xlink:href="#linear-gradient"/>
  </defs>
  <g id="jogo_mvshub" transform="translate(174.278 51.849)">
    <g id="Grupo_20889" data-name="Grupo 20889" transform="translate(-174.278 -51.849)">
      <g id="Grupo_20886" data-name="Grupo 20886" transform="translate(20.424 30.5)">
        <g id="Grupo_20885" data-name="Grupo 20885">
          <path id="Trazado_43703" data-name="Trazado 43703" d="M110.2,177.242V172.95h.838l.127.621a1.824,1.824,0,0,1,1.386-.621,1.127,1.127,0,0,1,1.108.589,2.049,2.049,0,0,1,1.378-.589q1.48,0,1.48,1.631v2.661h-1.083v-2.7q0-.716-.646-.716a1.33,1.33,0,0,0-.928.433v2.984h-1.083v-2.69q0-.728-.6-.728a1.243,1.243,0,0,0-.9.433v2.984Z" transform="translate(-110.202 -171.397)" fill="#f67d0f"/>
          <path id="Trazado_43704" data-name="Trazado 43704" d="M146.883,175.043a2.126,2.126,0,1,1,2.126,2.154A1.893,1.893,0,0,1,146.883,175.043Zm2.126,1.329q1.042,0,1.042-1.345,0-1.312-1.042-1.312t-1.042,1.312Q147.966,176.372,149.009,176.372Z" transform="translate(-140.085 -171.344)" fill="#f67d0f"/>
          <path id="Trazado_43705" data-name="Trazado 43705" d="M169.669,172.95h1.145l1.042,3,1.083-3h1.144l-1.745,4.292h-1.03Z" transform="translate(-158.648 -171.397)" fill="#f67d0f"/>
          <path id="Trazado_43706" data-name="Trazado 43706" d="M195.522,164.57v.858h-1.083v-.858Zm0,1.553v4.292h-1.083v-4.292Z" transform="translate(-178.827 -164.57)" fill="#f67d0f"/>
          <path id="Trazado_43707" data-name="Trazado 43707" d="M204.9,172.95a1.745,1.745,0,0,1,1.954,1.995,3.847,3.847,0,0,1-.037.531h-2.849q0,.907,1.333.908a7,7,0,0,0,1.3-.123v.858a6.659,6.659,0,0,1-1.381.123q-2.334,0-2.334-2.2Q202.888,172.95,204.9,172.95Zm-.932,1.774H205.8v-.033a.791.791,0,0,0-.9-.891Q204.045,173.8,203.971,174.724Z" transform="translate(-185.71 -171.397)" fill="#f67d0f"/>
          <path id="Trazado_43708" data-name="Trazado 43708" d="M225.988,176.859v-.9a4.424,4.424,0,0,0,1.651.286q.7,0,.7-.45,0-.429-.47-.429h-.777a1.147,1.147,0,0,1-1.308-1.288q0-1.349,1.909-1.349a4.665,4.665,0,0,1,1.525.245v.9a4.142,4.142,0,0,0-1.553-.286q-.879,0-.879.45,0,.429.511.429h.695q1.431,0,1.431,1.287,0,1.349-1.823,1.349A4.949,4.949,0,0,1,225.988,176.859Z" transform="translate(-204.363 -171.219)" fill="#f67d0f"/>
          <path id="Trazado_43709" data-name="Trazado 43709" d="M265.672,172.95h1.145l1.042,3,1.083-3h1.144l-1.745,4.292h-1.03Z" transform="translate(-236.859 -171.397)" fill="#f67d0f"/>
          <path id="Trazado_43710" data-name="Trazado 43710" d="M291.526,164.57v.858h-1.083v-.858Zm0,1.553v4.292h-1.083v-4.292Z" transform="translate(-257.039 -164.57)" fill="#f67d0f"/>
          <path id="Trazado_43711" data-name="Trazado 43711" d="M302.9,170.158a7.591,7.591,0,0,1-1.925.258q-2.081,0-2.081-2.232a1.81,1.81,0,0,1,2.036-2.06,2.149,2.149,0,0,1,.887.2V164.57H302.9Zm-1.083-2.915a1.5,1.5,0,0,0-.842-.221q-1.01,0-1.01,1.132,0,1.345,1.05,1.345a2.653,2.653,0,0,0,.8-.119Z" transform="translate(-263.922 -164.57)" fill="#f67d0f"/>
          <path id="Trazado_43712" data-name="Trazado 43712" d="M325.126,172.95a1.745,1.745,0,0,1,1.954,1.995,3.845,3.845,0,0,1-.037.531h-2.849q0,.907,1.333.908a7,7,0,0,0,1.3-.123v.858a6.66,6.66,0,0,1-1.382.123q-2.334,0-2.334-2.2Q323.111,172.95,325.126,172.95Zm-.932,1.774h1.831v-.033a.791.791,0,0,0-.9-.891Q324.268,173.8,324.194,174.724Z" transform="translate(-283.652 -171.397)" fill="#f67d0f"/>
          <path id="Trazado_43713" data-name="Trazado 43713" d="M346.007,175.043a2.126,2.126,0,1,1,2.125,2.154A1.893,1.893,0,0,1,346.007,175.043Zm2.125,1.329q1.043,0,1.042-1.345,0-1.312-1.042-1.312t-1.042,1.312Q347.09,176.372,348.132,176.372Z" transform="translate(-302.305 -171.344)" fill="#f67d0f"/>
          <path id="Trazado_43714" data-name="Trazado 43714" d="M390.5,176.859v-.9a4.424,4.424,0,0,0,1.651.286q.7,0,.7-.45,0-.429-.47-.429h-.777a1.147,1.147,0,0,1-1.308-1.288q0-1.349,1.909-1.349a4.666,4.666,0,0,1,1.525.245v.9a4.143,4.143,0,0,0-1.553-.286q-.879,0-.878.45,0,.429.511.429h.7q1.431,0,1.431,1.287,0,1.349-1.823,1.349A4.949,4.949,0,0,1,390.5,176.859Z" transform="translate(-338.388 -171.219)" fill="#f67d0f"/>
          <path id="Trazado_43715" data-name="Trazado 43715" d="M411.869,169.2h.8l.163.695h1.079v.859h-.961v1.974q0,.6.519.6h.441v.858h-.965q-1.079,0-1.079-1.157Z" transform="translate(-355.961 -168.343)" fill="#f67d0f"/>
          <path id="Trazado_43716" data-name="Trazado 43716" d="M425.061,177.242V172.95h.838l.135.548a1.7,1.7,0,0,1,1.194-.548v.875a1.463,1.463,0,0,0-1.083.5v2.915Z" transform="translate(-366.708 -171.397)" fill="#f67d0f"/>
          <path id="Trazado_43717" data-name="Trazado 43717" d="M439.166,172.95a1.745,1.745,0,0,1,1.954,1.995,3.845,3.845,0,0,1-.037.531h-2.849q0,.907,1.333.908a7,7,0,0,0,1.3-.123v.858a6.661,6.661,0,0,1-1.382.123q-2.334,0-2.334-2.2Q437.151,172.95,439.166,172.95Zm-.932,1.774h1.831v-.033a.791.791,0,0,0-.9-.891Q438.308,173.8,438.234,174.724Z" transform="translate(-376.557 -171.397)" fill="#f67d0f"/>
          <path id="Trazado_43718" data-name="Trazado 43718" d="M460.047,175.906q0-1.28,1.864-1.28a4.771,4.771,0,0,1,.875.082v-.323q0-.577-.83-.576a6.786,6.786,0,0,0-1.561.2v-.858a6.788,6.788,0,0,1,1.561-.2q1.913,0,1.913,1.414v2.878h-.629l-.384-.384a2.136,2.136,0,0,1-1.234.384Q460.047,177.242,460.047,175.906Zm1.864-.544q-.781,0-.781.532,0,.572.654.572a1.671,1.671,0,0,0,1-.335v-.687A4.477,4.477,0,0,0,461.911,175.362Z" transform="translate(-395.21 -171.397)" fill="#f67d0f"/>
          <path id="Trazado_43719" data-name="Trazado 43719" d="M484.375,177.242V172.95h.838l.127.621a1.824,1.824,0,0,1,1.386-.621,1.127,1.127,0,0,1,1.108.589,2.05,2.05,0,0,1,1.378-.589q1.48,0,1.48,1.631v2.661h-1.083v-2.7q0-.716-.646-.716a1.329,1.329,0,0,0-.928.433v2.984H486.95v-2.69q0-.728-.6-.728a1.243,1.243,0,0,0-.9.433v2.984Z" transform="translate(-415.029 -171.397)" fill="#f67d0f"/>
          <path id="Trazado_43720" data-name="Trazado 43720" d="M523.241,164.57v.858h-1.083v-.858Zm0,1.553v4.292h-1.083v-4.292Z" transform="translate(-445.81 -164.57)" fill="#f67d0f"/>
          <path id="Trazado_43721" data-name="Trazado 43721" d="M531.71,177.242V172.95h.838l.135.63a1.921,1.921,0,0,1,1.406-.63q1.525,0,1.525,1.586v2.706H534.53v-2.706a.627.627,0,0,0-.707-.711,1.6,1.6,0,0,0-1.03.421v3Z" transform="translate(-453.592 -171.397)" fill="#f67d0f"/>
          <path id="Trazado_43722" data-name="Trazado 43722" d="M559.414,176.915q0,1.88-2.26,1.88a4.435,4.435,0,0,1-1.406-.2v-.858a4.538,4.538,0,0,0,1.414.2q1.169,0,1.169-.981a2.633,2.633,0,0,1-1.038.2q-1.913,0-1.913-2.089,0-2.121,2.228-2.121a11.328,11.328,0,0,1,1.807.176Zm-1.083-2.992a2.272,2.272,0,0,0-.756-.1q-1.124,0-1.124,1.239,0,1.2.969,1.2a2.035,2.035,0,0,0,.912-.221Z" transform="translate(-472.875 -171.397)" fill="#f67d0f"/>
        </g>
        <rect id="Rect치ngulo_18684" data-name="Rect치ngulo 18684" width="0.334" height="5.256" transform="translate(26.786 0.688)" fill="url(#linear-gradient)"/>
        <rect id="Rect치ngulo_18685" data-name="Rect치ngulo 18685" width="0.334" height="5.256" transform="translate(49.733 0.688)" fill="url(#linear-gradient)"/>
      </g>
      <g id="Grupo_20888" data-name="Grupo 20888">
        <g id="Grupo_20887" data-name="Grupo 20887" transform="translate(69.253)">
          <path id="Trazado_43723" data-name="Trazado 43723" d="M373.675,26.54V0h4.918V9.54a7.66,7.66,0,0,1,5.884-2.487q6.922,0,6.923,7.2V26.54h-4.918V14.254q0-3.229-3.211-3.23a7.248,7.248,0,0,0-4.677,1.912v13.6Z" transform="translate(-373.675)" fill="url(#linear-gradient-3)"/>
          <path id="Trazado_43724" data-name="Trazado 43724" d="M499.582,37.713V57.264H495.74l-.594-2.487a11.777,11.777,0,0,1-7.127,2.487q-5.977,0-5.976-7.071V37.713h4.918v12.35q0,3.229,2.821,3.23a8.044,8.044,0,0,0,4.881-1.912V37.713Z" transform="translate(-461.959 -30.724)" fill="url(#linear-gradient-4)"/>
          <path id="Trazado_43725" data-name="Trazado 43725" d="M589.409,0h4.919V8.537a8.622,8.622,0,0,1,4.918-1.485q8.315,0,8.315,9.354,0,10.134-9.521,10.134a50.87,50.87,0,0,1-8.63-.8Zm4.919,22.03a12.906,12.906,0,0,0,3.916.538q4.454,0,4.454-6.292,0-5.141-3.842-5.141a10.136,10.136,0,0,0-4.529,1Z" transform="translate(-549.427)" fill="url(#linear-gradient-3)"/>
        </g>
        <path id="Trazado_43726" data-name="Trazado 43726" d="M171.509,51.336l-4.733-13.623h-5.2L169.022,57.2H173.7l7.925-19.488h-5.2Z" transform="translate(-131.634 -30.724)" fill="url(#linear-gradient-6)"/>
        <path id="Trazado_43727" data-name="Trazado 43727" d="M282.054,44.6H278.9a3.034,3.034,0,0,1-1.486-.313,1.716,1.716,0,0,1-.834-1.636,1.7,1.7,0,0,1,1.2-1.624,7.407,7.407,0,0,1,2.794-.418,18.892,18.892,0,0,1,6.835,1.214l.217.085V37.825a21.2,21.2,0,0,0-6.923-1.114,15.557,15.557,0,0,0-4.344.529,7.15,7.15,0,0,0-2.251,1.071,4.831,4.831,0,0,0-1.554,1.9,5.473,5.473,0,0,0-.388,1.223,7.279,7.279,0,0,0-.129,1.406,9.074,9.074,0,0,0,.152,1.72,5.271,5.271,0,0,0,.908,2.176,4.39,4.39,0,0,0,1.945,1.463,6.575,6.575,0,0,0,1.473.386,9.913,9.913,0,0,0,1.462.1H281.5a2.875,2.875,0,0,1,1.172.21,1.494,1.494,0,0,1,.722.65,2.225,2.225,0,0,1,.241,1.089,1.757,1.757,0,0,1-.43,1.227,2.422,2.422,0,0,1-1.29.673,6.536,6.536,0,0,1-1.453.142q-1.182,0-2.287-.1a20.567,20.567,0,0,1-2.634-.407,16.866,16.866,0,0,1-2.577-.792v4.083a22.464,22.464,0,0,0,7.313,1.114q8.277,0,8.278-6.125a8.735,8.735,0,0,0-.1-1.377,5.87,5.87,0,0,0-.484-1.609,4.447,4.447,0,0,0-1.99-2.059A8.361,8.361,0,0,0,282.054,44.6Z" transform="translate(-221.616 -29.907)" fill="url(#linear-gradient-7)"/>
        <path id="Trazado_43728" data-name="Trazado 43728" d="M14.893,39.752l.065-.073a9.347,9.347,0,0,1,2.8-2.182,7.679,7.679,0,0,1,3.344-.786,8.254,8.254,0,0,1,6.1,2.793,8.867,8.867,0,0,1,2.528,6.251V56.448H24.874V45.755c0-2.313-1.75-4.364-3.772-4.364-2.1,0-3.811,2.007-3.811,4.364V56.448H12.443V45.755c0-2.357-1.711-4.364-3.811-4.364-2.022,0-3.772,2.051-3.772,4.364V56.448H0V45.755A8.867,8.867,0,0,1,2.528,39.5a8.253,8.253,0,0,1,6.1-2.793,7.679,7.679,0,0,1,3.344.786,9.349,9.349,0,0,1,2.8,2.182l.065.073.025.027Z" transform="translate(0 -29.907)" fill="url(#linear-gradient-8)"/>
      </g>
    </g>
  </g>
</svg>
