<svg xmlns="http://www.w3.org/2000/svg" width="36.508" height="40.867" viewBox="0 0 36.508 40.867"><defs><style>.a{fill:#0ebcf1;}</style></defs><path class="a" d="M388.965,178.334c-4.352,0-11.715-.746-11.715-3.542s7.364-3.542,11.715-3.542,11.715.746,11.715,3.542S393.317,178.334,388.965,178.334Zm0-5.449c-6.153,0-9.835,1.261-10.085,1.937.25.617,3.932,1.878,10.085,1.878,6.066,0,9.731-1.225,10.072-1.907C398.7,174.11,395.031,172.885,388.965,172.885Zm10.085,1.937h0Z" transform="translate(-377.25 -171.25)"/><path class="a" d="M388.965,183.186c-5.643,0-11.715-1.275-11.715-4.076v-4.043a.817.817,0,1,1,1.635,0v4.043c0,.73,3.43,2.441,10.081,2.441s10.081-1.711,10.081-2.441v-4.043a.817.817,0,1,1,1.635,0v4.043C400.681,181.911,394.608,183.186,388.965,183.186Z" transform="translate(-377.25 -170.981)"/><path class="a" d="M388.965,188.276c-5.643,0-11.715-1.275-11.715-4.076v-5.133a.817.817,0,1,1,1.635,0V184.2c0,.73,3.43,2.441,10.081,2.441s10.081-1.711,10.081-2.441v-5.133a.817.817,0,1,1,1.635,0V184.2C400.681,187,394.608,188.276,388.965,188.276Z" transform="translate(-377.25 -170.621)"/><path class="a" d="M388.926,192.957c-5.623,0-11.676-1.272-11.676-4.064v-5.826a.817.817,0,1,1,1.635,0v5.826c0,.727,3.417,2.429,10.041,2.429a33.623,33.623,0,0,0,3.887-.219.808.808,0,0,1,.908.715.818.818,0,0,1-.716.908A34.983,34.983,0,0,1,388.926,192.957Z" transform="translate(-377.25 -170.262)"/><path class="a" d="M398.067,188.154a.818.818,0,0,1-.817-.817v-3.269a.817.817,0,1,1,1.635,0v3.269A.818.818,0,0,1,398.067,188.154Z" transform="translate(-375.454 -170.173)"/><path class="a" d="M388.926,198.049c-5.623,0-11.676-1.272-11.676-4.064v-6.918a.817.817,0,1,1,1.635,0v6.918c0,.726,3.417,2.429,10.041,2.429l.491,0a.849.849,0,0,1,.83.805.817.817,0,0,1-.805.829Z" transform="translate(-377.25 -169.903)"/><path class="a" d="M388.926,202.6c-5.623,0-11.676-1.272-11.676-4.064v-5.472a.817.817,0,1,1,1.635,0v5.472c0,.727,3.417,2.429,10.041,2.429.384,0,.762-.007,1.134-.017a.806.806,0,0,1,.842.791.817.817,0,0,1-.791.842C389.722,202.6,389.327,202.6,388.926,202.6Z" transform="translate(-377.25 -169.364)"/><path class="a" d="M401.876,210.5A10.625,10.625,0,1,1,412.5,199.875,10.638,10.638,0,0,1,401.876,210.5Zm0-19.616a8.991,8.991,0,1,0,8.991,8.991A9,9,0,0,0,401.876,190.885Z" transform="translate(-375.993 -169.634)"/><path class="a" d="M402.427,204.6h-4.359a.817.817,0,0,1,0-1.635h4.359a1.362,1.362,0,1,0,0-2.724h-2.18a3,3,0,1,1,0-5.994h4.359a.817.817,0,0,1,0,1.635h-4.359a1.362,1.362,0,1,0,0,2.724h2.18a3,3,0,1,1,0,5.994Z" transform="translate(-375.454 -169.185)"/><path class="a" d="M401.067,196.064a.818.818,0,0,1-.817-.817v-2.18a.817.817,0,1,1,1.635,0v2.18A.818.818,0,0,1,401.067,196.064Z" transform="translate(-375.185 -169.364)"/><path class="a" d="M401.067,206.064a.818.818,0,0,1-.817-.817v-2.18a.817.817,0,0,1,1.635,0v2.18A.818.818,0,0,1,401.067,206.064Z" transform="translate(-375.185 -168.466)"/></svg>