<svg xmlns="http://www.w3.org/2000/svg" width="73.13" height="51.5" viewBox="0 0 73.13 51.5"><defs><style>.a{fill:#00b9f1;}.b,.c,.d,.f{fill:none;}.b,.c,.d,.e{stroke:#00b9f1;}.b{stroke-width:1.5px;}.d{stroke-width:2px;}.e{fill:#fff;}.g{stroke:none;}</style></defs><g transform="translate(19.844 1.988)"><path class="a" d="M394.89,281.818a.9.9,0,0,1-.9-.9v-1.384a2.841,2.841,0,0,0-.59-1.729l-3.222-4.175a4.635,4.635,0,0,1-.963-2.825v-8.278a3.98,3.98,0,0,0-3.975-3.976.2.2,0,0,0-.2.2v11.418a.9.9,0,0,1-1.791,0V258.76a2,2,0,0,1,1.994-1.994,5.773,5.773,0,0,1,5.766,5.766v8.278a2.847,2.847,0,0,0,.59,1.73l3.222,4.175a4.629,4.629,0,0,1,.964,2.823v1.384A.9.9,0,0,1,394.89,281.818Z" transform="translate(-379.668 -234.66)"/><path class="a" d="M381.145,284.051a.9.9,0,0,1-.9-.9V259.9a15.123,15.123,0,0,1,3.2-9.275l4.173-5.048a.9.9,0,0,1,1.38,1.141l-4.157,5.027a13.32,13.32,0,0,0-2.8,8.154v23.258A.9.9,0,0,1,381.145,284.051Z" transform="translate(-380.25 -236.893)"/><path class="a" d="M411.023,280.632H397.89a.9.9,0,0,1,0-1.791h12.237v-38.8H388.041v17.013a.9.9,0,1,1-1.791,0V239.145a.9.9,0,0,1,.9-.9h23.877a.9.9,0,0,1,.9.9v40.591A.9.9,0,0,1,411.023,280.632Z" transform="translate(-379.087 -238.25)"/><line class="b" y2="11.314" transform="translate(11.519 4.337)"/><path class="b" d="M.684.137V7.9" transform="translate(13.872 4.355)"/><line class="c" y2="19.234" transform="translate(25.096 20.177)"/><line class="c" y2="19.234" transform="translate(28.49 20.177)"/><line class="d" y2="4.526" transform="translate(16.045 33.754)"/><line class="d" y2="4.526" transform="translate(16.045 28.097)"/><g class="e" transform="translate(22.386 4.192)"><ellipse class="g" cx="4.12" cy="3.605" rx="4.12" ry="3.605"/><ellipse class="f" cx="4.12" cy="3.605" rx="3.62" ry="3.105"/></g><g class="e" transform="translate(22.386 8.312)"><circle class="g" cx="4.12" cy="4.12" r="4.12"/><circle class="f" cx="4.12" cy="4.12" r="3.62"/></g></g><rect class="f" width="73.13" height="51.5"/></svg>