<svg xmlns="http://www.w3.org/2000/svg" width="140.776" height="59.737" viewBox="0 0 140.776 59.737"><defs><style>.a,.b{fill:#1d2a4c;}.b{fill-rule:evenodd;}</style></defs><g transform="translate(0)"><g transform="translate(0 16.491)"><g transform="translate(0 0)"><path class="a" d="M165.951,233.573a.742.742,0,0,1-.511-.148.693.693,0,0,1-.161-.524V214.973a.693.693,0,0,1,.161-.524.741.741,0,0,1,.511-.148h1.935a.7.7,0,0,1,.753.591l.188.7a5.948,5.948,0,0,1,1.949-1.236,6.213,6.213,0,0,1,2.325-.457,4.993,4.993,0,0,1,4.126,1.908,8.064,8.064,0,0,1,1.519,5.16,9.4,9.4,0,0,1-.753,3.9,6.1,6.1,0,0,1-2.043,2.567,5.038,5.038,0,0,1-2.957.9,6.284,6.284,0,0,1-2.1-.35,5.031,5.031,0,0,1-1.693-.968V232.9a.557.557,0,0,1-.672.672Zm5.886-8.2a2.516,2.516,0,0,0,2.217-1.021,5.733,5.733,0,0,0,.712-3.225,5.886,5.886,0,0,0-.7-3.252,2.511,2.511,0,0,0-2.231-1.021,5.118,5.118,0,0,0-2.634.726v7.069A4.936,4.936,0,0,0,171.837,225.375Z" transform="translate(-165.279 -207.985)"/><path class="a" d="M265.052,229.428a.58.58,0,0,1-.672-.672V216.365a.693.693,0,0,1,.161-.524.741.741,0,0,1,.511-.148h1.935a.7.7,0,0,1,.753.591l.349,1.451a7.683,7.683,0,0,1,2.03-1.68,4.329,4.329,0,0,1,2.029-.5h.376a.788.788,0,0,1,.538.148.692.692,0,0,1,.161.524v2.258a.741.741,0,0,1-.148.511.692.692,0,0,1-.524.161q-.188,0-.484-.027t-.753-.027a8.016,8.016,0,0,0-1.505.175,7.426,7.426,0,0,0-1.505.444v9.031a.741.741,0,0,1-.148.511.692.692,0,0,1-.524.161Z" transform="translate(-248.334 -209.377)"/><path class="a" d="M330.092,181.571a2.337,2.337,0,0,1-1.64-.564,2.208,2.208,0,0,1,0-3.064,2.664,2.664,0,0,1,3.279,0,2.208,2.208,0,0,1,0,3.064A2.338,2.338,0,0,1,330.092,181.571Zm-1.29,15.858a.58.58,0,0,1-.672-.672V184.366a.693.693,0,0,1,.161-.524.741.741,0,0,1,.511-.148h2.58a.557.557,0,0,1,.672.672v12.391a.741.741,0,0,1-.148.511.692.692,0,0,1-.524.161Z" transform="translate(-301.514 -177.378)"/><path class="a" d="M374.779,228.036a.58.58,0,0,1-.672-.672V214.973a.693.693,0,0,1,.161-.524.741.741,0,0,1,.511-.148h1.935a.7.7,0,0,1,.753.591l.215.726a11.6,11.6,0,0,1,2.567-1.33,7.245,7.245,0,0,1,2.352-.39,3.616,3.616,0,0,1,3.414,1.72,11.01,11.01,0,0,1,2.58-1.317,7.858,7.858,0,0,1,2.5-.4,3.914,3.914,0,0,1,2.916,1.048,3.991,3.991,0,0,1,1.035,2.93v9.488a.741.741,0,0,1-.148.511.692.692,0,0,1-.524.161h-2.58a.58.58,0,0,1-.672-.672v-8.628q0-1.827-1.64-1.828a6.814,6.814,0,0,0-2.93.7v9.757a.741.741,0,0,1-.148.511.693.693,0,0,1-.524.161H383.3a.58.58,0,0,1-.672-.672v-8.628q0-1.827-1.64-1.828a6.544,6.544,0,0,0-2.957.726v9.73a.741.741,0,0,1-.148.511.692.692,0,0,1-.524.161Z" transform="translate(-340.295 -207.985)"/><path class="a" d="M524.66,229.021a6.757,6.757,0,0,1-5.2-1.875c-.879-.894-1.707-2.554-1.707-5.4a7.537,7.537,0,0,1,1.909-5.319,6.446,6.446,0,0,1,4.7-1.869c2.132,0,3.4.484,4.364,1.451a4.025,4.025,0,0,1,1.131,2.778,3.957,3.957,0,0,1-.364,1.938,3.149,3.149,0,0,1-.752.983c-1.585,1.451-4.692,1.354-5.743,1.295l-1.7-.259a3.484,3.484,0,0,0,1.164,2.631,4.51,4.51,0,0,0,2.945.7,12.808,12.808,0,0,0,3.088-.493c.071-.019.208-.054.255-.061a.617.617,0,0,1,.248.011c.143.049.3.185.3.574v1.236a1.124,1.124,0,0,1-.113.6,1.012,1.012,0,0,1-.474.319A11.339,11.339,0,0,1,524.66,229.021Zm1.633-10.073c0-1.311-.924-1.686-2.063-1.686a2.644,2.644,0,0,0-1.971.813,4.217,4.217,0,0,0-.909,2.346,12.457,12.457,0,0,0,3.47.125A1.546,1.546,0,0,0,526.293,218.948Z" transform="translate(-460.686 -208.54)"/><path class="a" d="M871.4,229.021a6.757,6.757,0,0,1-5.2-1.875c-.879-.894-1.707-2.554-1.707-5.4a7.537,7.537,0,0,1,1.909-5.319,6.446,6.446,0,0,1,4.7-1.869c2.132,0,3.4.484,4.363,1.451a4.024,4.024,0,0,1,1.131,2.778,3.957,3.957,0,0,1-.364,1.938,3.148,3.148,0,0,1-.752.983c-1.585,1.451-4.692,1.354-5.743,1.295l-1.7-.259a3.483,3.483,0,0,0,1.164,2.631,4.511,4.511,0,0,0,2.945.7,12.809,12.809,0,0,0,3.088-.493c.07-.019.208-.054.255-.061a.617.617,0,0,1,.248.011c.143.049.3.185.3.574v1.236a1.126,1.126,0,0,1-.113.6,1.012,1.012,0,0,1-.474.319A11.34,11.34,0,0,1,871.4,229.021Zm1.633-10.073c0-1.311-.924-1.686-2.063-1.686a2.645,2.645,0,0,0-1.971.813,4.218,4.218,0,0,0-.909,2.346,12.457,12.457,0,0,0,3.471.125A1.546,1.546,0,0,0,873.029,218.948Z" transform="translate(-751.28 -208.54)"/><path class="a" d="M635.779,230.123a1.242,1.242,0,0,1-.443-.067.7.7,0,0,1-.3-.215,1.594,1.594,0,0,1-.229-.417l-4.6-11.961q-.081-.215-.134-.376a.93.93,0,0,1-.054-.3q0-.4.538-.4h2.688a1.008,1.008,0,0,1,.632.161,1.032,1.032,0,0,1,.309.538l2.769,9.515,2.822-9.515a1.03,1.03,0,0,1,.309-.538,1.006,1.006,0,0,1,.631-.161h2.607q.537,0,.538.4a.946.946,0,0,1-.054.3c-.036.107-.081.233-.134.376l-4.6,11.961a1.6,1.6,0,0,1-.228.417.718.718,0,0,1-.282.215,1.226,1.226,0,0,1-.457.067Z" transform="translate(-554.777 -210.072)"/><path class="a" d="M726.265,181.571a2.337,2.337,0,0,1-1.64-.564,2.207,2.207,0,0,1,0-3.064,2.664,2.664,0,0,1,3.279,0,2.208,2.208,0,0,1,0,3.064A2.339,2.339,0,0,1,726.265,181.571Zm-1.29,15.858a.58.58,0,0,1-.672-.672V184.366a.693.693,0,0,1,.161-.524.741.741,0,0,1,.511-.148h2.58a.557.557,0,0,1,.672.672v12.391a.742.742,0,0,1-.148.511.693.693,0,0,1-.524.161Z" transform="translate(-633.54 -177.378)"/><path class="a" d="M771.336,198.56a5.169,5.169,0,0,1-3.037-.9,5.7,5.7,0,0,1-1.976-2.5,9.312,9.312,0,0,1-.685-3.7,8.352,8.352,0,0,1,1.586-5.335,5.085,5.085,0,0,1,4.193-2,5.832,5.832,0,0,1,3.682,1.21v-6.289a.692.692,0,0,1,.161-.524.74.74,0,0,1,.51-.148h2.58a.557.557,0,0,1,.672.672v18.546a.741.741,0,0,1-.148.511.693.693,0,0,1-.524.161H776.2a.669.669,0,0,1-.753-.591l-.161-.618A5.7,5.7,0,0,1,771.336,198.56Zm1.29-2.957a4.538,4.538,0,0,0,2.473-.753v-7.1a5.2,5.2,0,0,0-2.661-.672,2.368,2.368,0,0,0-2.123,1.062,5.91,5.91,0,0,0-.7,3.212,5.581,5.581,0,0,0,.739,3.2A2.59,2.59,0,0,0,772.626,195.6Z" transform="translate(-668.431 -178.214)"/><path class="a" d="M957.525,228.439a6.515,6.515,0,0,1-5-1.922,8.843,8.843,0,0,1,0-10.7,7.463,7.463,0,0,1,10,0,8.843,8.843,0,0,1,0,10.7A6.516,6.516,0,0,1,957.525,228.439Zm0-3.01q2.822,0,2.822-4.274,0-4.246-2.822-4.247t-2.822,4.247Q954.7,225.429,957.525,225.429Z" transform="translate(-823.549 -207.985)"/></g><g transform="translate(34.156 26.134)"><path class="b" d="M376.228,344.57v.22a1.011,1.011,0,0,0,.315.571A51.69,51.69,0,0,0,412.861,360.3c10.037,0,21.692-3.4,29.732-9.793a1.17,1.17,0,1,0-1.167-2.028,67.8,67.8,0,0,1-27.719,6.116A69.084,69.084,0,0,1,377.37,344.2a.989.989,0,0,0-.519-.167.616.616,0,0,0-.622.536" transform="translate(-376.228 -343.184)"/><path class="b" d="M742.746,341.179a1.083,1.083,0,0,0-.464.676v.132c.034.244.262.408.662.358,2.587-.335,8.358-1.076,9.385.341s-1.142,7.243-2.112,9.84c-.291.782.337,1.105,1,.506,4.315-3.871,5.429-11.988,4.543-13.159-.422-.561-2.4-1.086-4.853-1.086a13.785,13.785,0,0,0-8.159,2.394" transform="translate(-683.012 -338.785)"/></g></g><g transform="translate(39.372 0)"><path class="a" d="M411.065,84.241a2.661,2.661,0,0,1-1.9-.675,2.358,2.358,0,0,1-.715-1.8,2.414,2.414,0,0,1,.41-1.39,2.567,2.567,0,0,1,1.133-.916,4.129,4.129,0,0,1,1.655-.313,7.848,7.848,0,0,1,1.7.209v-.8a1.33,1.33,0,0,0-.305-1.013,1.723,1.723,0,0,0-1.125-.273,9.149,9.149,0,0,0-2.459.386.613.613,0,0,1-.1.024.487.487,0,0,1-.08.008q-.274,0-.273-.37v-.723a.685.685,0,0,1,.064-.353.663.663,0,0,1,.289-.193,6.091,6.091,0,0,1,1.358-.378,9.533,9.533,0,0,1,1.615-.137,3.626,3.626,0,0,1,2.419.667,2.644,2.644,0,0,1,.763,2.1v5.288a.444.444,0,0,1-.088.305.414.414,0,0,1-.313.1h-1.093a.4.4,0,0,1-.45-.354l-.1-.37a3.886,3.886,0,0,1-1.149.715A3.335,3.335,0,0,1,411.065,84.241Zm.659-1.575a2.151,2.151,0,0,0,.828-.177,3.127,3.127,0,0,0,.8-.482v-1.4a8.191,8.191,0,0,0-1.27-.113q-1.4,0-1.4,1.125a.951.951,0,0,0,1.045,1.045Z" transform="translate(-408.445 -75.53)"/><path class="a" d="M470.19,83.984a.347.347,0,0,1-.4-.4V76.173a.414.414,0,0,1,.1-.313.443.443,0,0,1,.305-.088h1.157a.416.416,0,0,1,.45.354l.129.434a6.926,6.926,0,0,1,1.535-.8,4.328,4.328,0,0,1,1.406-.233,2.162,2.162,0,0,1,2.041,1.029,6.587,6.587,0,0,1,1.543-.788,4.7,4.7,0,0,1,1.495-.241,2.341,2.341,0,0,1,1.744.627,2.387,2.387,0,0,1,.619,1.752v5.674a.443.443,0,0,1-.088.305.413.413,0,0,1-.313.1h-1.543a.347.347,0,0,1-.4-.4V78.423q0-1.093-.98-1.093a4.074,4.074,0,0,0-1.752.418v5.834a.443.443,0,0,1-.088.305.414.414,0,0,1-.313.1h-1.543a.347.347,0,0,1-.4-.4V78.423q0-1.093-.98-1.093a3.914,3.914,0,0,0-1.768.434v5.818a.443.443,0,0,1-.088.305.414.414,0,0,1-.314.1Z" transform="translate(-459.856 -75.53)"/><path class="a" d="M564.226,84.241a2.66,2.66,0,0,1-1.9-.675,2.358,2.358,0,0,1-.715-1.8,2.414,2.414,0,0,1,.41-1.39,2.566,2.566,0,0,1,1.133-.916,4.129,4.129,0,0,1,1.655-.313,7.848,7.848,0,0,1,1.7.209v-.8a1.33,1.33,0,0,0-.305-1.013,1.723,1.723,0,0,0-1.125-.273,9.149,9.149,0,0,0-2.459.386.612.612,0,0,1-.1.024.489.489,0,0,1-.08.008q-.273,0-.273-.37v-.723a.684.684,0,0,1,.064-.353.663.663,0,0,1,.289-.193,6.094,6.094,0,0,1,1.358-.378,9.532,9.532,0,0,1,1.615-.137,3.626,3.626,0,0,1,2.419.667,2.645,2.645,0,0,1,.763,2.1v5.288a.442.442,0,0,1-.089.305.413.413,0,0,1-.313.1h-1.093a.4.4,0,0,1-.45-.354l-.1-.37a3.884,3.884,0,0,1-1.149.715A3.334,3.334,0,0,1,564.226,84.241Zm.659-1.575a2.151,2.151,0,0,0,.828-.177,3.127,3.127,0,0,0,.8-.482v-1.4a8.19,8.19,0,0,0-1.269-.113q-1.4,0-1.4,1.125a.951.951,0,0,0,1.045,1.045Z" transform="translate(-536.807 -75.53)"/><path class="a" d="M619.58,85.232a.347.347,0,0,1-.4-.4v-.82a1.076,1.076,0,0,1,.056-.394,1.312,1.312,0,0,1,.2-.313l3.97-4.548H619.74a.347.347,0,0,1-.4-.4v-.932a.413.413,0,0,1,.1-.313.443.443,0,0,1,.305-.088h5.85a.333.333,0,0,1,.4.4v.852a1.08,1.08,0,0,1-.056.394,1.314,1.314,0,0,1-.2.313L621.717,83.5h3.954a.333.333,0,0,1,.4.4v.932a.444.444,0,0,1-.088.305.415.415,0,0,1-.314.1Z" transform="translate(-585.057 -76.778)"/><path class="a" d="M676.25,84.225a3.9,3.9,0,0,1-2.989-1.149,5.288,5.288,0,0,1,0-6.4,4.463,4.463,0,0,1,5.979,0,5.289,5.289,0,0,1,0,6.4A3.9,3.9,0,0,1,676.25,84.225Zm0-1.8q1.688,0,1.688-2.556,0-2.539-1.687-2.539t-1.688,2.539Q674.563,82.425,676.25,82.425Z" transform="translate(-629.481 -75.53)"/><path class="a" d="M738,83.984a.347.347,0,0,1-.4-.4V76.173a.415.415,0,0,1,.1-.313.444.444,0,0,1,.305-.088h1.157a.416.416,0,0,1,.45.354l.145.53a4.94,4.94,0,0,1,3.086-1.125,2.156,2.156,0,0,1,2.378,2.379v5.674a.443.443,0,0,1-.088.305.414.414,0,0,1-.313.1h-1.543a.347.347,0,0,1-.4-.4V78.6a1.365,1.365,0,0,0-.289-.964,1.164,1.164,0,0,0-.884-.305,3.262,3.262,0,0,0-1.752.546v5.706a.443.443,0,0,1-.088.305.414.414,0,0,1-.314.1Z" transform="translate(-684.303 -75.53)"/></g></g></svg>