<svg xmlns="http://www.w3.org/2000/svg" width="50.485" height="51.947" viewBox="0 0 50.485 51.947"><defs><style>.a{opacity:0.702;}.b{fill:#5da4d0;}.c{fill:#457fa3;}</style></defs><g class="a" transform="translate(0)"><path class="b" d="M57.959,183.637c-13.919,0-25.243-11.651-25.243-25.974S44.04,131.69,57.959,131.69,83.2,143.342,83.2,157.664,71.877,183.637,57.959,183.637Zm0-43.012a17.046,17.046,0,1,0,16.56,17.039A16.823,16.823,0,0,0,57.959,140.625Z" transform="translate(-32.716 -131.69)"/></g><path class="c" d="M57.18,131.69a24.848,24.848,0,0,0-19.644,9.672l-3.087-2.528,2.233,12.5,11.643-1.14-4-3.271a16.306,16.306,0,0,1,12.852-6.3,17.046,17.046,0,0,1,0,34.079v8.933c13.918,0,25.242-11.651,25.242-25.974S71.1,131.69,57.18,131.69Z" transform="translate(-31.936 -131.69)"/></svg>