<svg xmlns="http://www.w3.org/2000/svg" width="176.975" height="38.994" viewBox="0 0 176.975 38.994"><defs><style>.a{fill:#7bc5f8;}.b{fill:#fff;}.c{fill:#32ba46;}.d{fill:#395398;}.e{fill:#0093ff;}</style></defs><rect class="a" width="38.994" height="38.994" rx="8"/><g transform="translate(5.653 8.48)"><path class="b" d="M670.3-187.138Z" transform="translate(-644.271 187.487)"/><path class="b" d="M602.99-185.28a3.592,3.592,0,0,1-1.045.137l.019-.111a8.577,8.577,0,0,0,2.1-2.4c.079-.27-.014-.364-.015-.372l-1.754.745-1.467.662h0a5.851,5.851,0,0,0-4.26-1.755c-3.051,0-5.524,2.161-5.524,4.828a7.164,7.164,0,0,0,.226,1.821c0,.14.005-.14,0,0a17.235,17.235,0,0,1-6.724-2c-4.423-2.241-4.7-3.792-4.7-3.792-.695.738-1.053,3.18-.349,5.1a6.35,6.35,0,0,0,2,2.326h0a4.691,4.691,0,0,1-1.419-.232,3.131,3.131,0,0,1-1-.489c-.432,1.053.434,2.933,1.931,4.281a7.927,7.927,0,0,0,2.465,1.28l-2.489.07c-.14,2.42,5.074,3.857,5.074,3.857h0a8.523,8.523,0,0,1-5.2,1.891,9.91,9.91,0,0,1-2.84-.417,13.545,13.545,0,0,0,9.247,3.312c9.309-.489,14.564-8.491,14.815-16.35l.012.016a6.544,6.544,0,0,0,1.369-1.151,9.636,9.636,0,0,0,1.513-2.024S603.575-185.442,602.99-185.28Z" transform="translate(-578.015 188.374)"/><path class="b" d="M670.3-187.137c.007.149,0,.015,0,0Z" transform="translate(-644.271 187.486)"/></g><g transform="translate(46.993)"><rect class="c" width="38.994" height="38.994" rx="8" transform="translate(0)"/><g transform="translate(6.999 6.999)"><g transform="translate(0 0)"><path class="b" d="M760.552-176.244a12.791,12.791,0,0,1-6.408-1.725l-5.006,1.725,1.029-5.3a12.7,12.7,0,0,1-2.463-7.547,12.862,12.862,0,0,1,12.848-12.847A12.862,12.862,0,0,1,773.4-189.092,12.862,12.862,0,0,1,760.552-176.244Zm-6.177-3.826.388.242a10.893,10.893,0,0,0,5.79,1.672,10.949,10.949,0,0,0,10.936-10.936,10.948,10.948,0,0,0-10.936-10.936,10.948,10.948,0,0,0-10.936,10.936,10.825,10.825,0,0,0,2.323,6.722l.268.343-.562,2.9Z" transform="translate(-747.704 201.939)"/></g><path class="b" d="M772.408-174.132s.753-1.318,1.368-1.393,1.406-.075,1.619.326,1.167,2.736,1.167,2.736a.918.918,0,0,1-.088.791,7.821,7.821,0,0,1-.815.954.7.7,0,0,0,0,.828,15.1,15.1,0,0,0,1.807,2.217,9.859,9.859,0,0,0,2.936,1.724.588.588,0,0,0,.452-.139c.176-.175,1.129-1.368,1.129-1.368a.67.67,0,0,1,.816-.163c.508.232,2.71,1.33,2.71,1.33a.477.477,0,0,1,.257.483,3.1,3.1,0,0,1-.479,1.663,3.832,3.832,0,0,1-2.677,1.314,11.817,11.817,0,0,1-6.577-2.945c-1.794-1.8-3.388-3.615-3.765-5.271S771.944-173.449,772.408-174.132Z" transform="translate(-766.047 182.043)"/></g></g><g transform="translate(94.987)"><rect class="d" width="36.995" height="38.994" rx="8" transform="translate(0)"/><path class="b" d="M968.851-162.549v-15.4h5.17l.774-6h-5.944v-3.833c0-1.737.482-2.921,2.975-2.921H975v-5.368a42.534,42.534,0,0,0-4.632-.236c-4.582,0-7.719,2.8-7.719,7.934v4.427H957.47v6h5.182v15.4Z" transform="translate(-942.391 201.543)"/></g><g transform="translate(139.98)"><rect class="e" width="36.995" height="38.994" rx="8"/><path class="b" d="M1130.511,390.226a13.08,13.08,0,0,0-13.277,12.875,12.682,12.682,0,0,0,4.527,9.683h0c0,.684.067,2.838.067,3.014a1.026,1.026,0,0,0,.463.782,1.086,1.086,0,0,0,1.077.072c.359-.168,2.377-1.067,3.012-1.312h0a13.641,13.641,0,0,0,4.129.636,12.881,12.881,0,1,0,0-25.749Zm8,9.834c-.138.251-3.527,5.674-3.9,6.217a1.917,1.917,0,0,1-1.524.958,1.755,1.755,0,0,1-1.317-.371c-.547-.371-2.884-2.153-3.019-2.254a.91.91,0,0,0-1.119-.081c-.533.389-3.854,2.966-4.17,3.157a.62.62,0,0,1-.78,0,.635.635,0,0,1-.156-.82c.2-.341,3.394-5.357,3.561-5.632s.635-1.233,1.425-1.407a2.2,2.2,0,0,1,1.245,0,2.437,2.437,0,0,1,.842.521c.2.148,2.426,1.837,2.659,1.987a.907.907,0,0,0,1.1.123c.237-.156,3.825-2.894,4.064-3.067s.563-.419.982-.06A.546.546,0,0,1,1138.507,400.06Z" transform="translate(-1112.235 -384.227)"/></g></svg>