<svg xmlns="http://www.w3.org/2000/svg" width="31.999" height="32" viewBox="0 0 31.999 32"><defs><style>.a{fill:#fff;}</style></defs><g transform="translate(-231.59 -126.552)"><path class="a" d="M256.3,149.849a.227.227,0,0,0-.318,0l-1.453,1.407-.418-.183a12.9,12.9,0,0,1-3.54-2.6,13.157,13.157,0,0,1-2.617-3.553l-.189-.424,1.405-1.424a.227.227,0,0,0,0-.319l-2.409-2.423a.227.227,0,0,0-.321,0l-1.157,1.149a1.512,1.512,0,0,0-.3,1.727,24.387,24.387,0,0,0,10.939,10.939,1.513,1.513,0,0,0,1.727-.3l1.155-1.159a.228.228,0,0,0,0-.321Z" transform="translate(-4.415 -4.568)"/><path class="a" d="M247.59,126.552h0a16,16,0,1,0,0,32h0a16,16,0,0,0,0-32Zm8.281,22-1.674,1.68a2.882,2.882,0,0,1-2.038.845,2.844,2.844,0,0,1-1.245-.286,25.747,25.747,0,0,1-11.567-11.568,2.872,2.872,0,0,1,.559-3.283l1.68-1.669a.851.851,0,0,1,1.2,0l3.441,3.462a.851.851,0,0,1,0,1.2l-1.244,1.259a13.164,13.164,0,0,0,2.126,2.743,12.978,12.978,0,0,0,2.731,2.114l1.295-1.254a.85.85,0,0,1,1.193.01l3.537,3.543A.85.85,0,0,1,255.871,148.553Z"/></g></svg>