<svg xmlns="http://www.w3.org/2000/svg" width="31.999" height="32" viewBox="0 0 31.999 32"><defs><style>.a{fill:#fff;}</style></defs><g transform="translate(-231.59 -187.402)"><path class="a" d="M253.7,217.933c-.509.47-.852.751-.881.774l-.47.383-.471-.383c-.029-.023-.372-.3-.881-.774a17.333,17.333,0,0,0-3.706.555,3.387,3.387,0,0,0-1.421.656,4.064,4.064,0,0,0,1.862.773,22.723,22.723,0,0,0,9.234,0,4.06,4.06,0,0,0,1.862-.773,3.4,3.4,0,0,0-1.433-.659A17.368,17.368,0,0,0,253.7,217.933Z" transform="translate(-4.761 -10.177)"/><path class="a" d="M254.826,205.674a1.528,1.528,0,1,0-1.528-1.528A1.529,1.529,0,0,0,254.826,205.674Z" transform="translate(-7.236 -5.073)"/><path class="a" d="M253.112,210.327a25.761,25.761,0,0,0,2.3-2.326c1.736-2.007,2.654-3.809,2.654-5.209v-.359a4.955,4.955,0,1,0-9.91,0v.359c0,1.4.923,3.211,2.668,5.226A25.869,25.869,0,0,0,253.112,210.327Zm0-10.912a3.018,3.018,0,1,1-3.018,3.017A3.021,3.021,0,0,1,253.112,199.415Z" transform="translate(-5.523 -3.359)"/><path class="a" d="M247.59,187.4h0a16,16,0,0,0-16,16h0a16,16,0,0,0,16,16h0a16,16,0,0,0,16-16h0A16,16,0,0,0,247.59,187.4Zm5.333,23.691a23.623,23.623,0,0,1-10.667,0c-1.775-.487-2.676-1.2-2.676-2.127,0-1.733,3.18-2.365,5.264-2.592-.219-.233-.443-.48-.667-.739-2.012-2.322-3.032-4.409-3.032-6.2v-.359a6.445,6.445,0,1,1,12.89,0v.359c0,1.793-1.02,3.879-3.032,6.2-.225.259-.449.507-.667.739,2.1.229,5.264.861,5.264,2.592C255.6,209.891,254.7,210.606,252.923,211.093Z" transform="translate(0)"/></g></svg>