<svg xmlns="http://www.w3.org/2000/svg" width="152" height="29" viewBox="0 0 152 29">
  <g id="Grupo_39004" data-name="Grupo 39004" transform="translate(22771 -20940)">
    <g id="whatsapp" transform="translate(-24080 17702)">
      <g id="Grupo_39000" data-name="Grupo 39000">
        <path id="Trazado_95028" data-name="Trazado 95028" d="M1345.8,3257l-2.5-9.3h1.3l1.4,6.1a12.868,12.868,0,0,1,.4,1.9c.2-1,.4-1.6.4-1.7l1.8-6.3h1.5l1.3,4.7a24.556,24.556,0,0,1,.7,3.3,19.443,19.443,0,0,1,.5-2l1.5-6h1.2l-2.6,9.3h-1.2l-2-7.1a6.206,6.206,0,0,1-.3-1.1c-.1.4-.2.8-.3,1.1l-2,7.1Z" fill="#32ba46"/>
        <path id="Trazado_95029" data-name="Trazado 95029" d="M1356.3,3257v-9.3h1.1v3.3a2.517,2.517,0,0,1,2-.9,2.769,2.769,0,0,1,1.3.3,2.047,2.047,0,0,1,.8.8,3.2,3.2,0,0,1,.2,1.5v4.3h-1.1v-4.3c0-.6-.1-1-.4-1.2a1.246,1.246,0,0,0-1.1-.4,1.93,1.93,0,0,0-1,.3,1.344,1.344,0,0,0-.6.7,3.73,3.73,0,0,0-.2,1.2v3.7h-1Z" fill="#32ba46"/>
        <path id="Trazado_95030" data-name="Trazado 95030" d="M1367.9,3256.2a4.187,4.187,0,0,1-1.2.8,5.063,5.063,0,0,1-1.3.2,2.86,2.86,0,0,1-1.7-.5,1.815,1.815,0,0,1-.6-1.4,2.918,2.918,0,0,1,.2-.9,1.344,1.344,0,0,1,.6-.7,2.008,2.008,0,0,1,.8-.4,8.608,8.608,0,0,1,1-.2,6.9,6.9,0,0,0,2-.4v-.3a1.327,1.327,0,0,0-.3-1,1.7,1.7,0,0,0-1.3-.4,2.133,2.133,0,0,0-1.2.3c-.3.2-.4.5-.6,1l-1.1-.2a3.338,3.338,0,0,1,.5-1.2,2.551,2.551,0,0,1,1-.7,3.646,3.646,0,0,1,1.5-.2,5.219,5.219,0,0,1,1.4.2,1.578,1.578,0,0,1,.8.5,2.008,2.008,0,0,1,.4.8,10.417,10.417,0,0,1,.1,1.1v1.5a8.747,8.747,0,0,0,.1,2,1.135,1.135,0,0,0,.3.8h-1.2C1368,3256.8,1368,3256.5,1367.9,3256.2Zm-.1-2.6a6.089,6.089,0,0,1-1.9.4,5.652,5.652,0,0,0-1,.2,1.758,1.758,0,0,0-.5.4.551.551,0,0,0-.2.5,1.135,1.135,0,0,0,.3.8,1.493,1.493,0,0,0,1,.3,2.663,2.663,0,0,0,1.2-.3,2.048,2.048,0,0,0,.8-.8,3.088,3.088,0,0,0,.2-1.1v-.4Z" fill="#32ba46"/>
        <path id="Trazado_95031" data-name="Trazado 95031" d="M1373.3,3256l.2,1a2.766,2.766,0,0,1-.9.1,2.962,2.962,0,0,1-1-.2,1.206,1.206,0,0,1-.5-.5,4.154,4.154,0,0,1-.1-1.3v-3.9h-.8v-.9h.8v-1.7l1.1-.7v2.4h1.1v.9h-1.1v3.9c0,.3,0,.5.1.6a.215.215,0,0,0,.2.2c.1.1.2.1.4.1Z" fill="#32ba46"/>
        <path id="Trazado_95032" data-name="Trazado 95032" d="M1373.9,3255l1.1-.2c.1.5.2.8.5,1a2.237,2.237,0,0,0,2.4.1.91.91,0,0,0,.4-.8.6.6,0,0,0-.3-.6,7.674,7.674,0,0,0-1.2-.4c-.8-.2-1.4-.4-1.7-.5a2.165,2.165,0,0,1-.7-.6,1.614,1.614,0,0,1-.3-.9,1.884,1.884,0,0,1,.2-.8.9.9,0,0,1,.6-.6,4.875,4.875,0,0,1,.7-.3,3.08,3.08,0,0,1,1-.1,5.91,5.91,0,0,1,1.4.2,3.485,3.485,0,0,1,.9.6,3,3,0,0,1,.4,1l-1.1.2a2.008,2.008,0,0,0-.4-.8,1.493,1.493,0,0,0-1-.3,1.609,1.609,0,0,0-1.1.3.864.864,0,0,0-.3.6.6.6,0,0,0,.1.4,1.379,1.379,0,0,0,.4.3,4.288,4.288,0,0,1,1,.3c.8.2,1.4.4,1.7.5a1.556,1.556,0,0,1,.8.6,1.689,1.689,0,0,1,.3,1,2.28,2.28,0,0,1-.3,1.1,2.088,2.088,0,0,1-1,.8,3.2,3.2,0,0,1-1.4.3,3.677,3.677,0,0,1-2-.5A3.161,3.161,0,0,1,1373.9,3255Z" fill="#32ba46"/>
        <path id="Trazado_95033" data-name="Trazado 95033" d="M1380,3257l3.6-9.3h1.3l3.8,9.3h-1.4l-1.1-2.8h-3.9l-1,2.8Zm2.7-3.8h3.2l-1-2.6c-.3-.8-.5-1.4-.7-1.9a12.094,12.094,0,0,1-.5,1.8Z" fill="#32ba46"/>
        <path id="Trazado_95034" data-name="Trazado 95034" d="M1389.5,3259.6v-9.3h1v.9a3.041,3.041,0,0,1,.8-.8,2.016,2.016,0,0,1,1.1-.3,2.411,2.411,0,0,1,1.5.4,2.683,2.683,0,0,1,1,1.3,4.846,4.846,0,0,1,.3,1.8,4.057,4.057,0,0,1-.4,1.9,2.365,2.365,0,0,1-1.1,1.3,2.821,2.821,0,0,1-1.5.4,2.962,2.962,0,0,1-1-.2,2.165,2.165,0,0,1-.7-.6v3.3h-1Zm1.1-5.9a3.09,3.09,0,0,0,.5,1.9,1.708,1.708,0,0,0,2.6,0,2.825,2.825,0,0,0,.5-2,3.09,3.09,0,0,0-.5-1.9,1.613,1.613,0,0,0-1.3-.6,1.574,1.574,0,0,0-1.3.7A2.889,2.889,0,0,0,1390.6,3253.7Z" fill="#32ba46"/>
        <path id="Trazado_95035" data-name="Trazado 95035" d="M1396.8,3259.6v-9.3h1v.9a3.041,3.041,0,0,1,.8-.8,2.016,2.016,0,0,1,1.1-.3,2.411,2.411,0,0,1,1.5.4,2.683,2.683,0,0,1,1,1.3,4.846,4.846,0,0,1,.3,1.8,4.057,4.057,0,0,1-.4,1.9,2.365,2.365,0,0,1-1.1,1.3,2.821,2.821,0,0,1-1.5.4,2.962,2.962,0,0,1-1-.2,1.405,1.405,0,0,1-.7-.6v3.3h-1Zm1-5.9a3.09,3.09,0,0,0,.5,1.9,1.708,1.708,0,0,0,2.6,0,2.825,2.825,0,0,0,.5-2,3.09,3.09,0,0,0-.5-1.9,1.761,1.761,0,0,0-1.3-.6,1.574,1.574,0,0,0-1.3.7A2.888,2.888,0,0,0,1397.8,3253.7Z" fill="#32ba46"/>
        <path id="Trazado_95036" data-name="Trazado 95036" d="M1408,3257v-9.3h1.2v9.3Z" fill="#32ba46"/>
        <path id="Trazado_95037" data-name="Trazado 95037" d="M1411.2,3257v-9.3h1.1v9.3Z" fill="#32ba46"/>
        <path id="Trazado_95038" data-name="Trazado 95038" d="M1414.1,3249v-1.3h1.1v1.3Zm0,8v-6.7h1.1v6.7Z" fill="#32ba46"/>
        <path id="Trazado_95039" data-name="Trazado 95039" d="M1417,3257v-6.7h1v.9a3.041,3.041,0,0,1,.8-.8,2.664,2.664,0,0,1,1.2-.3,2.133,2.133,0,0,1,1.2.3,2.177,2.177,0,0,1,.7.9,2.35,2.35,0,0,1,2.1-1.2,1.755,1.755,0,0,1,1.5.6,2.175,2.175,0,0,1,.5,1.7v4.6h-1.1v-4.2a2.509,2.509,0,0,0-.1-1,1,1,0,0,0-.4-.5,1.444,1.444,0,0,0-.7-.2,1.656,1.656,0,0,0-1.2.5,2.07,2.07,0,0,0-.5,1.5v3.9h-1.1v-4.4a1.609,1.609,0,0,0-.3-1.1.975.975,0,0,0-.9-.4,1.613,1.613,0,0,0-.9.3,1.344,1.344,0,0,0-.6.7,4.637,4.637,0,0,0-.2,1.4v3.5Z" fill="#32ba46"/>
        <path id="Trazado_95040" data-name="Trazado 95040" d="M1427.8,3249v-1.3h1.1v1.3Zm0,8v-6.7h1.1v6.7Z" fill="#32ba46"/>
        <path id="Trazado_95041" data-name="Trazado 95041" d="M1433.2,3256l.2,1a2.766,2.766,0,0,1-.9.1,2.962,2.962,0,0,1-1-.2,1.206,1.206,0,0,1-.5-.5,4.154,4.154,0,0,1-.1-1.3v-3.9h-.8v-.9h.8v-1.7l1.1-.7v2.4h1.1v.9H1432v3.9c0,.3,0,.5.1.6s.1.2.2.2c.1.1.2.1.4.1Z" fill="#32ba46"/>
        <path id="Trazado_95042" data-name="Trazado 95042" d="M1438.7,3256.2a4.187,4.187,0,0,1-1.2.8,5.063,5.063,0,0,1-1.3.2,2.86,2.86,0,0,1-1.7-.5,1.815,1.815,0,0,1-.6-1.4,2.918,2.918,0,0,1,.2-.9,2.035,2.035,0,0,1,.6-.7,2.008,2.008,0,0,1,.8-.4,8.608,8.608,0,0,1,1-.2,6.9,6.9,0,0,0,2-.4v-.3a1.327,1.327,0,0,0-.3-1,1.7,1.7,0,0,0-1.3-.4,2.133,2.133,0,0,0-1.2.3c-.3.2-.4.5-.6,1l-1.1-.2a3.338,3.338,0,0,1,.5-1.2,2.551,2.551,0,0,1,1-.7,3.646,3.646,0,0,1,1.5-.2,5.219,5.219,0,0,1,1.4.2,1.579,1.579,0,0,1,.8.5,2.01,2.01,0,0,1,.4.8,10.417,10.417,0,0,1,.1,1.1v1.5a8.747,8.747,0,0,0,.1,2,1.135,1.135,0,0,0,.3.8h-1.2C1438.8,3256.8,1438.8,3256.5,1438.7,3256.2Zm-.1-2.6a6.089,6.089,0,0,1-1.9.4,5.652,5.652,0,0,0-1,.2,1.758,1.758,0,0,0-.5.4c-.1.2-.2.3-.2.5a1.135,1.135,0,0,0,.3.8,1.493,1.493,0,0,0,1,.3,2.663,2.663,0,0,0,1.2-.3,2.048,2.048,0,0,0,.8-.8,3.088,3.088,0,0,0,.2-1.1v-.4Z" fill="#32ba46"/>
        <path id="Trazado_95043" data-name="Trazado 95043" d="M1445.9,3257v-.9a2.058,2.058,0,0,1-1.9,1,2.824,2.824,0,0,1-1.5-.4,2.335,2.335,0,0,1-1-1.2,4.778,4.778,0,0,1-.4-1.8,4.843,4.843,0,0,1,.3-1.8,3.249,3.249,0,0,1,1-1.3,2.6,2.6,0,0,1,1.5-.4,2.016,2.016,0,0,1,1.1.3,2.7,2.7,0,0,1,.8.7v-3.3h1.1v9.3h-1Zm-3.6-3.4a3.09,3.09,0,0,0,.5,1.9,1.708,1.708,0,0,0,2.6,0,3.09,3.09,0,0,0,.5-1.9,3.439,3.439,0,0,0-.5-2,1.613,1.613,0,0,0-1.3-.6,1.76,1.76,0,0,0-1.3.6A3.677,3.677,0,0,0,1442.3,3253.6Z" fill="#32ba46"/>
        <path id="Trazado_95044" data-name="Trazado 95044" d="M1448.4,3253.6a3.563,3.563,0,0,1,1-2.8,3.44,3.44,0,0,1,4.4.2,3.328,3.328,0,0,1,.9,2.5,3.737,3.737,0,0,1-.4,2,3.179,3.179,0,0,1-1.1,1.2,2.934,2.934,0,0,1-1.6.4,3.169,3.169,0,0,1-2.3-.9A3.417,3.417,0,0,1,1448.4,3253.6Zm1.1,0a2.546,2.546,0,0,0,.6,1.9,1.975,1.975,0,0,0,1.4.6,1.815,1.815,0,0,0,1.4-.6,2.814,2.814,0,0,0,.6-2,2.707,2.707,0,0,0-.6-1.9,1.933,1.933,0,0,0-2.8,0A3.173,3.173,0,0,0,1449.5,3253.6Z" fill="#32ba46"/>
      </g>
      <g id="Grupo_39003" data-name="Grupo 39003" transform="translate(1309 3238)">
        <path id="Trazado_95045" data-name="Trazado 95045" d="M8,0H21a8.024,8.024,0,0,1,8,8V21a8.024,8.024,0,0,1-8,8H8a8.024,8.024,0,0,1-8-8V8A8.024,8.024,0,0,1,8,0Z" fill="#32ba46"/>
        <g id="Grupo_39002" data-name="Grupo 39002" transform="translate(5.122 5.122)">
          <g id="Grupo_39001" data-name="Grupo 39001">
            <path id="Trazado_95046" data-name="Trazado 95046" d="M9.4,18.8a8.781,8.781,0,0,1-4.7-1.3L1,18.8l.8-3.9A9.063,9.063,0,0,1,0,9.4a9.4,9.4,0,1,1,9.4,9.4ZM4.9,16l.3.2a7.871,7.871,0,0,0,4.2,1.2,8,8,0,1,0-8-8,7.881,7.881,0,0,0,1.7,4.9l.2.3-.4,2.1Z" fill="#fff"/>
          </g>
          <path id="Trazado_95047" data-name="Trazado 95047" d="M4.7,5.8s.6-1,1-1,1-.1,1.2.2.9,2,.9,2a.661.661,0,0,1-.1.6,4.62,4.62,0,0,0-.7.7.637.637,0,0,0,0,.6,10.1,10.1,0,0,0,1.3,1.6,9.172,9.172,0,0,0,2.1,1.3.367.367,0,0,0,.3-.1c.1-.1.8-1,.8-1,.1-.2.4-.2.6-.1l2,1a.52.52,0,0,1,.2.4,1.746,1.746,0,0,1-.4,1.2,2.975,2.975,0,0,1-2,1A8.526,8.526,0,0,1,7.1,12C6,10.6,4.8,9.3,4.5,8.1S4.3,6.3,4.7,5.8Z" fill="#fff"/>
        </g>
      </g>
    </g>
    <text id="_" data-name="*" transform="translate(-22622 20955)" fill="#32ba46" font-size="12" font-family="Roboto-Regular, Roboto"><tspan x="-2.584" y="0">*</tspan></text>
  </g>
</svg>
